CooperHewittInterpol1-BoldItalic.ufo
<glyph name="dollar" format="1">
  <advance width="597"/>
  <unicode hex="0024"/>
  <outline>
    <contour>
      <point x="263" y="333" type="line" smooth="yes"/>
      <point x="351" y="307" type="line" smooth="yes"/>
      <point x="381" y="256" type="line" smooth="yes"/>
      <point x="356" y="200" type="line" smooth="yes"/>
      <point x="285" y="180" type="line" smooth="yes"/>
      <point x="280" y="180" type="line" smooth="yes"/>
      <point x="207" y="207" type="line" smooth="yes"/>
      <point x="191" y="281" type="line" smooth="yes"/>
      <point x="32" y="281" type="line" smooth="yes"/>
      <point x="31" y="274" type="line" smooth="yes"/>
      <point x="45" y="153" type="line" smooth="yes"/>
      <point x="127" y="77" type="line" smooth="yes"/>
      <point x="77" y="-60" type="line" smooth="yes"/>
      <point x="198" y="-60" type="line" smooth="yes"/>
      <point x="239" y="52" type="line" smooth="yes"/>
      <point x="253" y="51" type="line" smooth="yes"/>
      <point x="268" y="51" type="line" smooth="yes"/>
      <point x="459" y="101" type="line" smooth="yes"/>
      <point x="541" y="247" type="line" smooth="yes"/>
      <point x="543" y="264" type="line" smooth="yes"/>
      <point x="498" y="393" type="line" smooth="yes"/>
      <point x="346" y="453" type="line" smooth="yes"/>
      <point x="254" y="478" type="line" smooth="yes"/>
      <point x="229" y="524" type="line" smooth="yes"/>
      <point x="253" y="580" type="line" smooth="yes"/>
      <point x="321" y="601" type="line" smooth="yes"/>
      <point x="326" y="601" type="line" smooth="yes"/>
      <point x="398" y="572" type="line" smooth="yes"/>
      <point x="409" y="491" type="line" smooth="yes"/>
      <point x="566" y="491" type="line" smooth="yes"/>
      <point x="568" y="502" type="line" smooth="yes"/>
      <point x="556" y="624" type="line" smooth="yes"/>
      <point x="480" y="702" type="line" smooth="yes"/>
      <point x="531" y="840" type="line" smooth="yes"/>
      <point x="410" y="840" type="line" smooth="yes"/>
      <point x="369" y="730" type="line" smooth="yes"/>
      <point x="352" y="731" type="line" smooth="yes"/>
      <point x="335" y="731" type="line" smooth="yes"/>
      <point x="154" y="680" type="line" smooth="yes"/>
      <point x="72" y="539" type="line" smooth="yes"/>
      <point x="70" y="522" type="line" smooth="yes"/>
      <point x="108" y="395" type="line" smooth="yes"/>
    </contour>
  </outline>
</glyph>
<glyph name="percent" format="1">
  <advance width="979"/>
  <unicode hex="0025"/>
  <outline>
    <contour>
      <point x="57" y="592" type="line" smooth="yes"/>
      <point x="95" y="456" type="line" smooth="yes"/>
      <point x="235" y="404" type="line" smooth="yes"/>
      <point x="364" y="454" type="line" smooth="yes"/>
      <point x="435" y="594" type="line" smooth="yes"/>
      <point x="436" y="605" type="line" smooth="yes"/>
      <point x="437" y="617" type="line" smooth="yes"/>
      <point x="437" y="628" type="line" smooth="yes"/>
      <point x="464" y="625" type="line" smooth="yes"/>
      <point x="485" y="625" type="line" smooth="yes"/>
      <point x="527" y="628" type="line" smooth="yes"/>
      <point x="557" y="633" type="line" smooth="yes"/>
      <point x="210" y="0" type="line" smooth="yes"/>
      <point x="348" y="0" type="line" smooth="yes"/>
      <point x="736" y="708" type="line" smooth="yes"/>
      <point x="746" y="783" type="line" smooth="yes"/>
      <point x="658" y="763" type="line" smooth="yes"/>
      <point x="520" y="751" type="line" smooth="yes"/>
      <point x="425" y="758" type="line" smooth="yes"/>
      <point x="343" y="778" type="line" smooth="yes"/>
      <point x="302" y="789" type="line" smooth="yes"/>
      <point x="258" y="793" type="line" smooth="yes"/>
      <point x="129" y="743" type="line" smooth="yes"/>
      <point x="58" y="603" type="line" smooth="yes"/>
    </contour>
    <contour>
      <point x="174" y="604" type="line" smooth="yes"/>
      <point x="199" y="657" type="line" smooth="yes"/>
      <point x="247" y="676" type="line" smooth="yes"/>
      <point x="257" y="676" type="line" smooth="yes"/>
      <point x="304" y="656" type="line" smooth="yes"/>
      <point x="320" y="604" type="line" smooth="yes"/>
      <point x="319" y="593" type="line" smooth="yes"/>
      <point x="295" y="540" type="line" smooth="yes"/>
      <point x="246" y="521" type="line" smooth="yes"/>
      <point x="236" y="521" type="line" smooth="yes"/>
      <point x="189" y="541" type="line" smooth="yes"/>
      <point x="173" y="593" type="line" smooth="yes"/>
    </contour>
    <contour>
      <point x="811" y="176" type="line" smooth="yes"/>
      <point x="787" y="123" type="line" smooth="yes"/>
      <point x="738" y="104" type="line" smooth="yes"/>
      <point x="728" y="104" type="line" smooth="yes"/>
      <point x="681" y="124" type="line" smooth="yes"/>
      <point x="665" y="176" type="line" smooth="yes"/>
      <point x="666" y="187" type="line" smooth="yes"/>
      <point x="691" y="240" type="line" smooth="yes"/>
      <point x="739" y="259" type="line" smooth="yes"/>
      <point x="749" y="259" type="line" smooth="yes"/>
      <point x="796" y="239" type="line" smooth="yes"/>
      <point x="812" y="187" type="line" smooth="yes"/>
    </contour>
    <contour>
      <point x="928" y="188" type="line" smooth="yes"/>
      <point x="890" y="324" type="line" smooth="yes"/>
      <point x="750" y="376" type="line" smooth="yes"/>
      <point x="621" y="326" type="line" smooth="yes"/>
      <point x="550" y="186" type="line" smooth="yes"/>
      <point x="549" y="175" type="line" smooth="yes"/>
      <point x="587" y="39" type="line" smooth="yes"/>
      <point x="727" y="-13" type="line" smooth="yes"/>
      <point x="856" y="37" type="line" smooth="yes"/>
      <point x="927" y="177" type="line" smooth="yes"/>
    </contour>
  </outline>
</glyph>
<glyph name="ampersand" format="1">
  <advance width="691"/>
  <unicode hex="0026"/>
  <outline>
    <contour>
      <point x="249" y="608" type="line" smooth="yes"/>
      <point x="270" y="648" type="line" smooth="yes"/>
      <point x="313" y="663" type="line" smooth="yes"/>
      <point x="319" y="663" type="line" smooth="yes"/>
      <point x="358" y="647" type="line" smooth="yes"/>
      <point x="368" y="606" type="line" smooth="yes"/>
      <point x="367" y="598" type="line" smooth="yes"/>
      <point x="337" y="545" type="line" smooth="yes"/>
      <point x="273" y="503" type="line" smooth="yes"/>
      <point x="253" y="547" type="line" smooth="yes"/>
      <point x="248" y="600" type="line" smooth="yes"/>
    </contour>
    <contour>
      <point x="242" y="123" type="line" smooth="yes"/>
      <point x="174" y="150" type="line" smooth="yes"/>
      <point x="160" y="224" type="line" smooth="yes"/>
      <point x="161" y="232" type="line" smooth="yes"/>
      <point x="178" y="281" type="line" smooth="yes"/>
      <point x="211" y="319" type="line" smooth="yes"/>
      <point x="333" y="148" type="line" smooth="yes"/>
      <point x="298" y="131" type="line" smooth="yes"/>
      <point x="248" y="123" type="line" smooth="yes"/>
    </contour>
    <contour>
      <point x="204" y="-13" type="line" smooth="yes"/>
      <point x="316" y="0" type="line" smooth="yes"/>
      <point x="412" y="37" type="line" smooth="yes"/>
      <point x="440" y="0" type="line" smooth="yes"/>
      <point x="630" y="0" type="line" smooth="yes"/>
      <point x="537" y="129" type="line" smooth="yes"/>
      <point x="621" y="249" type="line" smooth="yes"/>
      <point x="664" y="395" type="line" smooth="yes"/>
      <point x="498" y="395" type="line" smooth="yes"/>
      <point x="497" y="388" type="line" smooth="yes"/>
      <point x="477" y="315" type="line" smooth="yes"/>
      <point x="445" y="257" type="line" smooth="yes"/>
      <point x="344" y="398" type="line" smooth="yes"/>
      <point x="459" y="472" type="line" smooth="yes"/>
      <point x="524" y="596" type="line" smooth="yes"/>
      <point x="526" y="609" type="line" smooth="yes"/>
      <point x="491" y="737" type="line" smooth="yes"/>
      <point x="326" y="793" type="line" smooth="yes"/>
      <point x="158" y="741" type="line" smooth="yes"/>
      <point x="90" y="616" type="line" smooth="yes"/>
      <point x="88" y="602" type="line" smooth="yes"/>
      <point x="94" y="504" type="line" smooth="yes"/>
      <point x="135" y="424" type="line" smooth="yes"/>
      <point x="45" y="348" type="line" smooth="yes"/>
      <point x="-1" y="224" type="line" smooth="yes"/>
      <point x="-3" y="207" type="line" smooth="yes"/>
      <point x="39" y="46" type="line" smooth="yes"/>
    </contour>
  </outline>
</glyph>
<glyph name="parenleft" format="1">
  <advance width="365"/>
  <unicode hex="0028"/>
  <outline>
    <contour>
      <point x="36" y="346" type="line" smooth="yes"/>
      <point x="49" y="74" type="line" smooth="yes"/>
      <point x="121" y="-120" type="line" smooth="yes"/>
      <point x="281" y="-120" type="line" smooth="yes"/>
      <point x="207" y="89" type="line" smooth="yes"/>
      <point x="191" y="346" type="line" smooth="yes"/>
      <point x="194" y="375" type="line" smooth="yes"/>
      <point x="272" y="636" type="line" smooth="yes"/>
      <point x="407" y="840" type="line" smooth="yes"/>
      <point x="245" y="840" type="line" smooth="yes"/>
      <point x="115" y="647" type="line" smooth="yes"/>
      <point x="39" y="375" type="line" smooth="yes"/>
    </contour>
  </outline>
</glyph>
<glyph name="parenright" format="1">
  <advance width="359"/>
  <unicode hex="0029"/>
  <outline>
    <contour>
      <point x="326" y="374" type="line" smooth="yes"/>
      <point x="313" y="646" type="line" smooth="yes"/>
      <point x="241" y="840" type="line" smooth="yes"/>
      <point x="81" y="840" type="line" smooth="yes"/>
      <point x="155" y="631" type="line" smooth="yes"/>
      <point x="171" y="374" type="line" smooth="yes"/>
      <point x="168" y="345" type="line" smooth="yes"/>
      <point x="90" y="84" type="line" smooth="yes"/>
      <point x="-45" y="-120" type="line" smooth="yes"/>
      <point x="117" y="-120" type="line" smooth="yes"/>
      <point x="247" y="73" type="line" smooth="yes"/>
      <point x="323" y="345" type="line" smooth="yes"/>
    </contour>
  </outline>
</glyph>
<glyph name="comma" format="1">
  <advance width="266"/>
  <unicode hex="002C"/>
  <outline>
    <contour>
      <point x="190" y="167" type="line" smooth="yes"/>
      <point x="23" y="167" type="line" smooth="yes"/>
      <point x="1" y="0" type="line" smooth="yes"/>
      <point x="86" y="0" type="line" smooth="yes"/>
      <point x="52" y="-50" type="line" smooth="yes"/>
      <point x="-12" y="-67" type="line" smooth="yes"/>
      <point x="-22" y="-143" type="line" smooth="yes"/>
      <point x="112" y="-99" type="line" smooth="yes"/>
      <point x="173" y="37" type="line" smooth="yes"/>
    </contour>
  </outline>
</glyph>
<glyph name="hyphen" format="1">
  <advance width="353"/>
  <unicode hex="002D"/>
  <outline>
    <contour>
      <point x="27" y="281" type="line" smooth="yes"/>
      <point x="300" y="281" type="line" smooth="yes"/>
      <point x="318" y="419" type="line" smooth="yes"/>
      <point x="45" y="419" type="line" smooth="yes"/>
    </contour>
  </outline>
</glyph>
<glyph name="zero" format="1">
  <advance width="597"/>
  <unicode hex="0030"/>
  <outline>
    <contour>
      <point x="374" y="223" type="line" smooth="yes"/>
      <point x="343" y="149" type="line" smooth="yes"/>
      <point x="270" y="127" type="line" smooth="yes"/>
      <point x="266" y="127" type="line" smooth="yes"/>
      <point x="198" y="153" type="line" smooth="yes"/>
      <point x="184" y="222" type="line" smooth="yes"/>
      <point x="228" y="557" type="line" smooth="yes"/>
      <point x="259" y="631" type="line" smooth="yes"/>
      <point x="332" y="653" type="line" smooth="yes"/>
      <point x="336" y="653" type="line" smooth="yes"/>
      <point x="404" y="627" type="line" smooth="yes"/>
      <point x="418" y="558" type="line" smooth="yes"/>
    </contour>
    <contour>
      <point x="578" y="558" type="line" smooth="yes"/>
      <point x="531" y="729" type="line" smooth="yes"/>
      <point x="340" y="793" type="line" smooth="yes"/>
      <point x="146" y="735" type="line" smooth="yes"/>
      <point x="68" y="558" type="line" smooth="yes"/>
      <point x="24" y="222" type="line" smooth="yes"/>
      <point x="71" y="51" type="line" smooth="yes"/>
      <point x="262" y="-13" type="line" smooth="yes"/>
      <point x="456" y="45" type="line" smooth="yes"/>
      <point x="534" y="222" type="line" smooth="yes"/>
    </contour>
  </outline>
</glyph>
<glyph name="one" format="1">
  <advance width="600"/>
  <unicode hex="0031"/>
  <outline>
    <contour>
      <point x="512" y="0" type="line" smooth="yes"/>
      <point x="531" y="140" type="line" smooth="yes"/>
      <point x="359" y="140" type="line" smooth="yes"/>
      <point x="443" y="781" type="line" smooth="yes"/>
      <point x="325" y="781" type="line" smooth="yes"/>
      <point x="59" y="616" type="line" smooth="yes"/>
      <point x="123" y="500" type="line" smooth="yes"/>
      <point x="257" y="582" type="line" smooth="yes"/>
      <point x="199" y="140" type="line" smooth="yes"/>
      <point x="28" y="140" type="line" smooth="yes"/>
      <point x="10" y="0" type="line" smooth="yes"/>
    </contour>
  </outline>
</glyph>
<glyph name="two" format="1">
  <advance width="597"/>
  <unicode hex="0032"/>
  <outline>
    <contour>
      <point x="310" y="140" type="line" smooth="yes"/>
      <point x="239" y="139" type="line" smooth="yes"/>
      <point x="466" y="358" type="line" smooth="yes"/>
      <point x="545" y="447" type="line" smooth="yes"/>
      <point x="578" y="547" type="line" smooth="yes"/>
      <point x="581" y="569" type="line" smooth="yes"/>
      <point x="537" y="723" type="line" smooth="yes"/>
      <point x="340" y="793" type="line" smooth="yes"/>
      <point x="149" y="731" type="line" smooth="yes"/>
      <point x="66" y="542" type="line" smooth="yes"/>
      <point x="63" y="520" type="line" smooth="yes"/>
      <point x="223" y="520" type="line" smooth="yes"/>
      <point x="260" y="624" type="line" smooth="yes"/>
      <point x="333" y="653" type="line" smooth="yes"/>
      <point x="343" y="653" type="line" smooth="yes"/>
      <point x="404" y="627" type="line" smooth="yes"/>
      <point x="419" y="548" type="line" smooth="yes"/>
      <point x="418" y="540" type="line" smooth="yes"/>
      <point x="400" y="487" type="line" smooth="yes"/>
      <point x="351" y="432" type="line" smooth="yes"/>
      <point x="8" y="101" type="line" smooth="yes"/>
      <point x="-5" y="0" type="line" smooth="yes"/>
      <point x="507" y="0" type="line" smooth="yes"/>
      <point x="525" y="140" type="line" smooth="yes"/>
    </contour>
  </outline>
</glyph>
<glyph name="three" format="1">
  <advance width="598"/>
  <unicode hex="0033"/>
  <outline>
    <contour>
      <point x="182" y="250" type="line" smooth="yes"/>
      <point x="22" y="250" type="line" smooth="yes"/>
      <point x="19" y="228" type="line" smooth="yes"/>
      <point x="66" y="53" type="line" smooth="yes"/>
      <point x="269" y="-13" type="line" smooth="yes"/>
      <point x="467" y="56" type="line" smooth="yes"/>
      <point x="538" y="199" type="line" smooth="yes"/>
      <point x="541" y="221" type="line" smooth="yes"/>
      <point x="528" y="335" type="line" smooth="yes"/>
      <point x="458" y="397" type="line" smooth="yes"/>
      <point x="539" y="451" type="line" smooth="yes"/>
      <point x="579" y="555" type="line" smooth="yes"/>
      <point x="582" y="577" type="line" smooth="yes"/>
      <point x="538" y="724" type="line" smooth="yes"/>
      <point x="340" y="793" type="line" smooth="yes"/>
      <point x="150" y="729" type="line" smooth="yes"/>
      <point x="66" y="542" type="line" smooth="yes"/>
      <point x="63" y="520" type="line" smooth="yes"/>
      <point x="223" y="520" type="line" smooth="yes"/>
      <point x="262" y="624" type="line" smooth="yes"/>
      <point x="335" y="653" type="line" smooth="yes"/>
      <point x="345" y="653" type="line" smooth="yes"/>
      <point x="404" y="629" type="line" smooth="yes"/>
      <point x="420" y="566" type="line" smooth="yes"/>
      <point x="419" y="558" type="line" smooth="yes"/>
      <point x="386" y="491" type="line" smooth="yes"/>
      <point x="315" y="468" type="line" smooth="yes"/>
      <point x="211" y="468" type="line" smooth="yes"/>
      <point x="193" y="328" type="line" smooth="yes"/>
      <point x="299" y="328" type="line" smooth="yes"/>
      <point x="366" y="304" type="line" smooth="yes"/>
      <point x="381" y="231" type="line" smooth="yes"/>
      <point x="380" y="223" type="line" smooth="yes"/>
      <point x="343" y="149" type="line" smooth="yes"/>
      <point x="274" y="127" type="line" smooth="yes"/>
      <point x="264" y="127" type="line" smooth="yes"/>
      <point x="198" y="151" type="line" smooth="yes"/>
    </contour>
  </outline>
</glyph>
<glyph name="five" format="1">
  <advance width="600"/>
  <unicode hex="0035"/>
  <outline>
    <contour>
      <point x="22" y="250" type="line" smooth="yes"/>
      <point x="19" y="228" type="line" smooth="yes"/>
      <point x="66" y="53" type="line" smooth="yes"/>
      <point x="269" y="-13" type="line" smooth="yes"/>
      <point x="456" y="53" type="line" smooth="yes"/>
      <point x="542" y="235" type="line" smooth="yes"/>
      <point x="545" y="257" type="line" smooth="yes"/>
      <point x="504" y="436" type="line" smooth="yes"/>
      <point x="335" y="506" type="line" smooth="yes"/>
      <point x="260" y="496" type="line" smooth="yes"/>
      <point x="201" y="466" type="line" smooth="yes"/>
      <point x="232" y="640" type="line" smooth="yes"/>
      <point x="585" y="640" type="line" smooth="yes"/>
      <point x="604" y="780" type="line" smooth="yes"/>
      <point x="116" y="780" type="line" smooth="yes"/>
      <point x="41" y="353" type="line" smooth="yes"/>
      <point x="173" y="306" type="line" smooth="yes"/>
      <point x="224" y="352" type="line" smooth="yes"/>
      <point x="286" y="367" type="line" smooth="yes"/>
      <point x="296" y="367" type="line" smooth="yes"/>
      <point x="363" y="340" type="line" smooth="yes"/>
      <point x="384" y="251" type="line" smooth="yes"/>
      <point x="383" y="243" type="line" smooth="yes"/>
      <point x="344" y="154" type="line" smooth="yes"/>
      <point x="274" y="127" type="line" smooth="yes"/>
      <point x="264" y="127" type="line" smooth="yes"/>
      <point x="198" y="151" type="line" smooth="yes"/>
      <point x="182" y="250" type="line" smooth="yes"/>
    </contour>
  </outline>
</glyph>
<glyph name="six" format="1">
  <advance width="600"/>
  <unicode hex="0036"/>
  <outline>
    <contour>
      <point x="189" y="293" type="line" smooth="yes"/>
      <point x="239" y="337" type="line" smooth="yes"/>
      <point x="294" y="352" type="line" smooth="yes"/>
      <point x="304" y="352" type="line" smooth="yes"/>
      <point x="367" y="327" type="line" smooth="yes"/>
      <point x="386" y="251" type="line" smooth="yes"/>
      <point x="385" y="243" type="line" smooth="yes"/>
      <point x="347" y="154" type="line" smooth="yes"/>
      <point x="273" y="127" type="line" smooth="yes"/>
      <point x="263" y="127" type="line" smooth="yes"/>
      <point x="204" y="153" type="line" smooth="yes"/>
      <point x="181" y="236" type="line" smooth="yes"/>
      <point x="184" y="265" type="line" smooth="yes"/>
    </contour>
    <contour>
      <point x="578" y="793" type="line" smooth="yes"/>
      <point x="365" y="766" type="line" smooth="yes"/>
      <point x="186" y="655" type="line" smooth="yes"/>
      <point x="75" y="479" type="line" smooth="yes"/>
      <point x="33" y="304" type="line" smooth="yes"/>
      <point x="30" y="282" type="line" smooth="yes"/>
      <point x="70" y="70" type="line" smooth="yes"/>
      <point x="268" y="-13" type="line" smooth="yes"/>
      <point x="460" y="53" type="line" smooth="yes"/>
      <point x="544" y="235" type="line" smooth="yes"/>
      <point x="547" y="257" type="line" smooth="yes"/>
      <point x="510" y="429" type="line" smooth="yes"/>
      <point x="362" y="493" type="line" smooth="yes"/>
      <point x="287" y="481" type="line" smooth="yes"/>
      <point x="227" y="446" type="line" smooth="yes"/>
      <point x="255" y="509" type="line" smooth="yes"/>
      <point x="294" y="560" type="line" smooth="yes"/>
      <point x="408" y="629" type="line" smooth="yes"/>
      <point x="560" y="651" type="line" smooth="yes"/>
    </contour>
  </outline>
</glyph>
<glyph name="eight" format="1">
  <advance width="598"/>
  <unicode hex="0038"/>
  <outline>
    <contour>
      <point x="345" y="653" type="line" smooth="yes"/>
      <point x="403" y="629" type="line" smooth="yes"/>
      <point x="420" y="566" type="line" smooth="yes"/>
      <point x="419" y="558" type="line" smooth="yes"/>
      <point x="386" y="491" type="line" smooth="yes"/>
      <point x="315" y="468" type="line" smooth="yes"/>
      <point x="304" y="468" type="line" smooth="yes"/>
      <point x="246" y="491" type="line" smooth="yes"/>
      <point x="227" y="554" type="line" smooth="yes"/>
      <point x="228" y="562" type="line" smooth="yes"/>
      <point x="262" y="630" type="line" smooth="yes"/>
      <point x="335" y="653" type="line" smooth="yes"/>
    </contour>
    <contour>
      <point x="299" y="328" type="line" smooth="yes"/>
      <point x="365" y="304" type="line" smooth="yes"/>
      <point x="381" y="231" type="line" smooth="yes"/>
      <point x="380" y="223" type="line" smooth="yes"/>
      <point x="343" y="149" type="line" smooth="yes"/>
      <point x="274" y="127" type="line" smooth="yes"/>
      <point x="264" y="127" type="line" smooth="yes"/>
      <point x="198" y="150" type="line" smooth="yes"/>
      <point x="179" y="219" type="line" smooth="yes"/>
      <point x="180" y="227" type="line" smooth="yes"/>
      <point x="216" y="303" type="line" smooth="yes"/>
      <point x="285" y="328" type="line" smooth="yes"/>
    </contour>
    <contour>
      <point x="264" y="-13" type="line" smooth="yes"/>
      <point x="466" y="56" type="line" smooth="yes"/>
      <point x="538" y="199" type="line" smooth="yes"/>
      <point x="541" y="221" type="line" smooth="yes"/>
      <point x="528" y="335" type="line" smooth="yes"/>
      <point x="459" y="397" type="line" smooth="yes"/>
      <point x="539" y="451" type="line" smooth="yes"/>
      <point x="579" y="555" type="line" smooth="yes"/>
      <point x="582" y="577" type="line" smooth="yes"/>
      <point x="537" y="724" type="line" smooth="yes"/>
      <point x="338" y="793" type="line" smooth="yes"/>
      <point x="138" y="724" type="line" smooth="yes"/>
      <point x="71" y="584" type="line" smooth="yes"/>
      <point x="68" y="562" type="line" smooth="yes"/>
      <point x="85" y="457" type="line" smooth="yes"/>
      <point x="151" y="397" type="line" smooth="yes"/>
      <point x="64" y="340" type="line" smooth="yes"/>
      <point x="20" y="231" type="line" smooth="yes"/>
      <point x="17" y="209" type="line" smooth="yes"/>
      <point x="67" y="54" type="line" smooth="yes"/>
    </contour>
  </outline>
</glyph>
<glyph name="nine" format="1">
  <advance width="595"/>
  <unicode hex="0039"/>
  <outline>
    <contour>
      <point x="415" y="487" type="line" smooth="yes"/>
      <point x="366" y="443" type="line" smooth="yes"/>
      <point x="310" y="428" type="line" smooth="yes"/>
      <point x="300" y="428" type="line" smooth="yes"/>
      <point x="237" y="453" type="line" smooth="yes"/>
      <point x="218" y="529" type="line" smooth="yes"/>
      <point x="219" y="537" type="line" smooth="yes"/>
      <point x="257" y="627" type="line" smooth="yes"/>
      <point x="331" y="653" type="line" smooth="yes"/>
      <point x="341" y="653" type="line" smooth="yes"/>
      <point x="400" y="627" type="line" smooth="yes"/>
      <point x="423" y="544" type="line" smooth="yes"/>
      <point x="420" y="516" type="line" smooth="yes"/>
    </contour>
    <contour>
      <point x="26" y="-13" type="line" smooth="yes"/>
      <point x="239" y="14" type="line" smooth="yes"/>
      <point x="418" y="125" type="line" smooth="yes"/>
      <point x="529" y="301" type="line" smooth="yes"/>
      <point x="571" y="476" type="line" smooth="yes"/>
      <point x="574" y="498" type="line" smooth="yes"/>
      <point x="534" y="710" type="line" smooth="yes"/>
      <point x="336" y="793" type="line" smooth="yes"/>
      <point x="144" y="727" type="line" smooth="yes"/>
      <point x="60" y="545" type="line" smooth="yes"/>
      <point x="57" y="523" type="line" smooth="yes"/>
      <point x="94" y="351" type="line" smooth="yes"/>
      <point x="242" y="287" type="line" smooth="yes"/>
      <point x="317" y="299" type="line" smooth="yes"/>
      <point x="377" y="334" type="line" smooth="yes"/>
      <point x="350" y="271" type="line" smooth="yes"/>
      <point x="310" y="220" type="line" smooth="yes"/>
      <point x="196" y="151" type="line" smooth="yes"/>
      <point x="44" y="129" type="line" smooth="yes"/>
    </contour>
  </outline>
</glyph>
<glyph name="less" format="1">
  <advance width="600"/>
  <unicode hex="003C"/>
  <outline>
    <contour>
      <point x="53" y="467" type="line" smooth="yes"/>
      <point x="33" y="313" type="line" smooth="yes"/>
      <point x="522" y="108" type="line" smooth="yes"/>
      <point x="542" y="259" type="line" smooth="yes"/>
      <point x="217" y="389" type="line" smooth="yes"/>
      <point x="576" y="519" type="line" smooth="yes"/>
      <point x="596" y="672" type="line" smooth="yes"/>
    </contour>
  </outline>
</glyph>
<glyph name="at" format="1">
  <advance width="986"/>
  <unicode hex="0040"/>
  <outline>
    <contour>
      <point x="563" y="374" type="line" smooth="yes"/>
      <point x="542" y="216" type="line" smooth="yes"/>
      <point x="508" y="185" type="line" smooth="yes"/>
      <point x="452" y="169" type="line" smooth="yes"/>
      <point x="392" y="198" type="line" smooth="yes"/>
      <point x="382" y="278" type="line" smooth="yes"/>
      <point x="387" y="316" type="line" smooth="yes"/>
      <point x="417" y="394" type="line" smooth="yes"/>
      <point x="482" y="421" type="line" smooth="yes"/>
      <point x="536" y="405" type="line" smooth="yes"/>
    </contour>
    <contour>
      <point x="464" y="-110" type="line" smooth="yes"/>
      <point x="194" y="-12" type="line" smooth="yes"/>
      <point x="118" y="278" type="line" smooth="yes"/>
      <point x="123" y="316" type="line" smooth="yes"/>
      <point x="259" y="598" type="line" smooth="yes"/>
      <point x="534" y="690" type="line" smooth="yes"/>
      <point x="544" y="690" type="line" smooth="yes"/>
      <point x="777" y="629" type="line" smooth="yes"/>
      <point x="862" y="400" type="line" smooth="yes"/>
      <point x="857" y="362" type="line" smooth="yes"/>
      <point x="799" y="204" type="line" smooth="yes"/>
      <point x="672" y="162" type="line" smooth="yes"/>
      <point x="702" y="393" type="line" smooth="yes"/>
      <point x="728" y="530" type="line" smooth="yes"/>
      <point x="606" y="530" type="line" smooth="yes"/>
      <point x="590" y="471" type="line" smooth="yes"/>
      <point x="541" y="523" type="line" smooth="yes"/>
      <point x="455" y="543" type="line" smooth="yes"/>
      <point x="310" y="480" type="line" smooth="yes"/>
      <point x="243" y="316" type="line" smooth="yes"/>
      <point x="238" y="278" type="line" smooth="yes"/>
      <point x="263" y="112" type="line" smooth="yes"/>
      <point x="400" y="47" type="line" smooth="yes"/>
      <point x="481" y="67" type="line" smooth="yes"/>
      <point x="541" y="119" type="line" smooth="yes"/>
      <point x="544" y="60" type="line" smooth="yes"/>
      <point x="639" y="60" type="line" smooth="yes"/>
      <point x="847" y="121" type="line" smooth="yes"/>
      <point x="962" y="362" type="line" smooth="yes"/>
      <point x="967" y="400" type="line" smooth="yes"/>
      <point x="863" y="699" type="line" smooth="yes"/>
      <point x="539" y="793" type="line" smooth="yes"/>
      <point x="195" y="673" type="line" smooth="yes"/>
      <point x="18" y="316" type="line" smooth="yes"/>
      <point x="13" y="278" type="line" smooth="yes"/>
      <point x="112" y="-83" type="line" smooth="yes"/>
      <point x="469" y="-213" type="line" smooth="yes"/>
      <point x="642" y="-188" type="line" smooth="yes"/>
      <point x="850" y="-82" type="line" smooth="yes"/>
      <point x="798" y="0" type="line" smooth="yes"/>
      <point x="646" y="-81" type="line" smooth="yes"/>
      <point x="474" y="-110" type="line" smooth="yes"/>
    </contour>
  </outline>
</glyph>
<glyph name="C" format="1">
  <advance width="646"/>
  <unicode hex="0043"/>
  <outline>
    <contour>
      <point x="207" y="407" type="line" smooth="yes"/>
      <point x="258" y="589" type="line" smooth="yes"/>
      <point x="362" y="653" type="line" smooth="yes"/>
      <point x="372" y="653" type="line" smooth="yes"/>
      <point x="455" y="611" type="line" smooth="yes"/>
      <point x="463" y="484" type="line" smooth="yes"/>
      <point x="626" y="484" type="line" smooth="yes"/>
      <point x="630" y="516" type="line" smooth="yes"/>
      <point x="585" y="724" type="line" smooth="yes"/>
      <point x="371" y="793" type="line" smooth="yes"/>
      <point x="147" y="701" type="line" smooth="yes"/>
      <point x="42" y="406" type="line" smooth="yes"/>
      <point x="38" y="374" type="line" smooth="yes"/>
      <point x="81" y="79" type="line" smooth="yes"/>
      <point x="295" y="-13" type="line" smooth="yes"/>
      <point x="499" y="47" type="line" smooth="yes"/>
      <point x="595" y="251" type="line" smooth="yes"/>
      <point x="597" y="266" type="line" smooth="yes"/>
      <point x="434" y="266" type="line" smooth="yes"/>
      <point x="402" y="164" type="line" smooth="yes"/>
      <point x="304" y="127" type="line" smooth="yes"/>
      <point x="294" y="127" type="line" smooth="yes"/>
      <point x="208" y="192" type="line" smooth="yes"/>
      <point x="203" y="374" type="line" smooth="yes"/>
    </contour>
  </outline>
</glyph>
<glyph name="Y" format="1">
  <advance width="625"/>
  <unicode hex="0059"/>
  <outline>
    <contour>
      <point x="376" y="239" type="line" smooth="yes"/>
      <point x="670" y="780" type="line" smooth="yes"/>
      <point x="490" y="780" type="line" smooth="yes"/>
      <point x="318" y="437" type="line" smooth="yes"/>
      <point x="235" y="780" type="line" smooth="yes"/>
      <point x="61" y="780" type="line" smooth="yes"/>
      <point x="214" y="239" type="line" smooth="yes"/>
      <point x="183" y="0" type="line" smooth="yes"/>
      <point x="345" y="0" type="line" smooth="yes"/>
    </contour>
  </outline>
</glyph>
<glyph name="bracketright" format="1">
  <advance width="365"/>
  <unicode hex="005D"/>
  <outline>
    <contour>
      <point x="242" y="-120" type="line" smooth="yes"/>
      <point x="368" y="840" type="line" smooth="yes"/>
      <point x="94" y="840" type="line" smooth="yes"/>
      <point x="76" y="702" type="line" smooth="yes"/>
      <point x="193" y="702" type="line" smooth="yes"/>
      <point x="103" y="18" type="line" smooth="yes"/>
      <point x="-14" y="18" type="line" smooth="yes"/>
      <point x="-32" y="-120" type="line" smooth="yes"/>
    </contour>
  </outline>
</glyph>
<glyph name="asciicircum" format="1">
  <advance width="600"/>
  <unicode hex="005E"/>
  <outline>
    <contour>
      <point x="430" y="780" type="line" smooth="yes"/>
      <point x="276" y="780" type="line" smooth="yes"/>
      <point x="3" y="264" type="line" smooth="yes"/>
      <point x="163" y="264" type="line" smooth="yes"/>
      <point x="334" y="602" type="line" smooth="yes"/>
      <point x="415" y="264" type="line" smooth="yes"/>
      <point x="567" y="264" type="line" smooth="yes"/>
    </contour>
  </outline>
</glyph>
<glyph name="grave" format="1">
  <advance width="500"/>
  <unicode hex="0060"/>
  <outline>
    <contour>
      <point x="118" y="780" type="line" smooth="yes"/>
      <point x="201" y="596" type="line" smooth="yes"/>
      <point x="357" y="596" type="line" smooth="yes"/>
      <point x="290" y="780" type="line" smooth="yes"/>
    </contour>
  </outline>
</glyph>
<glyph name="d" format="1">
  <advance width="582"/>
  <unicode hex="0064"/>
  <outline>
    <contour>
      <point x="287" y="407" type="line" smooth="yes"/>
      <point x="341" y="389" type="line" smooth="yes"/>
      <point x="368" y="355" type="line" smooth="yes"/>
      <point x="344" y="172" type="line" smooth="yes"/>
      <point x="312" y="140" type="line" smooth="yes"/>
      <point x="252" y="123" type="line" smooth="yes"/>
      <point x="189" y="154" type="line" smooth="yes"/>
      <point x="178" y="246" type="line" smooth="yes"/>
      <point x="183" y="284" type="line" smooth="yes"/>
      <point x="216" y="376" type="line" smooth="yes"/>
    </contour>
    <contour>
      <point x="190" y="-13" type="line" smooth="yes"/>
      <point x="288" y="10" type="line" smooth="yes"/>
      <point x="348" y="70" type="line" smooth="yes"/>
      <point x="348" y="0" type="line" smooth="yes"/>
      <point x="489" y="0" type="line" smooth="yes"/>
      <point x="499" y="149" type="line" smooth="yes"/>
      <point x="585" y="800" type="line" smooth="yes"/>
      <point x="427" y="800" type="line" smooth="yes"/>
      <point x="385" y="484" type="line" smooth="yes"/>
      <point x="340" y="523" type="line" smooth="yes"/>
      <point x="250" y="543" type="line" smooth="yes"/>
      <point x="94" y="471" type="line" smooth="yes"/>
      <point x="25" y="284" type="line" smooth="yes"/>
      <point x="20" y="246" type="line" smooth="yes"/>
      <point x="47" y="57" type="line" smooth="yes"/>
    </contour>
  </outline>
</glyph>
<glyph name="j" format="1">
  <advance width="268"/>
  <unicode hex="006A"/>
  <outline>
    <contour>
      <point x="4" y="-6" type="line" smooth="yes"/>
      <point x="-25" y="-64" type="line" smooth="yes"/>
      <point x="-80" y="-77" type="line" smooth="yes"/>
      <point x="-113" y="-74" type="line" smooth="yes"/>
      <point x="-130" y="-70" type="line" smooth="yes"/>
      <point x="-147" y="-200" type="line" smooth="yes"/>
      <point x="-119" y="-208" type="line" smooth="yes"/>
      <point x="-60" y="-213" type="line" smooth="yes"/>
      <point x="88" y="-170" type="line" smooth="yes"/>
      <point x="160" y="-23" type="line" smooth="yes"/>
      <point x="232" y="530" type="line" smooth="yes"/>
      <point x="74" y="530" type="line" smooth="yes"/>
    </contour>
    <contour>
      <point x="268" y="772" type="line" smooth="yes"/>
      <point x="101" y="772" type="line" smooth="yes"/>
      <point x="79" y="605" type="line" smooth="yes"/>
      <point x="246" y="605" type="line" smooth="yes"/>
    </contour>
  </outline>
</glyph>
<glyph name="n" format="1">
  <advance width="577"/>
  <unicode hex="006E"/>
  <outline>
    <contour>
      <point x="483" y="0" type="line" smooth="yes"/>
      <point x="530" y="358" type="line" smooth="yes"/>
      <point x="505" y="490" type="line" smooth="yes"/>
      <point x="375" y="543" type="line" smooth="yes"/>
      <point x="279" y="520" type="line" smooth="yes"/>
      <point x="206" y="460" type="line" smooth="yes"/>
      <point x="206" y="530" type="line" smooth="yes"/>
      <point x="65" y="530" type="line" smooth="yes"/>
      <point x="55" y="381" type="line" smooth="yes"/>
      <point x="5" y="0" type="line" smooth="yes"/>
      <point x="163" y="0" type="line" smooth="yes"/>
      <point x="210" y="358" type="line" smooth="yes"/>
      <point x="250" y="390" type="line" smooth="yes"/>
      <point x="310" y="407" type="line" smooth="yes"/>
      <point x="360" y="388" type="line" smooth="yes"/>
      <point x="369" y="335" type="line" smooth="yes"/>
      <point x="325" y="0" type="line" smooth="yes"/>
    </contour>
  </outline>
</glyph>
<glyph name="q" format="1">
  <advance width="581"/>
  <unicode hex="0071"/>
  <outline>
    <contour>
      <point x="282" y="407" type="line" smooth="yes"/>
      <point x="336" y="389" type="line" smooth="yes"/>
      <point x="363" y="355" type="line" smooth="yes"/>
      <point x="339" y="172" type="line" smooth="yes"/>
      <point x="307" y="140" type="line" smooth="yes"/>
      <point x="247" y="123" type="line" smooth="yes"/>
      <point x="184" y="154" type="line" smooth="yes"/>
      <point x="173" y="246" type="line" smooth="yes"/>
      <point x="178" y="284" type="line" smooth="yes"/>
      <point x="211" y="376" type="line" smooth="yes"/>
    </contour>
    <contour>
      <point x="448" y="-200" type="line" smooth="yes"/>
      <point x="524" y="380" type="line" smooth="yes"/>
      <point x="552" y="530" type="line" smooth="yes"/>
      <point x="410" y="530" type="line" smooth="yes"/>
      <point x="392" y="465" type="line" smooth="yes"/>
      <point x="338" y="521" type="line" smooth="yes"/>
      <point x="245" y="543" type="line" smooth="yes"/>
      <point x="89" y="471" type="line" smooth="yes"/>
      <point x="20" y="284" type="line" smooth="yes"/>
      <point x="15" y="246" type="line" smooth="yes"/>
      <point x="42" y="57" type="line" smooth="yes"/>
      <point x="185" y="-13" type="line" smooth="yes"/>
      <point x="266" y="2" type="line" smooth="yes"/>
      <point x="322" y="42" type="line" smooth="yes"/>
      <point x="290" y="-200" type="line" smooth="yes"/>
    </contour>
  </outline>
</glyph>
<glyph name="braceleft" format="1">
  <advance width="365"/>
  <unicode hex="007B"/>
  <outline>
    <contour>
      <point x="393" y="840" type="line" smooth="yes"/>
      <point x="366" y="840" type="line" smooth="yes"/>
      <point x="211" y="801" type="line" smooth="yes"/>
      <point x="137" y="662" type="line" smooth="yes"/>
      <point x="117" y="511" type="line" smooth="yes"/>
      <point x="90" y="447" type="line" smooth="yes"/>
      <point x="31" y="429" type="line" smooth="yes"/>
      <point x="13" y="291" type="line" smooth="yes"/>
      <point x="66" y="274" type="line" smooth="yes"/>
      <point x="78" y="217" type="line" smooth="yes"/>
      <point x="57" y="58" type="line" smooth="yes"/>
      <point x="99" y="-82" type="line" smooth="yes"/>
      <point x="240" y="-120" type="line" smooth="yes"/>
      <point x="267" y="-120" type="line" smooth="yes"/>
      <point x="285" y="18" type="line" smooth="yes"/>
      <point x="230" y="36" type="line" smooth="yes"/>
      <point x="220" y="103" type="line" smooth="yes"/>
      <point x="239" y="244" type="line" smooth="yes"/>
      <point x="233" y="317" type="line" smooth="yes"/>
      <point x="190" y="360" type="line" smooth="yes"/>
      <point x="244" y="403" type="line" smooth="yes"/>
      <point x="269" y="476" type="line" smooth="yes"/>
      <point x="289" y="626" type="line" smooth="yes"/>
      <point x="317" y="686" type="line" smooth="yes"/>
      <point x="375" y="702" type="line" smooth="yes"/>
    </contour>
  </outline>
</glyph>
<glyph name="braceright" format="1">
  <advance width="365"/>
  <unicode hex="007D"/>
  <outline>
    <contour>
      <point x="-32" y="-120" type="line" smooth="yes"/>
      <point x="-5" y="-120" type="line" smooth="yes"/>
      <point x="150" y="-81" type="line" smooth="yes"/>
      <point x="224" y="58" type="line" smooth="yes"/>
      <point x="244" y="209" type="line" smooth="yes"/>
      <point x="271" y="273" type="line" smooth="yes"/>
      <point x="330" y="291" type="line" smooth="yes"/>
      <point x="348" y="429" type="line" smooth="yes"/>
      <point x="295" y="446" type="line" smooth="yes"/>
      <point x="283" y="503" type="line" smooth="yes"/>
      <point x="304" y="662" type="line" smooth="yes"/>
      <point x="262" y="802" type="line" smooth="yes"/>
      <point x="121" y="840" type="line" smooth="yes"/>
      <point x="94" y="840" type="line" smooth="yes"/>
      <point x="76" y="702" type="line" smooth="yes"/>
      <point x="131" y="684" type="line" smooth="yes"/>
      <point x="141" y="617" type="line" smooth="yes"/>
      <point x="122" y="476" type="line" smooth="yes"/>
      <point x="129" y="403" type="line" smooth="yes"/>
      <point x="171" y="360" type="line" smooth="yes"/>
      <point x="117" y="317" type="line" smooth="yes"/>
      <point x="92" y="244" type="line" smooth="yes"/>
      <point x="72" y="94" type="line" smooth="yes"/>
      <point x="44" y="34" type="line" smooth="yes"/>
      <point x="-14" y="18" type="line" smooth="yes"/>
    </contour>
  </outline>
</glyph>
<glyph name="asciitilde" format="1">
  <advance width="600"/>
  <unicode hex="007E"/>
  <outline>
    <contour>
      <point x="192" y="482" type="line" smooth="yes"/>
      <point x="93" y="453" type="line" smooth="yes"/>
      <point x="30" y="387" type="line" smooth="yes"/>
      <point x="94" y="313" type="line" smooth="yes"/>
      <point x="131" y="344" type="line" smooth="yes"/>
      <point x="192" y="361" type="line" smooth="yes"/>
      <point x="289" y="329" type="line" smooth="yes"/>
      <point x="412" y="296" type="line" smooth="yes"/>
      <point x="511" y="325" type="line" smooth="yes"/>
      <point x="574" y="391" type="line" smooth="yes"/>
      <point x="510" y="465" type="line" smooth="yes"/>
      <point x="473" y="434" type="line" smooth="yes"/>
      <point x="410" y="417" type="line" smooth="yes"/>
      <point x="315" y="450" type="line" smooth="yes"/>
    </contour>
  </outline>
</glyph>
<glyph name="sterling" format="1">
  <advance width="594"/>
  <unicode hex="00A3"/>
  <outline>
    <contour>
      <point x="355" y="654" type="line" smooth="yes"/>
      <point x="410" y="613" type="line" smooth="yes"/>
      <point x="414" y="500" type="line" smooth="yes"/>
      <point x="573" y="500" type="line" smooth="yes"/>
      <point x="577" y="529" type="line" smooth="yes"/>
      <point x="543" y="728" type="line" smooth="yes"/>
      <point x="360" y="793" type="line" smooth="yes"/>
      <point x="161" y="700" type="line" smooth="yes"/>
      <point x="114" y="513" type="line" smooth="yes"/>
      <point x="116" y="472" type="line" smooth="yes"/>
      <point x="120" y="434" type="line" smooth="yes"/>
      <point x="53" y="434" type="line" smooth="yes"/>
      <point x="34" y="297" type="line" smooth="yes"/>
      <point x="147" y="297" type="line" smooth="yes"/>
      <point x="160" y="221" type="line" smooth="yes"/>
      <point x="166" y="139" type="line" smooth="yes"/>
      <point x="14" y="139" type="line" smooth="yes"/>
      <point x="-5" y="0" type="line" smooth="yes"/>
      <point x="507" y="0" type="line" smooth="yes"/>
      <point x="526" y="139" type="line" smooth="yes"/>
      <point x="304" y="139" type="line" smooth="yes"/>
      <point x="305" y="222" type="line" smooth="yes"/>
      <point x="300" y="297" type="line" smooth="yes"/>
      <point x="440" y="297" type="line" smooth="yes"/>
      <point x="459" y="434" type="line" smooth="yes"/>
      <point x="282" y="434" type="line" smooth="yes"/>
      <point x="277" y="479" type="line" smooth="yes"/>
      <point x="275" y="521" type="line" smooth="yes"/>
      <point x="291" y="616" type="line" smooth="yes"/>
    </contour>
  </outline>
</glyph>
<glyph name="section" format="1">
  <advance width="547"/>
  <unicode hex="00A7"/>
  <outline>
    <contour>
      <point x="267" y="325" type="line" smooth="yes"/>
      <point x="209" y="340" type="line" smooth="yes"/>
      <point x="189" y="381" type="line" smooth="yes"/>
      <point x="210" y="433" type="line" smooth="yes"/>
      <point x="276" y="455" type="line" smooth="yes"/>
      <point x="285" y="455" type="line" smooth="yes"/>
      <point x="344" y="440" type="line" smooth="yes"/>
      <point x="363" y="399" type="line" smooth="yes"/>
      <point x="342" y="347" type="line" smooth="yes"/>
      <point x="276" y="325" type="line" smooth="yes"/>
    </contour>
    <contour>
      <point x="122" y="514" type="line" smooth="yes"/>
      <point x="61" y="468" type="line" smooth="yes"/>
      <point x="33" y="394" type="line" smooth="yes"/>
      <point x="31" y="379" type="line" smooth="yes"/>
      <point x="70" y="264" type="line" smooth="yes"/>
      <point x="225" y="215" type="line" smooth="yes"/>
      <point x="283" y="198" type="line" smooth="yes"/>
      <point x="300" y="165" type="line" smooth="yes"/>
      <point x="283" y="122" type="line" smooth="yes"/>
      <point x="230" y="106" type="line" smooth="yes"/>
      <point x="178" y="124" type="line" smooth="yes"/>
      <point x="165" y="174" type="line" smooth="yes"/>
      <point x="12" y="174" type="line" smooth="yes"/>
      <point x="10" y="159" type="line" smooth="yes"/>
      <point x="50" y="34" type="line" smooth="yes"/>
      <point x="225" y="-13" type="line" smooth="yes"/>
      <point x="378" y="25" type="line" smooth="yes"/>
      <point x="456" y="145" type="line" smooth="yes"/>
      <point x="458" y="160" type="line" smooth="yes"/>
      <point x="455" y="221" type="line" smooth="yes"/>
      <point x="430" y="266" type="line" smooth="yes"/>
      <point x="491" y="312" type="line" smooth="yes"/>
      <point x="519" y="386" type="line" smooth="yes"/>
      <point x="521" y="401" type="line" smooth="yes"/>
      <point x="482" y="516" type="line" smooth="yes"/>
      <point x="327" y="565" type="line" smooth="yes"/>
      <point x="269" y="583" type="line" smooth="yes"/>
      <point x="252" y="615" type="line" smooth="yes"/>
      <point x="269" y="658" type="line" smooth="yes"/>
      <point x="322" y="674" type="line" smooth="yes"/>
      <point x="374" y="656" type="line" smooth="yes"/>
      <point x="387" y="606" type="line" smooth="yes"/>
      <point x="540" y="606" type="line" smooth="yes"/>
      <point x="542" y="621" type="line" smooth="yes"/>
      <point x="502" y="746" type="line" smooth="yes"/>
      <point x="327" y="793" type="line" smooth="yes"/>
      <point x="174" y="755" type="line" smooth="yes"/>
      <point x="96" y="635" type="line" smooth="yes"/>
      <point x="94" y="620" type="line" smooth="yes"/>
      <point x="97" y="559" type="line" smooth="yes"/>
    </contour>
  </outline>
</glyph>
<glyph name="copyright" format="1">
  <advance width="920"/>
  <unicode hex="00A9"/>
  <outline>
    <contour>
      <point x="463" y="264" type="line" smooth="yes"/>
      <point x="402" y="295" type="line" smooth="yes"/>
      <point x="385" y="373" type="line" smooth="yes"/>
      <point x="385" y="407" type="line" smooth="yes"/>
      <point x="402" y="486" type="line" smooth="yes"/>
      <point x="463" y="516" type="line" smooth="yes"/>
      <point x="516" y="497" type="line" smooth="yes"/>
      <point x="533" y="444" type="line" smooth="yes"/>
      <point x="666" y="444" type="line" smooth="yes"/>
      <point x="666" y="465" type="line" smooth="yes"/>
      <point x="615" y="590" type="line" smooth="yes"/>
      <point x="460" y="639" type="line" smooth="yes"/>
      <point x="295" y="573" type="line" smooth="yes"/>
      <point x="244" y="407" type="line" smooth="yes"/>
      <point x="244" y="373" type="line" smooth="yes"/>
      <point x="295" y="208" type="line" smooth="yes"/>
      <point x="460" y="141" type="line" smooth="yes"/>
      <point x="615" y="189" type="line" smooth="yes"/>
      <point x="666" y="307" type="line" smooth="yes"/>
      <point x="666" y="327" type="line" smooth="yes"/>
      <point x="533" y="327" type="line" smooth="yes"/>
      <point x="516" y="282" type="line" smooth="yes"/>
    </contour>
    <contour>
      <point x="113" y="390" type="line" smooth="yes"/>
      <point x="215" y="636" type="line" smooth="yes"/>
      <point x="460" y="737" type="line" smooth="yes"/>
      <point x="706" y="636" type="line" smooth="yes"/>
      <point x="807" y="390" type="line" smooth="yes"/>
      <point x="706" y="145" type="line" smooth="yes"/>
      <point x="460" y="43" type="line" smooth="yes"/>
      <point x="215" y="145" type="line" smooth="yes"/>
    </contour>
    <contour>
      <point x="57" y="390" type="line" smooth="yes"/>
      <point x="175" y="105" type="line" smooth="yes"/>
      <point x="460" y="-13" type="line" smooth="yes"/>
      <point x="745" y="105" type="line" smooth="yes"/>
      <point x="863" y="390" type="line" smooth="yes"/>
      <point x="745" y="675" type="line" smooth="yes"/>
      <point x="460" y="793" type="line" smooth="yes"/>
      <point x="175" y="675" type="line" smooth="yes"/>
    </contour>
  </outline>
</glyph>
<glyph name="ordfeminine" format="1">
  <advance width="427"/>
  <unicode hex="00AA"/>
  <outline>
    <contour>
      <point x="218" y="487" type="line" smooth="yes"/>
      <point x="189" y="497" type="line" smooth="yes"/>
      <point x="183" y="519" type="line" smooth="yes"/>
      <point x="184" y="525" type="line" smooth="yes"/>
      <point x="197" y="548" type="line" smooth="yes"/>
      <point x="227" y="561" type="line" smooth="yes"/>
      <point x="284" y="570" type="line" smooth="yes"/>
      <point x="276" y="509" type="line" smooth="yes"/>
      <point x="250" y="494" type="line" smooth="yes"/>
    </contour>
    <contour>
      <point x="375" y="181" type="line" smooth="yes"/>
      <point x="391" y="300" type="line" smooth="yes"/>
      <point x="29" y="300" type="line" smooth="yes"/>
      <point x="13" y="181" type="line" smooth="yes"/>
    </contour>
    <contour>
      <point x="280" y="387" type="line" smooth="yes"/>
      <point x="405" y="387" type="line" smooth="yes"/>
      <point x="412" y="499" type="line" smooth="yes"/>
      <point x="431" y="641" type="line" smooth="yes"/>
      <point x="405" y="750" type="line" smooth="yes"/>
      <point x="262" y="793" type="line" smooth="yes"/>
      <point x="127" y="754" type="line" smooth="yes"/>
      <point x="80" y="661" type="line" smooth="yes"/>
      <point x="79" y="652" type="line" smooth="yes"/>
      <point x="209" y="652" type="line" smooth="yes"/>
      <point x="221" y="679" type="line" smooth="yes"/>
      <point x="255" y="690" type="line" smooth="yes"/>
      <point x="287" y="680" type="line" smooth="yes"/>
      <point x="294" y="648" type="line" smooth="yes"/>
      <point x="208" y="635" type="line" smooth="yes"/>
      <point x="97" y="600" type="line" smooth="yes"/>
      <point x="45" y="510" type="line" smooth="yes"/>
      <point x="43" y="499" type="line" smooth="yes"/>
      <point x="60" y="414" type="line" smooth="yes"/>
      <point x="158" y="377" type="line" smooth="yes"/>
      <point x="231" y="392" type="line" smooth="yes"/>
      <point x="280" y="429" type="line" smooth="yes"/>
    </contour>
  </outline>
</glyph>
<glyph name="logicalnot" format="1">
  <advance width="600"/>
  <unicode hex="00AC"/>
  <outline>
    <contour>
      <point x="67" y="576" type="line" smooth="yes"/>
      <point x="49" y="436" type="line" smooth="yes"/>
      <point x="425" y="436" type="line" smooth="yes"/>
      <point x="393" y="194" type="line" smooth="yes"/>
      <point x="532" y="194" type="line" smooth="yes"/>
      <point x="583" y="576" type="line" smooth="yes"/>
    </contour>
  </outline>
</glyph>
<glyph name="registered" format="1">
  <advance width="330"/>
  <unicode hex="00AE"/>
  <outline>
    <contour>
      <point x="186" y="693" type="line" smooth="yes"/>
      <point x="186" y="690" type="line" smooth="yes"/>
      <point x="181" y="677" type="line" smooth="yes"/>
      <point x="168" y="673" type="line" smooth="yes"/>
      <point x="144" y="673" type="line" smooth="yes"/>
      <point x="144" y="710" type="line" smooth="yes"/>
      <point x="168" y="710" type="line" smooth="yes"/>
      <point x="181" y="706" type="line" smooth="yes"/>
    </contour>
    <contour>
      <point x="241" y="689" type="line" smooth="yes"/>
      <point x="241" y="694" type="line" smooth="yes"/>
      <point x="222" y="739" type="line" smooth="yes"/>
      <point x="180" y="751" type="line" smooth="yes"/>
      <point x="89" y="751" type="line" smooth="yes"/>
      <point x="89" y="579" type="line" smooth="yes"/>
      <point x="144" y="579" type="line" smooth="yes"/>
      <point x="144" y="632" type="line" smooth="yes"/>
      <point x="163" y="632" type="line" smooth="yes"/>
      <point x="184" y="579" type="line" smooth="yes"/>
      <point x="241" y="579" type="line" smooth="yes"/>
      <point x="213" y="638" type="line" smooth="yes"/>
      <point x="233" y="656" type="line" smooth="yes"/>
    </contour>
    <contour>
      <point x="41" y="665" type="line" smooth="yes"/>
      <point x="77" y="753" type="line" smooth="yes"/>
      <point x="165" y="789" type="line" smooth="yes"/>
      <point x="253" y="753" type="line" smooth="yes"/>
      <point x="289" y="665" type="line" smooth="yes"/>
      <point x="253" y="577" type="line" smooth="yes"/>
      <point x="165" y="541" type="line" smooth="yes"/>
      <point x="77" y="577" type="line" smooth="yes"/>
    </contour>
    <contour>
      <point x="17" y="665" type="line" smooth="yes"/>
      <point x="60" y="560" type="line" smooth="yes"/>
      <point x="165" y="517" type="line" smooth="yes"/>
      <point x="270" y="560" type="line" smooth="yes"/>
      <point x="313" y="665" type="line" smooth="yes"/>
      <point x="270" y="770" type="line" smooth="yes"/>
      <point x="165" y="813" type="line" smooth="yes"/>
      <point x="60" y="770" type="line" smooth="yes"/>
    </contour>
  </outline>
</glyph>
<glyph name="plusminus" format="1">
  <advance width="600"/>
  <unicode hex="00B1"/>
  <outline>
    <contour>
      <point x="11" y="136" type="line" smooth="yes"/>
      <point x="527" y="136" type="line" smooth="yes"/>
      <point x="545" y="276" type="line" smooth="yes"/>
      <point x="29" y="276" type="line" smooth="yes"/>
    </contour>
    <contour>
      <point x="362" y="317" type="line" smooth="yes"/>
      <point x="376" y="425" type="line" smooth="yes"/>
      <point x="564" y="425" type="line" smooth="yes"/>
      <point x="582" y="565" type="line" smooth="yes"/>
      <point x="394" y="565" type="line" smooth="yes"/>
      <point x="408" y="673" type="line" smooth="yes"/>
      <point x="268" y="673" type="line" smooth="yes"/>
      <point x="254" y="565" type="line" smooth="yes"/>
      <point x="66" y="565" type="line" smooth="yes"/>
      <point x="48" y="425" type="line" smooth="yes"/>
      <point x="236" y="425" type="line" smooth="yes"/>
      <point x="222" y="317" type="line" smooth="yes"/>
    </contour>
  </outline>
</glyph>
<glyph name="twosuperior" format="1">
  <advance width="300"/>
  <unicode hex="00B2"/>
  <outline>
    <contour>
      <point x="305" y="493" type="line" smooth="yes"/>
      <point x="197" y="493" type="line" smooth="yes"/>
      <point x="270" y="562" type="line" smooth="yes"/>
      <point x="310" y="607" type="line" smooth="yes"/>
      <point x="329" y="661" type="line" smooth="yes"/>
      <point x="331" y="676" type="line" smooth="yes"/>
      <point x="309" y="750" type="line" smooth="yes"/>
      <point x="201" y="793" type="line" smooth="yes"/>
      <point x="91" y="753" type="line" smooth="yes"/>
      <point x="54" y="659" type="line" smooth="yes"/>
      <point x="53" y="650" type="line" smooth="yes"/>
      <point x="173" y="650" type="line" smooth="yes"/>
      <point x="180" y="680" type="line" smooth="yes"/>
      <point x="194" y="689" type="line" smooth="yes"/>
      <point x="196" y="689" type="line" smooth="yes"/>
      <point x="207" y="683" type="line" smooth="yes"/>
      <point x="209" y="665" type="line" smooth="yes"/>
      <point x="207" y="650" type="line" smooth="yes"/>
      <point x="201" y="634" type="line" smooth="yes"/>
      <point x="188" y="619" type="line" smooth="yes"/>
      <point x="30" y="468" type="line" smooth="yes"/>
      <point x="20" y="390" type="line" smooth="yes"/>
      <point x="292" y="390" type="line" smooth="yes"/>
    </contour>
  </outline>
</glyph>
<glyph name="threesuperior" format="1">
  <advance width="300"/>
  <unicode hex="00B3"/>
  <outline>
    <contour>
      <point x="149" y="515" type="line" smooth="yes"/>
      <point x="29" y="515" type="line" smooth="yes"/>
      <point x="28" y="506" type="line" smooth="yes"/>
      <point x="58" y="412" type="line" smooth="yes"/>
      <point x="158" y="377" type="line" smooth="yes"/>
      <point x="256" y="406" type="line" smooth="yes"/>
      <point x="303" y="490" type="line" smooth="yes"/>
      <point x="305" y="505" type="line" smooth="yes"/>
      <point x="297" y="559" type="line" smooth="yes"/>
      <point x="262" y="589" type="line" smooth="yes"/>
      <point x="302" y="613" type="line" smooth="yes"/>
      <point x="323" y="661" type="line" smooth="yes"/>
      <point x="325" y="676" type="line" smooth="yes"/>
      <point x="303" y="750" type="line" smooth="yes"/>
      <point x="195" y="793" type="line" smooth="yes"/>
      <point x="85" y="753" type="line" smooth="yes"/>
      <point x="48" y="659" type="line" smooth="yes"/>
      <point x="47" y="650" type="line" smooth="yes"/>
      <point x="167" y="650" type="line" smooth="yes"/>
      <point x="174" y="680" type="line" smooth="yes"/>
      <point x="188" y="689" type="line" smooth="yes"/>
      <point x="190" y="689" type="line" smooth="yes"/>
      <point x="201" y="683" type="line" smooth="yes"/>
      <point x="203" y="665" type="line" smooth="yes"/>
      <point x="202" y="658" type="line" smooth="yes"/>
      <point x="195" y="642" type="line" smooth="yes"/>
      <point x="181" y="637" type="line" smooth="yes"/>
      <point x="134" y="637" type="line" smooth="yes"/>
      <point x="122" y="541" type="line" smooth="yes"/>
      <point x="170" y="541" type="line" smooth="yes"/>
      <point x="184" y="535" type="line" smooth="yes"/>
      <point x="187" y="516" type="line" smooth="yes"/>
      <point x="186" y="509" type="line" smooth="yes"/>
      <point x="179" y="488" type="line" smooth="yes"/>
      <point x="165" y="481" type="line" smooth="yes"/>
      <point x="163" y="481" type="line" smooth="yes"/>
      <point x="150" y="488" type="line" smooth="yes"/>
    </contour>
  </outline>
</glyph>
<glyph name="paragraph" format="1">
  <advance width="549"/>
  <unicode hex="00B6"/>
  <outline>
    <contour>
      <point x="283" y="0" type="line" smooth="yes"/>
      <point x="445" y="0" type="line" smooth="yes"/>
      <point x="547" y="780" type="line" smooth="yes"/>
      <point x="338" y="780" type="line" smooth="yes"/>
      <point x="155" y="739" type="line" smooth="yes"/>
      <point x="46" y="545" type="line" smooth="yes"/>
      <point x="43" y="522" type="line" smooth="yes"/>
      <point x="98" y="329" type="line" smooth="yes"/>
      <point x="276" y="280" type="line" smooth="yes"/>
      <point x="319" y="280" type="line" smooth="yes"/>
    </contour>
  </outline>
</glyph>
<glyph name="cedilla" format="1">
  <advance width="602"/>
  <unicode hex="00B8"/>
  <outline>
    <contour>
      <point x="69" y="-190" type="line" smooth="yes"/>
      <point x="110" y="-207" type="line" smooth="yes"/>
      <point x="180" y="-215" type="line" smooth="yes"/>
      <point x="271" y="-189" type="line" smooth="yes"/>
      <point x="306" y="-118" type="line" smooth="yes"/>
      <point x="281" y="-61" type="line" smooth="yes"/>
      <point x="216" y="-40" type="line" smooth="yes"/>
      <point x="237" y="0" type="line" smooth="yes"/>
      <point x="165" y="0" type="line" smooth="yes"/>
      <point x="126" y="-72" type="line" smooth="yes"/>
      <point x="137" y="-100" type="line" smooth="yes"/>
      <point x="150" y="-98" type="line" smooth="yes"/>
      <point x="176" y="-95" type="line" smooth="yes"/>
      <point x="210" y="-100" type="line" smooth="yes"/>
      <point x="221" y="-116" type="line" smooth="yes"/>
      <point x="210" y="-134" type="line" smooth="yes"/>
      <point x="175" y="-141" type="line" smooth="yes"/>
      <point x="132" y="-136" type="line" smooth="yes"/>
      <point x="101" y="-124" type="line" smooth="yes"/>
    </contour>
  </outline>
</glyph>
<glyph name="ordmasculine" format="1">
  <advance width="440"/>
  <unicode hex="00BA"/>
  <outline>
    <contour>
      <point x="377" y="181" type="line" smooth="yes"/>
      <point x="393" y="300" type="line" smooth="yes"/>
      <point x="29" y="300" type="line" smooth="yes"/>
      <point x="13" y="181" type="line" smooth="yes"/>
    </contour>
    <contour>
      <point x="299" y="571" type="line" smooth="yes"/>
      <point x="279" y="513" type="line" smooth="yes"/>
      <point x="241" y="495" type="line" smooth="yes"/>
      <point x="199" y="514" type="line" smooth="yes"/>
      <point x="193" y="571" type="line" smooth="yes"/>
      <point x="197" y="600" type="line" smooth="yes"/>
      <point x="217" y="658" type="line" smooth="yes"/>
      <point x="255" y="676" type="line" smooth="yes"/>
      <point x="297" y="657" type="line" smooth="yes"/>
      <point x="303" y="600" type="line" smooth="yes"/>
    </contour>
    <contour>
      <point x="230" y="376" type="line" smooth="yes"/>
      <point x="371" y="430" type="line" smooth="yes"/>
      <point x="436" y="571" type="line" smooth="yes"/>
      <point x="440" y="600" type="line" smooth="yes"/>
      <point x="403" y="741" type="line" smooth="yes"/>
      <point x="266" y="795" type="line" smooth="yes"/>
      <point x="125" y="741" type="line" smooth="yes"/>
      <point x="60" y="600" type="line" smooth="yes"/>
      <point x="56" y="571" type="line" smooth="yes"/>
      <point x="93" y="430" type="line" smooth="yes"/>
    </contour>
  </outline>
</glyph>
<glyph name="onehalf" format="1">
  <advance width="800"/>
  <unicode hex="00BD"/>
  <outline>
    <contour>
      <point x="754" y="103" type="line" smooth="yes"/>
      <point x="646" y="103" type="line" smooth="yes"/>
      <point x="719" y="172" type="line" smooth="yes"/>
      <point x="759" y="217" type="line" smooth="yes"/>
      <point x="778" y="271" type="line" smooth="yes"/>
      <point x="780" y="286" type="line" smooth="yes"/>
      <point x="758" y="360" type="line" smooth="yes"/>
      <point x="650" y="403" type="line" smooth="yes"/>
      <point x="540" y="363" type="line" smooth="yes"/>
      <point x="503" y="269" type="line" smooth="yes"/>
      <point x="502" y="260" type="line" smooth="yes"/>
      <point x="622" y="260" type="line" smooth="yes"/>
      <point x="629" y="290" type="line" smooth="yes"/>
      <point x="643" y="299" type="line" smooth="yes"/>
      <point x="645" y="299" type="line" smooth="yes"/>
      <point x="656" y="293" type="line" smooth="yes"/>
      <point x="658" y="275" type="line" smooth="yes"/>
      <point x="656" y="260" type="line" smooth="yes"/>
      <point x="650" y="244" type="line" smooth="yes"/>
      <point x="637" y="229" type="line" smooth="yes"/>
      <point x="479" y="78" type="line" smooth="yes"/>
      <point x="469" y="0" type="line" smooth="yes"/>
      <point x="741" y="0" type="line" smooth="yes"/>
    </contour>
    <contour>
      <point x="130" y="0" type="line" smooth="yes"/>
      <point x="808" y="780" type="line" smooth="yes"/>
      <point x="674" y="780" type="line" smooth="yes"/>
      <point x="-4" y="0" type="line" smooth="yes"/>
    </contour>
    <contour>
      <point x="292" y="390" type="line" smooth="yes"/>
      <point x="305" y="493" type="line" smooth="yes"/>
      <point x="234" y="493" type="line" smooth="yes"/>
      <point x="272" y="782" type="line" smooth="yes"/>
      <point x="183" y="782" type="line" smooth="yes"/>
      <point x="47" y="697" type="line" smooth="yes"/>
      <point x="95" y="612" type="line" smooth="yes"/>
      <point x="133" y="635" type="line" smooth="yes"/>
      <point x="114" y="493" type="line" smooth="yes"/>
      <point x="42" y="493" type="line" smooth="yes"/>
      <point x="29" y="390" type="line" smooth="yes"/>
    </contour>
  </outline>
</glyph>
<glyph name="threequarters" format="1">
  <advance width="800"/>
  <unicode hex="00BE"/>
  <outline>
    <contour>
      <point x="619" y="235" type="line" smooth="yes"/>
      <point x="610" y="171" type="line" smooth="yes"/>
      <point x="573" y="171" type="line" smooth="yes"/>
    </contour>
    <contour>
      <point x="708" y="0" type="line" smooth="yes"/>
      <point x="717" y="68" type="line" smooth="yes"/>
      <point x="749" y="68" type="line" smooth="yes"/>
      <point x="762" y="171" type="line" smooth="yes"/>
      <point x="730" y="171" type="line" smooth="yes"/>
      <point x="759" y="390" type="line" smooth="yes"/>
      <point x="645" y="390" type="line" smooth="yes"/>
      <point x="478" y="165" type="line" smooth="yes"/>
      <point x="466" y="68" type="line" smooth="yes"/>
      <point x="597" y="68" type="line" smooth="yes"/>
      <point x="588" y="0" type="line" smooth="yes"/>
    </contour>
    <contour>
      <point x="130" y="0" type="line" smooth="yes"/>
      <point x="808" y="780" type="line" smooth="yes"/>
      <point x="674" y="780" type="line" smooth="yes"/>
      <point x="-4" y="0" type="line" smooth="yes"/>
    </contour>
    <contour>
      <point x="149" y="515" type="line" smooth="yes"/>
      <point x="29" y="515" type="line" smooth="yes"/>
      <point x="28" y="506" type="line" smooth="yes"/>
      <point x="58" y="412" type="line" smooth="yes"/>
      <point x="158" y="377" type="line" smooth="yes"/>
      <point x="256" y="406" type="line" smooth="yes"/>
      <point x="303" y="490" type="line" smooth="yes"/>
      <point x="305" y="505" type="line" smooth="yes"/>
      <point x="297" y="559" type="line" smooth="yes"/>
      <point x="262" y="589" type="line" smooth="yes"/>
      <point x="302" y="613" type="line" smooth="yes"/>
      <point x="323" y="661" type="line" smooth="yes"/>
      <point x="325" y="676" type="line" smooth="yes"/>
      <point x="303" y="750" type="line" smooth="yes"/>
      <point x="195" y="793" type="line" smooth="yes"/>
      <point x="85" y="753" type="line" smooth="yes"/>
      <point x="48" y="659" type="line" smooth="yes"/>
      <point x="47" y="650" type="line" smooth="yes"/>
      <point x="167" y="650" type="line" smooth="yes"/>
      <point x="174" y="680" type="line" smooth="yes"/>
      <point x="188" y="689" type="line" smooth="yes"/>
      <point x="190" y="689" type="line" smooth="yes"/>
      <point x="201" y="683" type="line" smooth="yes"/>
      <point x="203" y="665" type="line" smooth="yes"/>
      <point x="202" y="658" type="line" smooth="yes"/>
      <point x="195" y="642" type="line" smooth="yes"/>
      <point x="181" y="637" type="line" smooth="yes"/>
      <point x="134" y="637" type="line" smooth="yes"/>
      <point x="122" y="541" type="line" smooth="yes"/>
      <point x="170" y="541" type="line" smooth="yes"/>
      <point x="184" y="535" type="line" smooth="yes"/>
      <point x="187" y="516" type="line" smooth="yes"/>
      <point x="186" y="509" type="line" smooth="yes"/>
      <point x="179" y="488" type="line" smooth="yes"/>
      <point x="165" y="481" type="line" smooth="yes"/>
      <point x="163" y="481" type="line" smooth="yes"/>
      <point x="150" y="488" type="line" smooth="yes"/>
    </contour>
  </outline>
</glyph>
<glyph name="questiondown" format="1">
  <advance width="497"/>
  <unicode hex="00BF"/>
  <outline>
    <contour>
      <point x="166" y="363" type="line" smooth="yes"/>
      <point x="333" y="363" type="line" smooth="yes"/>
      <point x="355" y="530" type="line" smooth="yes"/>
      <point x="188" y="530" type="line" smooth="yes"/>
    </contour>
    <contour>
      <point x="182" y="-74" type="line" smooth="yes"/>
      <point x="138" y="-60" type="line" smooth="yes"/>
      <point x="126" y="-21" type="line" smooth="yes"/>
      <point x="212" y="115" type="line" smooth="yes"/>
      <point x="298" y="302" type="line" smooth="yes"/>
      <point x="186" y="302" type="line" smooth="yes"/>
      <point x="66" y="147" type="line" smooth="yes"/>
      <point x="-36" y="-48" type="line" smooth="yes"/>
      <point x="7" y="-163" type="line" smooth="yes"/>
      <point x="177" y="-213" type="line" smooth="yes"/>
      <point x="354" y="-151" type="line" smooth="yes"/>
      <point x="430" y="37" type="line" smooth="yes"/>
      <point x="433" y="60" type="line" smooth="yes"/>
      <point x="274" y="60" type="line" smooth="yes"/>
      <point x="244" y="-44" type="line" smooth="yes"/>
    </contour>
  </outline>
</glyph>
<glyph name="Atilde" format="1">
  <advance width="641"/>
  <unicode hex="00C3"/>
  <outline>
    <contour>
      <point x="351" y="601" type="line" smooth="yes"/>
      <point x="376" y="308" type="line" smooth="yes"/>
      <point x="248" y="308" type="line" smooth="yes"/>
    </contour>
    <contour>
      <point x="262" y="782" type="line" smooth="yes"/>
      <point x="-35" y="0" type="line" smooth="yes"/>
      <point x="139" y="0" type="line" smooth="yes"/>
      <point x="199" y="168" type="line" smooth="yes"/>
      <point x="389" y="168" type="line" smooth="yes"/>
      <point x="404" y="0" type="line" smooth="yes"/>
      <point x="578" y="0" type="line" smooth="yes"/>
      <point x="485" y="782" type="line" smooth="yes"/>
    </contour>
    <contour>
      <point x="495" y="947" type="line" smooth="yes"/>
      <point x="483" y="921" type="line" smooth="yes"/>
      <point x="458" y="914" type="line" smooth="yes"/>
      <point x="394" y="938" type="line" smooth="yes"/>
      <point x="310" y="962" type="line" smooth="yes"/>
      <point x="236" y="936" type="line" smooth="yes"/>
      <point x="196" y="843" type="line" smooth="yes"/>
      <point x="281" y="843" type="line" smooth="yes"/>
      <point x="294" y="869" type="line" smooth="yes"/>
      <point x="318" y="876" type="line" smooth="yes"/>
      <point x="382" y="852" type="line" smooth="yes"/>
      <point x="466" y="828" type="line" smooth="yes"/>
      <point x="540" y="855" type="line" smooth="yes"/>
      <point x="580" y="947" type="line" smooth="yes"/>
    </contour>
  </outline>
</glyph>
<glyph name="Aring" format="1">
  <advance width="641"/>
  <unicode hex="00C5"/>
  <outline>
    <contour>
      <point x="434" y="863" type="line" smooth="yes"/>
      <point x="418" y="823" type="line" smooth="yes"/>
      <point x="377" y="807" type="line" smooth="yes"/>
      <point x="344" y="820" type="line" smooth="yes"/>
      <point x="331" y="853" type="line" smooth="yes"/>
      <point x="348" y="893" type="line" smooth="yes"/>
      <point x="388" y="909" type="line" smooth="yes"/>
      <point x="421" y="896" type="line" smooth="yes"/>
    </contour>
    <contour>
      <point x="351" y="601" type="line" smooth="yes"/>
      <point x="376" y="308" type="line" smooth="yes"/>
      <point x="248" y="308" type="line" smooth="yes"/>
    </contour>
    <contour>
      <point x="262" y="782" type="line" smooth="yes"/>
      <point x="-35" y="0" type="line" smooth="yes"/>
      <point x="139" y="0" type="line" smooth="yes"/>
      <point x="199" y="168" type="line" smooth="yes"/>
      <point x="389" y="168" type="line" smooth="yes"/>
      <point x="404" y="0" type="line" smooth="yes"/>
      <point x="578" y="0" type="line" smooth="yes"/>
      <point x="485" y="782" type="line" smooth="yes"/>
      <point x="449" y="782" type="line" smooth="yes"/>
      <point x="478" y="820" type="line" smooth="yes"/>
      <point x="489" y="870" type="line" smooth="yes"/>
      <point x="462" y="936" type="line" smooth="yes"/>
      <point x="393" y="963" type="line" smooth="yes"/>
      <point x="311" y="930" type="line" smooth="yes"/>
      <point x="276" y="846" type="line" smooth="yes"/>
      <point x="283" y="811" type="line" smooth="yes"/>
      <point x="301" y="782" type="line" smooth="yes"/>
    </contour>
  </outline>
</glyph>
<glyph name="Ccedilla" format="1">
  <advance width="646"/>
  <unicode hex="00C7"/>
  <outline>
    <contour>
      <point x="207" y="407" type="line" smooth="yes"/>
      <point x="258" y="589" type="line" smooth="yes"/>
      <point x="362" y="653" type="line" smooth="yes"/>
      <point x="372" y="653" type="line" smooth="yes"/>
      <point x="455" y="611" type="line" smooth="yes"/>
      <point x="463" y="484" type="line" smooth="yes"/>
      <point x="626" y="484" type="line" smooth="yes"/>
      <point x="630" y="516" type="line" smooth="yes"/>
      <point x="585" y="724" type="line" smooth="yes"/>
      <point x="371" y="793" type="line" smooth="yes"/>
      <point x="147" y="701" type="line" smooth="yes"/>
      <point x="42" y="406" type="line" smooth="yes"/>
      <point x="38" y="374" type="line" smooth="yes"/>
      <point x="71" y="94" type="line" smooth="yes"/>
      <point x="251" y="-11" type="line" smooth="yes"/>
      <point x="218" y="-72" type="line" smooth="yes"/>
      <point x="229" y="-100" type="line" smooth="yes"/>
      <point x="242" y="-98" type="line" smooth="yes"/>
      <point x="268" y="-95" type="line" smooth="yes"/>
      <point x="302" y="-100" type="line" smooth="yes"/>
      <point x="313" y="-116" type="line" smooth="yes"/>
      <point x="302" y="-134" type="line" smooth="yes"/>
      <point x="267" y="-141" type="line" smooth="yes"/>
      <point x="224" y="-136" type="line" smooth="yes"/>
      <point x="193" y="-124" type="line" smooth="yes"/>
      <point x="161" y="-190" type="line" smooth="yes"/>
      <point x="202" y="-207" type="line" smooth="yes"/>
      <point x="272" y="-215" type="line" smooth="yes"/>
      <point x="363" y="-189" type="line" smooth="yes"/>
      <point x="398" y="-118" type="line" smooth="yes"/>
      <point x="373" y="-61" type="line" smooth="yes"/>
      <point x="308" y="-40" type="line" smooth="yes"/>
      <point x="322" y="-12" type="line" smooth="yes"/>
      <point x="507" y="54" type="line" smooth="yes"/>
      <point x="595" y="251" type="line" smooth="yes"/>
      <point x="597" y="266" type="line" smooth="yes"/>
      <point x="434" y="266" type="line" smooth="yes"/>
      <point x="402" y="164" type="line" smooth="yes"/>
      <point x="304" y="127" type="line" smooth="yes"/>
      <point x="294" y="127" type="line" smooth="yes"/>
      <point x="208" y="192" type="line" smooth="yes"/>
      <point x="203" y="374" type="line" smooth="yes"/>
    </contour>
  </outline>
</glyph>
<glyph name="Icircumflex" format="1">
  <advance width="283"/>
  <unicode hex="00CE"/>
  <outline>
    <contour>
      <point x="276" y="780" type="line" smooth="yes"/>
      <point x="114" y="780" type="line" smooth="yes"/>
      <point x="12" y="0" type="line" smooth="yes"/>
      <point x="174" y="0" type="line" smooth="yes"/>
    </contour>
    <contour>
      <point x="407" y="840" type="line" smooth="yes"/>
      <point x="298" y="950" type="line" smooth="yes"/>
      <point x="138" y="950" type="line" smooth="yes"/>
      <point x="-1" y="840" type="line" smooth="yes"/>
      <point x="144" y="840" type="line" smooth="yes"/>
      <point x="211" y="890" type="line" smooth="yes"/>
      <point x="268" y="840" type="line" smooth="yes"/>
    </contour>
  </outline>
</glyph>
<glyph name="Ntilde" format="1">
  <advance width="683"/>
  <unicode hex="00D1"/>
  <outline>
    <contour>
      <point x="109" y="780" type="line" smooth="yes"/>
      <point x="7" y="0" type="line" smooth="yes"/>
      <point x="162" y="0" type="line" smooth="yes"/>
      <point x="204" y="322" type="line" smooth="yes"/>
      <point x="221" y="484" type="line" smooth="yes"/>
      <point x="409" y="0" type="line" smooth="yes"/>
      <point x="578" y="0" type="line" smooth="yes"/>
      <point x="680" y="780" type="line" smooth="yes"/>
      <point x="525" y="780" type="line" smooth="yes"/>
      <point x="483" y="458" type="line" smooth="yes"/>
      <point x="466" y="296" type="line" smooth="yes"/>
      <point x="278" y="780" type="line" smooth="yes"/>
    </contour>
    <contour>
      <point x="519" y="947" type="line" smooth="yes"/>
      <point x="507" y="921" type="line" smooth="yes"/>
      <point x="482" y="914" type="line" smooth="yes"/>
      <point x="418" y="938" type="line" smooth="yes"/>
      <point x="334" y="962" type="line" smooth="yes"/>
      <point x="260" y="936" type="line" smooth="yes"/>
      <point x="220" y="843" type="line" smooth="yes"/>
      <point x="305" y="843" type="line" smooth="yes"/>
      <point x="318" y="869" type="line" smooth="yes"/>
      <point x="342" y="876" type="line" smooth="yes"/>
      <point x="406" y="852" type="line" smooth="yes"/>
      <point x="490" y="828" type="line" smooth="yes"/>
      <point x="564" y="855" type="line" smooth="yes"/>
      <point x="604" y="947" type="line" smooth="yes"/>
    </contour>
  </outline>
</glyph>
<glyph name="Otilde" format="1">
  <advance width="666"/>
  <unicode hex="00D5"/>
  <outline>
    <contour>
      <point x="299" y="127" type="line" smooth="yes"/>
      <point x="206" y="192" type="line" smooth="yes"/>
      <point x="203" y="374" type="line" smooth="yes"/>
      <point x="207" y="406" type="line" smooth="yes"/>
      <point x="257" y="588" type="line" smooth="yes"/>
      <point x="367" y="653" type="line" smooth="yes"/>
      <point x="377" y="653" type="line" smooth="yes"/>
      <point x="470" y="588" type="line" smooth="yes"/>
      <point x="473" y="406" type="line" smooth="yes"/>
      <point x="469" y="374" type="line" smooth="yes"/>
      <point x="419" y="192" type="line" smooth="yes"/>
      <point x="309" y="127" type="line" smooth="yes"/>
    </contour>
    <contour>
      <point x="376" y="793" type="line" smooth="yes"/>
      <point x="146" y="701" type="line" smooth="yes"/>
      <point x="42" y="406" type="line" smooth="yes"/>
      <point x="38" y="374" type="line" smooth="yes"/>
      <point x="80" y="79" type="line" smooth="yes"/>
      <point x="300" y="-13" type="line" smooth="yes"/>
      <point x="530" y="79" type="line" smooth="yes"/>
      <point x="634" y="374" type="line" smooth="yes"/>
      <point x="638" y="406" type="line" smooth="yes"/>
      <point x="596" y="702" type="line" smooth="yes"/>
    </contour>
    <contour>
      <point x="511" y="947" type="line" smooth="yes"/>
      <point x="499" y="921" type="line" smooth="yes"/>
      <point x="474" y="914" type="line" smooth="yes"/>
      <point x="410" y="938" type="line" smooth="yes"/>
      <point x="326" y="962" type="line" smooth="yes"/>
      <point x="252" y="936" type="line" smooth="yes"/>
      <point x="212" y="843" type="line" smooth="yes"/>
      <point x="297" y="843" type="line" smooth="yes"/>
      <point x="310" y="869" type="line" smooth="yes"/>
      <point x="334" y="876" type="line" smooth="yes"/>
      <point x="398" y="852" type="line" smooth="yes"/>
      <point x="482" y="828" type="line" smooth="yes"/>
      <point x="556" y="855" type="line" smooth="yes"/>
      <point x="596" y="947" type="line" smooth="yes"/>
    </contour>
  </outline>
</glyph>
<glyph name="Oslash" format="1">
  <advance width="670"/>
  <unicode hex="00D8"/>
  <outline>
    <contour>
      <point x="299" y="127" type="line" smooth="yes"/>
      <point x="249" y="137" type="line" smooth="yes"/>
      <point x="217" y="168" type="line" smooth="yes"/>
      <point x="480" y="510" type="line" smooth="yes"/>
      <point x="479" y="461" type="line" smooth="yes"/>
      <point x="473" y="406" type="line" smooth="yes"/>
      <point x="469" y="374" type="line" smooth="yes"/>
      <point x="419" y="192" type="line" smooth="yes"/>
      <point x="309" y="127" type="line" smooth="yes"/>
    </contour>
    <contour>
      <point x="207" y="406" type="line" smooth="yes"/>
      <point x="257" y="588" type="line" smooth="yes"/>
      <point x="367" y="653" type="line" smooth="yes"/>
      <point x="377" y="653" type="line" smooth="yes"/>
      <point x="427" y="643" type="line" smooth="yes"/>
      <point x="459" y="612" type="line" smooth="yes"/>
      <point x="196" y="270" type="line" smooth="yes"/>
      <point x="197" y="319" type="line" smooth="yes"/>
      <point x="203" y="374" type="line" smooth="yes"/>
    </contour>
    <contour>
      <point x="376" y="793" type="line" smooth="yes"/>
      <point x="146" y="701" type="line" smooth="yes"/>
      <point x="42" y="406" type="line" smooth="yes"/>
      <point x="38" y="374" type="line" smooth="yes"/>
      <point x="34" y="215" type="line" smooth="yes"/>
      <point x="66" y="101" type="line" smooth="yes"/>
      <point x="-11" y="0" type="line" smooth="yes"/>
      <point x="88" y="0" type="line" smooth="yes"/>
      <point x="118" y="39" type="line" smooth="yes"/>
      <point x="197" y="-1" type="line" smooth="yes"/>
      <point x="300" y="-13" type="line" smooth="yes"/>
      <point x="530" y="79" type="line" smooth="yes"/>
      <point x="634" y="374" type="line" smooth="yes"/>
      <point x="638" y="406" type="line" smooth="yes"/>
      <point x="642" y="565" type="line" smooth="yes"/>
      <point x="610" y="679" type="line" smooth="yes"/>
      <point x="687" y="780" type="line" smooth="yes"/>
      <point x="588" y="780" type="line" smooth="yes"/>
      <point x="558" y="741" type="line" smooth="yes"/>
      <point x="479" y="781" type="line" smooth="yes"/>
    </contour>
  </outline>
</glyph>
<glyph name="Udieresis" format="1">
  <advance width="663"/>
  <unicode hex="00DC"/>
  <outline>
    <contour>
      <point x="293" y="-13" type="line" smooth="yes"/>
      <point x="515" y="54" type="line" smooth="yes"/>
      <point x="595" y="247" type="line" smooth="yes"/>
      <point x="665" y="780" type="line" smooth="yes"/>
      <point x="503" y="780" type="line" smooth="yes"/>
      <point x="434" y="252" type="line" smooth="yes"/>
      <point x="396" y="158" type="line" smooth="yes"/>
      <point x="297" y="127" type="line" smooth="yes"/>
      <point x="208" y="159" type="line" smooth="yes"/>
      <point x="197" y="252" type="line" smooth="yes"/>
      <point x="266" y="780" type="line" smooth="yes"/>
      <point x="104" y="780" type="line" smooth="yes"/>
      <point x="34" y="247" type="line" smooth="yes"/>
      <point x="76" y="53" type="line" smooth="yes"/>
    </contour>
    <contour>
      <point x="560" y="945" type="line" smooth="yes"/>
      <point x="427" y="945" type="line" smooth="yes"/>
      <point x="414" y="845" type="line" smooth="yes"/>
      <point x="547" y="845" type="line" smooth="yes"/>
    </contour>
    <contour>
      <point x="385" y="945" type="line" smooth="yes"/>
      <point x="252" y="945" type="line" smooth="yes"/>
      <point x="239" y="845" type="line" smooth="yes"/>
      <point x="372" y="845" type="line" smooth="yes"/>
    </contour>
  </outline>
</glyph>
<glyph name="germandbls" format="1">
  <advance width="630"/>
  <unicode hex="00DF"/>
  <outline>
    <contour>
      <point x="280" y="334" type="line" smooth="yes"/>
      <point x="364" y="270" type="line" smooth="yes"/>
      <point x="414" y="218" type="line" smooth="yes"/>
      <point x="426" y="171" type="line" smooth="yes"/>
      <point x="417" y="127" type="line" smooth="yes"/>
      <point x="385" y="107" type="line" smooth="yes"/>
      <point x="354" y="123" type="line" smooth="yes"/>
      <point x="351" y="168" type="line" smooth="yes"/>
      <point x="217" y="168" type="line" smooth="yes"/>
      <point x="215" y="153" type="line" smooth="yes"/>
      <point x="235" y="39" type="line" smooth="yes"/>
      <point x="384" y="-13" type="line" smooth="yes"/>
      <point x="528" y="41" type="line" smooth="yes"/>
      <point x="583" y="161" type="line" smooth="yes"/>
      <point x="585" y="176" type="line" smooth="yes"/>
      <point x="565" y="285" type="line" smooth="yes"/>
      <point x="475" y="379" type="line" smooth="yes"/>
      <point x="450" y="398" type="line" smooth="yes"/>
      <point x="534" y="475" type="line" smooth="yes"/>
      <point x="575" y="581" type="line" smooth="yes"/>
      <point x="577" y="596" type="line" smooth="yes"/>
      <point x="535" y="748" type="line" smooth="yes"/>
      <point x="343" y="813" type="line" smooth="yes"/>
      <point x="154" y="749" type="line" smooth="yes"/>
      <point x="78" y="594" type="line" smooth="yes"/>
      <point x="0" y="0" type="line" smooth="yes"/>
      <point x="158" y="0" type="line" smooth="yes"/>
      <point x="235" y="585" type="line" smooth="yes"/>
      <point x="263" y="650" type="line" smooth="yes"/>
      <point x="333" y="677" type="line" smooth="yes"/>
      <point x="398" y="655" type="line" smooth="yes"/>
      <point x="417" y="598" type="line" smooth="yes"/>
      <point x="383" y="503" type="line" smooth="yes"/>
      <point x="293" y="434" type="line" smooth="yes"/>
    </contour>
  </outline>
</glyph>
<glyph name="ae" format="1">
  <advance width="864"/>
  <unicode hex="00E6"/>
  <outline>
    <contour>
      <point x="600" y="423" type="line" smooth="yes"/>
      <point x="660" y="397" type="line" smooth="yes"/>
      <point x="674" y="322" type="line" smooth="yes"/>
      <point x="491" y="322" type="line" smooth="yes"/>
      <point x="529" y="398" type="line" smooth="yes"/>
    </contour>
    <contour>
      <point x="208" y="115" type="line" smooth="yes"/>
      <point x="168" y="130" type="line" smooth="yes"/>
      <point x="160" y="166" type="line" smooth="yes"/>
      <point x="162" y="179" type="line" smooth="yes"/>
      <point x="180" y="214" type="line" smooth="yes"/>
      <point x="229" y="237" type="line" smooth="yes"/>
      <point x="327" y="252" type="line" smooth="yes"/>
      <point x="326" y="246" type="line" smooth="yes"/>
      <point x="323" y="208" type="line" smooth="yes"/>
      <point x="324" y="173" type="line" smooth="yes"/>
      <point x="276" y="131" type="line" smooth="yes"/>
    </contour>
    <contour>
      <point x="817" y="208" type="line" smooth="yes"/>
      <point x="823" y="255" type="line" smooth="yes"/>
      <point x="789" y="462" type="line" smooth="yes"/>
      <point x="600" y="543" type="line" smooth="yes"/>
      <point x="508" y="529" type="line" smooth="yes"/>
      <point x="442" y="488" type="line" smooth="yes"/>
      <point x="382" y="529" type="line" smooth="yes"/>
      <point x="280" y="543" type="line" smooth="yes"/>
      <point x="106" y="494" type="line" smooth="yes"/>
      <point x="49" y="370" type="line" smooth="yes"/>
      <point x="47" y="355" type="line" smooth="yes"/>
      <point x="196" y="355" type="line" smooth="yes"/>
      <point x="216" y="403" type="line" smooth="yes"/>
      <point x="274" y="423" type="line" smooth="yes"/>
      <point x="329" y="407" type="line" smooth="yes"/>
      <point x="340" y="354" type="line" smooth="yes"/>
      <point x="339" y="346" type="line" smooth="yes"/>
      <point x="209" y="326" type="line" smooth="yes"/>
      <point x="66" y="282" type="line" smooth="yes"/>
      <point x="1" y="163" type="line" smooth="yes"/>
      <point x="-1" y="148" type="line" smooth="yes"/>
      <point x="28" y="36" type="line" smooth="yes"/>
      <point x="155" y="-13" type="line" smooth="yes"/>
      <point x="256" y="7" type="line" smooth="yes"/>
      <point x="357" y="74" type="line" smooth="yes"/>
      <point x="436" y="10" type="line" smooth="yes"/>
      <point x="565" y="-13" type="line" smooth="yes"/>
      <point x="740" y="35" type="line" smooth="yes"/>
      <point x="810" y="155" type="line" smooth="yes"/>
      <point x="812" y="170" type="line" smooth="yes"/>
      <point x="663" y="170" type="line" smooth="yes"/>
      <point x="636" y="124" type="line" smooth="yes"/>
      <point x="565" y="107" type="line" smooth="yes"/>
      <point x="495" y="130" type="line" smooth="yes"/>
      <point x="476" y="208" type="line" smooth="yes"/>
    </contour>
  </outline>
</glyph>
<glyph name="ccedilla" format="1">
  <advance width="524"/>
  <unicode hex="00E7"/>
  <outline>
    <contour>
      <point x="176" y="284" type="line" smooth="yes"/>
      <point x="211" y="378" type="line" smooth="yes"/>
      <point x="277" y="407" type="line" smooth="yes"/>
      <point x="332" y="383" type="line" smooth="yes"/>
      <point x="342" y="324" type="line" smooth="yes"/>
      <point x="491" y="324" type="line" smooth="yes"/>
      <point x="493" y="339" type="line" smooth="yes"/>
      <point x="452" y="489" type="line" smooth="yes"/>
      <point x="282" y="543" type="line" smooth="yes"/>
      <point x="96" y="472" type="line" smooth="yes"/>
      <point x="18" y="284" type="line" smooth="yes"/>
      <point x="13" y="246" type="line" smooth="yes"/>
      <point x="41" y="77" type="line" smooth="yes"/>
      <point x="180" y="-9" type="line" smooth="yes"/>
      <point x="146" y="-72" type="line" smooth="yes"/>
      <point x="157" y="-100" type="line" smooth="yes"/>
      <point x="170" y="-98" type="line" smooth="yes"/>
      <point x="196" y="-95" type="line" smooth="yes"/>
      <point x="230" y="-100" type="line" smooth="yes"/>
      <point x="241" y="-116" type="line" smooth="yes"/>
      <point x="230" y="-134" type="line" smooth="yes"/>
      <point x="195" y="-141" type="line" smooth="yes"/>
      <point x="152" y="-136" type="line" smooth="yes"/>
      <point x="121" y="-124" type="line" smooth="yes"/>
      <point x="89" y="-190" type="line" smooth="yes"/>
      <point x="130" y="-207" type="line" smooth="yes"/>
      <point x="200" y="-215" type="line" smooth="yes"/>
      <point x="291" y="-189" type="line" smooth="yes"/>
      <point x="326" y="-118" type="line" smooth="yes"/>
      <point x="301" y="-61" type="line" smooth="yes"/>
      <point x="236" y="-40" type="line" smooth="yes"/>
      <point x="250" y="-13" type="line" smooth="yes"/>
      <point x="406" y="42" type="line" smooth="yes"/>
      <point x="472" y="181" type="line" smooth="yes"/>
      <point x="474" y="196" type="line" smooth="yes"/>
      <point x="325" y="196" type="line" smooth="yes"/>
      <point x="300" y="145" type="line" smooth="yes"/>
      <point x="240" y="123" type="line" smooth="yes"/>
      <point x="179" y="155" type="line" smooth="yes"/>
      <point x="171" y="246" type="line" smooth="yes"/>
    </contour>
  </outline>
</glyph>
<glyph name="eth" format="1">
  <advance width="547"/>
  <unicode hex="00F0"/>
  <outline>
    <contour>
      <point x="247" y="123" type="line" smooth="yes"/>
      <point x="181" y="155" type="line" smooth="yes"/>
      <point x="171" y="246" type="line" smooth="yes"/>
      <point x="176" y="284" type="line" smooth="yes"/>
      <point x="210" y="378" type="line" smooth="yes"/>
      <point x="280" y="407" type="line" smooth="yes"/>
      <point x="347" y="376" type="line" smooth="yes"/>
      <point x="356" y="284" type="line" smooth="yes"/>
      <point x="351" y="246" type="line" smooth="yes"/>
      <point x="317" y="152" type="line" smooth="yes"/>
    </contour>
    <contour>
      <point x="70" y="673" type="line" smooth="yes"/>
      <point x="127" y="665" type="line" smooth="yes"/>
      <point x="179" y="653" type="line" smooth="yes"/>
      <point x="89" y="607" type="line" smooth="yes"/>
      <point x="78" y="518" type="line" smooth="yes"/>
      <point x="267" y="616" type="line" smooth="yes"/>
      <point x="310" y="580" type="line" smooth="yes"/>
      <point x="343" y="533" type="line" smooth="yes"/>
      <point x="315" y="541" type="line" smooth="yes"/>
      <point x="275" y="543" type="line" smooth="yes"/>
      <point x="97" y="472" type="line" smooth="yes"/>
      <point x="18" y="284" type="line" smooth="yes"/>
      <point x="13" y="246" type="line" smooth="yes"/>
      <point x="54" y="60" type="line" smooth="yes"/>
      <point x="242" y="-13" type="line" smooth="yes"/>
      <point x="431" y="58" type="line" smooth="yes"/>
      <point x="509" y="246" type="line" smooth="yes"/>
      <point x="514" y="284" type="line" smooth="yes"/>
      <point x="514" y="506" type="line" smooth="yes"/>
      <point x="423" y="697" type="line" smooth="yes"/>
      <point x="476" y="724" type="line" smooth="yes"/>
      <point x="487" y="813" type="line" smooth="yes"/>
      <point x="359" y="746" type="line" smooth="yes"/>
      <point x="234" y="793" type="line" smooth="yes"/>
      <point x="89" y="813" type="line" smooth="yes"/>
    </contour>
  </outline>
</glyph>
<glyph name="ntilde" format="1">
  <advance width="580"/>
  <unicode hex="00F1"/>
  <outline>
    <contour>
      <point x="483" y="0" type="line" smooth="yes"/>
      <point x="530" y="358" type="line" smooth="yes"/>
      <point x="505" y="490" type="line" smooth="yes"/>
      <point x="375" y="543" type="line" smooth="yes"/>
      <point x="279" y="520" type="line" smooth="yes"/>
      <point x="206" y="460" type="line" smooth="yes"/>
      <point x="206" y="530" type="line" smooth="yes"/>
      <point x="65" y="530" type="line" smooth="yes"/>
      <point x="55" y="381" type="line" smooth="yes"/>
      <point x="5" y="0" type="line" smooth="yes"/>
      <point x="163" y="0" type="line" smooth="yes"/>
      <point x="210" y="358" type="line" smooth="yes"/>
      <point x="250" y="390" type="line" smooth="yes"/>
      <point x="310" y="407" type="line" smooth="yes"/>
      <point x="360" y="388" type="line" smooth="yes"/>
      <point x="369" y="335" type="line" smooth="yes"/>
      <point x="325" y="0" type="line" smooth="yes"/>
    </contour>
    <contour>
      <point x="441" y="772" type="line" smooth="yes"/>
      <point x="430" y="744" type="line" smooth="yes"/>
      <point x="407" y="735" type="line" smooth="yes"/>
      <point x="339" y="761" type="line" smooth="yes"/>
      <point x="251" y="787" type="line" smooth="yes"/>
      <point x="170" y="749" type="line" smooth="yes"/>
      <point x="125" y="628" type="line" smooth="yes"/>
      <point x="230" y="628" type="line" smooth="yes"/>
      <point x="241" y="656" type="line" smooth="yes"/>
      <point x="264" y="665" type="line" smooth="yes"/>
      <point x="332" y="639" type="line" smooth="yes"/>
      <point x="420" y="613" type="line" smooth="yes"/>
      <point x="501" y="651" type="line" smooth="yes"/>
      <point x="546" y="772" type="line" smooth="yes"/>
    </contour>
  </outline>
</glyph>
<glyph name="otilde" format="1">
  <advance width="556"/>
  <unicode hex="00F5"/>
  <outline>
    <contour>
      <point x="242" y="-13" type="line" smooth="yes"/>
      <point x="431" y="58" type="line" smooth="yes"/>
      <point x="509" y="246" type="line" smooth="yes"/>
      <point x="514" y="284" type="line" smooth="yes"/>
      <point x="473" y="470" type="line" smooth="yes"/>
      <point x="285" y="543" type="line" smooth="yes"/>
      <point x="96" y="472" type="line" smooth="yes"/>
      <point x="18" y="284" type="line" smooth="yes"/>
      <point x="13" y="246" type="line" smooth="yes"/>
      <point x="54" y="60" type="line" smooth="yes"/>
    </contour>
    <contour>
      <point x="247" y="123" type="line" smooth="yes"/>
      <point x="181" y="155" type="line" smooth="yes"/>
      <point x="171" y="246" type="line" smooth="yes"/>
      <point x="176" y="284" type="line" smooth="yes"/>
      <point x="210" y="378" type="line" smooth="yes"/>
      <point x="280" y="407" type="line" smooth="yes"/>
      <point x="347" y="376" type="line" smooth="yes"/>
      <point x="356" y="284" type="line" smooth="yes"/>
      <point x="351" y="246" type="line" smooth="yes"/>
      <point x="317" y="152" type="line" smooth="yes"/>
    </contour>
    <contour>
      <point x="426" y="772" type="line" smooth="yes"/>
      <point x="415" y="744" type="line" smooth="yes"/>
      <point x="392" y="735" type="line" smooth="yes"/>
      <point x="324" y="761" type="line" smooth="yes"/>
      <point x="236" y="787" type="line" smooth="yes"/>
      <point x="155" y="749" type="line" smooth="yes"/>
      <point x="110" y="628" type="line" smooth="yes"/>
      <point x="215" y="628" type="line" smooth="yes"/>
      <point x="226" y="656" type="line" smooth="yes"/>
      <point x="249" y="665" type="line" smooth="yes"/>
      <point x="317" y="639" type="line" smooth="yes"/>
      <point x="405" y="613" type="line" smooth="yes"/>
      <point x="486" y="651" type="line" smooth="yes"/>
      <point x="531" y="772" type="line" smooth="yes"/>
    </contour>
  </outline>
</glyph>
<glyph name="oslash" format="1">
  <advance width="556"/>
  <unicode hex="00F8"/>
  <outline>
    <contour>
      <point x="91" y="27" type="line" smooth="yes"/>
      <point x="158" y="-3" type="line" smooth="yes"/>
      <point x="242" y="-13" type="line" smooth="yes"/>
      <point x="431" y="58" type="line" smooth="yes"/>
      <point x="509" y="246" type="line" smooth="yes"/>
      <point x="514" y="284" type="line" smooth="yes"/>
      <point x="513" y="381" type="line" smooth="yes"/>
      <point x="481" y="459" type="line" smooth="yes"/>
      <point x="546" y="530" type="line" smooth="yes"/>
      <point x="460" y="530" type="line" smooth="yes"/>
      <point x="436" y="503" type="line" smooth="yes"/>
      <point x="370" y="533" type="line" smooth="yes"/>
      <point x="285" y="543" type="line" smooth="yes"/>
      <point x="96" y="472" type="line" smooth="yes"/>
      <point x="18" y="284" type="line" smooth="yes"/>
      <point x="13" y="246" type="line" smooth="yes"/>
      <point x="15" y="150" type="line" smooth="yes"/>
      <point x="46" y="71" type="line" smooth="yes"/>
      <point x="-19" y="0" type="line" smooth="yes"/>
      <point x="67" y="0" type="line" smooth="yes"/>
    </contour>
    <contour>
      <point x="247" y="123" type="line" smooth="yes"/>
      <point x="216" y="127" type="line" smooth="yes"/>
      <point x="193" y="139" type="line" smooth="yes"/>
      <point x="359" y="323" type="line" smooth="yes"/>
      <point x="358" y="304" type="line" smooth="yes"/>
      <point x="356" y="284" type="line" smooth="yes"/>
      <point x="351" y="246" type="line" smooth="yes"/>
      <point x="317" y="152" type="line" smooth="yes"/>
    </contour>
    <contour>
      <point x="176" y="284" type="line" smooth="yes"/>
      <point x="210" y="378" type="line" smooth="yes"/>
      <point x="280" y="407" type="line" smooth="yes"/>
      <point x="311" y="403" type="line" smooth="yes"/>
      <point x="334" y="391" type="line" smooth="yes"/>
      <point x="168" y="207" type="line" smooth="yes"/>
      <point x="169" y="226" type="line" smooth="yes"/>
      <point x="171" y="246" type="line" smooth="yes"/>
    </contour>
  </outline>
</glyph>
<glyph name="uacute" format="1">
  <advance width="580"/>
  <unicode hex="00FA"/>
  <outline>
    <contour>
      <point x="68" y="530" type="line" smooth="yes"/>
      <point x="21" y="172" type="line" smooth="yes"/>
      <point x="46" y="40" type="line" smooth="yes"/>
      <point x="176" y="-13" type="line" smooth="yes"/>
      <point x="272" y="11" type="line" smooth="yes"/>
      <point x="345" y="70" type="line" smooth="yes"/>
      <point x="345" y="0" type="line" smooth="yes"/>
      <point x="486" y="0" type="line" smooth="yes"/>
      <point x="496" y="149" type="line" smooth="yes"/>
      <point x="546" y="530" type="line" smooth="yes"/>
      <point x="388" y="530" type="line" smooth="yes"/>
      <point x="341" y="172" type="line" smooth="yes"/>
      <point x="302" y="140" type="line" smooth="yes"/>
      <point x="241" y="123" type="line" smooth="yes"/>
      <point x="191" y="142" type="line" smooth="yes"/>
      <point x="182" y="195" type="line" smooth="yes"/>
      <point x="226" y="530" type="line" smooth="yes"/>
    </contour>
    <contour>
      <point x="352" y="780" type="line" smooth="yes"/>
      <point x="237" y="596" type="line" smooth="yes"/>
      <point x="393" y="596" type="line" smooth="yes"/>
      <point x="524" y="780" type="line" smooth="yes"/>
    </contour>
  </outline>
</glyph>
<glyph name="udieresis" format="1">
  <advance width="580"/>
  <unicode hex="00FC"/>
  <outline>
    <contour>
      <point x="68" y="530" type="line" smooth="yes"/>
      <point x="21" y="172" type="line" smooth="yes"/>
      <point x="46" y="40" type="line" smooth="yes"/>
      <point x="176" y="-13" type="line" smooth="yes"/>
      <point x="272" y="11" type="line" smooth="yes"/>
      <point x="345" y="70" type="line" smooth="yes"/>
      <point x="345" y="0" type="line" smooth="yes"/>
      <point x="486" y="0" type="line" smooth="yes"/>
      <point x="496" y="149" type="line" smooth="yes"/>
      <point x="546" y="530" type="line" smooth="yes"/>
      <point x="388" y="530" type="line" smooth="yes"/>
      <point x="341" y="172" type="line" smooth="yes"/>
      <point x="302" y="140" type="line" smooth="yes"/>
      <point x="241" y="123" type="line" smooth="yes"/>
      <point x="191" y="142" type="line" smooth="yes"/>
      <point x="182" y="195" type="line" smooth="yes"/>
      <point x="226" y="530" type="line" smooth="yes"/>
    </contour>
    <contour>
      <point x="529" y="772" type="line" smooth="yes"/>
      <point x="362" y="772" type="line" smooth="yes"/>
      <point x="340" y="605" type="line" smooth="yes"/>
      <point x="507" y="605" type="line" smooth="yes"/>
    </contour>
    <contour>
      <point x="314" y="772" type="line" smooth="yes"/>
      <point x="147" y="772" type="line" smooth="yes"/>
      <point x="125" y="605" type="line" smooth="yes"/>
      <point x="292" y="605" type="line" smooth="yes"/>
    </contour>
  </outline>
</glyph>
<glyph name="thorn" format="1">
  <advance width="569"/>
  <unicode hex="00FE"/>
  <outline>
    <contour>
      <point x="265" y="123" type="line" smooth="yes"/>
      <point x="211" y="142" type="line" smooth="yes"/>
      <point x="184" y="175" type="line" smooth="yes"/>
      <point x="208" y="358" type="line" smooth="yes"/>
      <point x="241" y="390" type="line" smooth="yes"/>
      <point x="300" y="407" type="line" smooth="yes"/>
      <point x="363" y="376" type="line" smooth="yes"/>
      <point x="374" y="284" type="line" smooth="yes"/>
      <point x="369" y="246" type="line" smooth="yes"/>
      <point x="337" y="155" type="line" smooth="yes"/>
    </contour>
    <contour>
      <point x="108" y="800" type="line" smooth="yes"/>
      <point x="-24" y="-200" type="line" smooth="yes"/>
      <point x="134" y="-200" type="line" smooth="yes"/>
      <point x="167" y="46" type="line" smooth="yes"/>
      <point x="212" y="7" type="line" smooth="yes"/>
      <point x="302" y="-13" type="line" smooth="yes"/>
      <point x="458" y="59" type="line" smooth="yes"/>
      <point x="527" y="246" type="line" smooth="yes"/>
      <point x="532" y="284" type="line" smooth="yes"/>
      <point x="506" y="473" type="line" smooth="yes"/>
      <point x="362" y="543" type="line" smooth="yes"/>
      <point x="281" y="528" type="line" smooth="yes"/>
      <point x="225" y="488" type="line" smooth="yes"/>
      <point x="266" y="800" type="line" smooth="yes"/>
    </contour>
  </outline>
</glyph>
<glyph name="ydieresis" format="1">
  <advance width="551"/>
  <unicode hex="00FF"/>
  <outline>
    <contour>
      <point x="251" y="192" type="line" smooth="yes"/>
      <point x="194" y="530" type="line" smooth="yes"/>
      <point x="25" y="530" type="line" smooth="yes"/>
      <point x="145" y="28" type="line" smooth="yes"/>
      <point x="30" y="-200" type="line" smooth="yes"/>
      <point x="218" y="-200" type="line" smooth="yes"/>
      <point x="316" y="28" type="line" smooth="yes"/>
      <point x="569" y="530" type="line" smooth="yes"/>
      <point x="394" y="530" type="line" smooth="yes"/>
    </contour>
    <contour>
      <point x="520" y="772" type="line" smooth="yes"/>
      <point x="353" y="772" type="line" smooth="yes"/>
      <point x="331" y="605" type="line" smooth="yes"/>
      <point x="498" y="605" type="line" smooth="yes"/>
    </contour>
    <contour>
      <point x="305" y="772" type="line" smooth="yes"/>
      <point x="138" y="772" type="line" smooth="yes"/>
      <point x="116" y="605" type="line" smooth="yes"/>
      <point x="283" y="605" type="line" smooth="yes"/>
    </contour>
  </outline>
</glyph>
<glyph name="Abreve" format="1">
  <advance width="641"/>
  <unicode hex="0102"/>
  <outline>
    <contour>
      <point x="351" y="601" type="line" smooth="yes"/>
      <point x="376" y="308" type="line" smooth="yes"/>
      <point x="248" y="308" type="line" smooth="yes"/>
    </contour>
    <contour>
      <point x="262" y="782" type="line" smooth="yes"/>
      <point x="-35" y="0" type="line" smooth="yes"/>
      <point x="139" y="0" type="line" smooth="yes"/>
      <point x="199" y="168" type="line" smooth="yes"/>
      <point x="389" y="168" type="line" smooth="yes"/>
      <point x="404" y="0" type="line" smooth="yes"/>
      <point x="578" y="0" type="line" smooth="yes"/>
      <point x="485" y="782" type="line" smooth="yes"/>
    </contour>
    <contour>
      <point x="384" y="825" type="line" smooth="yes"/>
      <point x="533" y="862" type="line" smooth="yes"/>
      <point x="579" y="950" type="line" smooth="yes"/>
      <point x="468" y="950" type="line" smooth="yes"/>
      <point x="446" y="920" type="line" smooth="yes"/>
      <point x="388" y="910" type="line" smooth="yes"/>
      <point x="336" y="920" type="line" smooth="yes"/>
      <point x="320" y="950" type="line" smooth="yes"/>
      <point x="213" y="950" type="line" smooth="yes"/>
      <point x="242" y="862" type="line" smooth="yes"/>
    </contour>
  </outline>
</glyph>
<glyph name="abreve" format="1">
  <advance width="549"/>
  <unicode hex="0103"/>
  <outline>
    <contour>
      <point x="208" y="115" type="line" smooth="yes"/>
      <point x="168" y="130" type="line" smooth="yes"/>
      <point x="160" y="166" type="line" smooth="yes"/>
      <point x="162" y="179" type="line" smooth="yes"/>
      <point x="180" y="214" type="line" smooth="yes"/>
      <point x="229" y="237" type="line" smooth="yes"/>
      <point x="327" y="252" type="line" smooth="yes"/>
      <point x="315" y="163" type="line" smooth="yes"/>
      <point x="277" y="131" type="line" smooth="yes"/>
    </contour>
    <contour>
      <point x="320" y="0" type="line" smooth="yes"/>
      <point x="461" y="0" type="line" smooth="yes"/>
      <point x="471" y="149" type="line" smooth="yes"/>
      <point x="496" y="341" type="line" smooth="yes"/>
      <point x="457" y="488" type="line" smooth="yes"/>
      <point x="280" y="543" type="line" smooth="yes"/>
      <point x="106" y="494" type="line" smooth="yes"/>
      <point x="49" y="370" type="line" smooth="yes"/>
      <point x="47" y="355" type="line" smooth="yes"/>
      <point x="196" y="355" type="line" smooth="yes"/>
      <point x="216" y="403" type="line" smooth="yes"/>
      <point x="274" y="423" type="line" smooth="yes"/>
      <point x="329" y="407" type="line" smooth="yes"/>
      <point x="340" y="354" type="line" smooth="yes"/>
      <point x="339" y="346" type="line" smooth="yes"/>
      <point x="209" y="326" type="line" smooth="yes"/>
      <point x="66" y="282" type="line" smooth="yes"/>
      <point x="1" y="163" type="line" smooth="yes"/>
      <point x="-1" y="148" type="line" smooth="yes"/>
      <point x="28" y="36" type="line" smooth="yes"/>
      <point x="155" y="-13" type="line" smooth="yes"/>
      <point x="248" y="7" type="line" smooth="yes"/>
      <point x="320" y="59" type="line" smooth="yes"/>
    </contour>
    <contour>
      <point x="301" y="582" type="line" smooth="yes"/>
      <point x="455" y="638" type="line" smooth="yes"/>
      <point x="514" y="780" type="line" smooth="yes"/>
      <point x="399" y="780" type="line" smooth="yes"/>
      <point x="370" y="719" type="line" smooth="yes"/>
      <point x="315" y="702" type="line" smooth="yes"/>
      <point x="264" y="719" type="line" smooth="yes"/>
      <point x="251" y="780" type="line" smooth="yes"/>
      <point x="140" y="780" type="line" smooth="yes"/>
      <point x="162" y="638" type="line" smooth="yes"/>
    </contour>
  </outline>
</glyph>
<glyph name="Aogonek" format="1">
  <advance width="641"/>
  <unicode hex="0104"/>
  <outline>
    <contour>
      <point x="351" y="601" type="line" smooth="yes"/>
      <point x="376" y="308" type="line" smooth="yes"/>
      <point x="248" y="308" type="line" smooth="yes"/>
    </contour>
    <contour>
      <point x="262" y="782" type="line" smooth="yes"/>
      <point x="-35" y="0" type="line" smooth="yes"/>
      <point x="139" y="0" type="line" smooth="yes"/>
      <point x="199" y="168" type="line" smooth="yes"/>
      <point x="389" y="168" type="line" smooth="yes"/>
      <point x="404" y="0" type="line" smooth="yes"/>
      <point x="440" y="0" type="line" smooth="yes"/>
      <point x="399" y="-54" type="line" smooth="yes"/>
      <point x="383" y="-120" type="line" smooth="yes"/>
      <point x="417" y="-192" type="line" smooth="yes"/>
      <point x="510" y="-215" type="line" smooth="yes"/>
      <point x="566" y="-207" type="line" smooth="yes"/>
      <point x="611" y="-190" type="line" smooth="yes"/>
      <point x="588" y="-94" type="line" smooth="yes"/>
      <point x="570" y="-101" type="line" smooth="yes"/>
      <point x="545" y="-105" type="line" smooth="yes"/>
      <point x="516" y="-97" type="line" smooth="yes"/>
      <point x="506" y="-75" type="line" smooth="yes"/>
      <point x="530" y="-26" type="line" smooth="yes"/>
      <point x="578" y="0" type="line" smooth="yes"/>
      <point x="485" y="782" type="line" smooth="yes"/>
    </contour>
  </outline>
</glyph>
<glyph name="aogonek" format="1">
  <advance width="546"/>
  <unicode hex="0105"/>
  <outline>
    <contour>
      <point x="208" y="115" type="line" smooth="yes"/>
      <point x="168" y="130" type="line" smooth="yes"/>
      <point x="160" y="166" type="line" smooth="yes"/>
      <point x="162" y="179" type="line" smooth="yes"/>
      <point x="180" y="214" type="line" smooth="yes"/>
      <point x="229" y="237" type="line" smooth="yes"/>
      <point x="327" y="252" type="line" smooth="yes"/>
      <point x="315" y="163" type="line" smooth="yes"/>
      <point x="277" y="131" type="line" smooth="yes"/>
    </contour>
    <contour>
      <point x="461" y="0" type="line" smooth="yes"/>
      <point x="471" y="149" type="line" smooth="yes"/>
      <point x="496" y="341" type="line" smooth="yes"/>
      <point x="457" y="488" type="line" smooth="yes"/>
      <point x="280" y="543" type="line" smooth="yes"/>
      <point x="106" y="494" type="line" smooth="yes"/>
      <point x="49" y="370" type="line" smooth="yes"/>
      <point x="47" y="355" type="line" smooth="yes"/>
      <point x="196" y="355" type="line" smooth="yes"/>
      <point x="216" y="403" type="line" smooth="yes"/>
      <point x="274" y="423" type="line" smooth="yes"/>
      <point x="329" y="407" type="line" smooth="yes"/>
      <point x="340" y="354" type="line" smooth="yes"/>
      <point x="339" y="346" type="line" smooth="yes"/>
      <point x="209" y="326" type="line" smooth="yes"/>
      <point x="66" y="282" type="line" smooth="yes"/>
      <point x="1" y="163" type="line" smooth="yes"/>
      <point x="-1" y="148" type="line" smooth="yes"/>
      <point x="28" y="36" type="line" smooth="yes"/>
      <point x="155" y="-13" type="line" smooth="yes"/>
      <point x="248" y="7" type="line" smooth="yes"/>
      <point x="320" y="59" type="line" smooth="yes"/>
      <point x="320" y="-3" type="line" smooth="yes"/>
      <point x="281" y="-56" type="line" smooth="yes"/>
      <point x="266" y="-120" type="line" smooth="yes"/>
      <point x="300" y="-192" type="line" smooth="yes"/>
      <point x="393" y="-215" type="line" smooth="yes"/>
      <point x="449" y="-207" type="line" smooth="yes"/>
      <point x="494" y="-190" type="line" smooth="yes"/>
      <point x="471" y="-94" type="line" smooth="yes"/>
      <point x="453" y="-101" type="line" smooth="yes"/>
      <point x="428" y="-105" type="line" smooth="yes"/>
      <point x="399" y="-97" type="line" smooth="yes"/>
      <point x="389" y="-75" type="line" smooth="yes"/>
      <point x="413" y="-26" type="line" smooth="yes"/>
    </contour>
  </outline>
</glyph>
<glyph name="ccaron" format="1">
  <advance width="527"/>
  <unicode hex="010D"/>
  <outline>
    <contour>
      <point x="176" y="284" type="line" smooth="yes"/>
      <point x="211" y="378" type="line" smooth="yes"/>
      <point x="277" y="407" type="line" smooth="yes"/>
      <point x="332" y="383" type="line" smooth="yes"/>
      <point x="342" y="324" type="line" smooth="yes"/>
      <point x="491" y="324" type="line" smooth="yes"/>
      <point x="493" y="339" type="line" smooth="yes"/>
      <point x="452" y="489" type="line" smooth="yes"/>
      <point x="282" y="543" type="line" smooth="yes"/>
      <point x="96" y="472" type="line" smooth="yes"/>
      <point x="18" y="284" type="line" smooth="yes"/>
      <point x="13" y="246" type="line" smooth="yes"/>
      <point x="53" y="60" type="line" smooth="yes"/>
      <point x="235" y="-13" type="line" smooth="yes"/>
      <point x="402" y="38" type="line" smooth="yes"/>
      <point x="472" y="181" type="line" smooth="yes"/>
      <point x="474" y="196" type="line" smooth="yes"/>
      <point x="325" y="196" type="line" smooth="yes"/>
      <point x="300" y="145" type="line" smooth="yes"/>
      <point x="240" y="123" type="line" smooth="yes"/>
      <point x="179" y="155" type="line" smooth="yes"/>
      <point x="171" y="246" type="line" smooth="yes"/>
    </contour>
    <contour>
      <point x="113" y="780" type="line" smooth="yes"/>
      <point x="223" y="596" type="line" smooth="yes"/>
      <point x="375" y="596" type="line" smooth="yes"/>
      <point x="533" y="780" type="line" smooth="yes"/>
      <point x="392" y="780" type="line" smooth="yes"/>
      <point x="309" y="697" type="line" smooth="yes"/>
      <point x="248" y="780" type="line" smooth="yes"/>
    </contour>
  </outline>
</glyph>
<glyph name="Dcaron" format="1">
  <advance width="656"/>
  <unicode hex="010E"/>
  <outline>
    <contour>
      <point x="187" y="140" type="line" smooth="yes"/>
      <point x="253" y="640" type="line" smooth="yes"/>
      <point x="329" y="640" type="line" smooth="yes"/>
      <point x="450" y="581" type="line" smooth="yes"/>
      <point x="463" y="406" type="line" smooth="yes"/>
      <point x="459" y="374" type="line" smooth="yes"/>
      <point x="397" y="195" type="line" smooth="yes"/>
      <point x="250" y="140" type="line" smooth="yes"/>
    </contour>
    <contour>
      <point x="628" y="406" type="line" smooth="yes"/>
      <point x="579" y="696" type="line" smooth="yes"/>
      <point x="337" y="780" type="line" smooth="yes"/>
      <point x="109" y="780" type="line" smooth="yes"/>
      <point x="7" y="0" type="line" smooth="yes"/>
      <point x="248" y="0" type="line" smooth="yes"/>
      <point x="507" y="82" type="line" smooth="yes"/>
      <point x="624" y="374" type="line" smooth="yes"/>
    </contour>
    <contour>
      <point x="185" y="950" type="line" smooth="yes"/>
      <point x="294" y="840" type="line" smooth="yes"/>
      <point x="454" y="840" type="line" smooth="yes"/>
      <point x="593" y="950" type="line" smooth="yes"/>
      <point x="448" y="950" type="line" smooth="yes"/>
      <point x="381" y="900" type="line" smooth="yes"/>
      <point x="324" y="950" type="line" smooth="yes"/>
    </contour>
  </outline>
</glyph>
<glyph name="Dcroat" format="1">
  <advance width="716"/>
  <unicode hex="0110"/>
  <outline>
    <contour>
      <point x="247" y="140" type="line" smooth="yes"/>
      <point x="273" y="338" type="line" smooth="yes"/>
      <point x="438" y="338" type="line" smooth="yes"/>
      <point x="454" y="459" type="line" smooth="yes"/>
      <point x="289" y="459" type="line" smooth="yes"/>
      <point x="313" y="640" type="line" smooth="yes"/>
      <point x="389" y="640" type="line" smooth="yes"/>
      <point x="510" y="581" type="line" smooth="yes"/>
      <point x="523" y="406" type="line" smooth="yes"/>
      <point x="519" y="374" type="line" smooth="yes"/>
      <point x="457" y="195" type="line" smooth="yes"/>
      <point x="310" y="140" type="line" smooth="yes"/>
    </contour>
    <contour>
      <point x="688" y="406" type="line" smooth="yes"/>
      <point x="639" y="696" type="line" smooth="yes"/>
      <point x="397" y="780" type="line" smooth="yes"/>
      <point x="169" y="780" type="line" smooth="yes"/>
      <point x="127" y="459" type="line" smooth="yes"/>
      <point x="23" y="459" type="line" smooth="yes"/>
      <point x="7" y="338" type="line" smooth="yes"/>
      <point x="111" y="338" type="line" smooth="yes"/>
      <point x="67" y="0" type="line" smooth="yes"/>
      <point x="308" y="0" type="line" smooth="yes"/>
      <point x="567" y="82" type="line" smooth="yes"/>
      <point x="684" y="374" type="line" smooth="yes"/>
    </contour>
  </outline>
</glyph>
<glyph name="edotaccent" format="1">
  <advance width="551"/>
  <unicode hex="0117"/>
  <outline>
    <contour>
      <point x="287" y="423" type="line" smooth="yes"/>
      <point x="347" y="397" type="line" smooth="yes"/>
      <point x="361" y="322" type="line" smooth="yes"/>
      <point x="178" y="322" type="line" smooth="yes"/>
      <point x="216" y="398" type="line" smooth="yes"/>
    </contour>
    <contour>
      <point x="504" y="208" type="line" smooth="yes"/>
      <point x="510" y="255" type="line" smooth="yes"/>
      <point x="476" y="462" type="line" smooth="yes"/>
      <point x="287" y="543" type="line" smooth="yes"/>
      <point x="97" y="469" type="line" smooth="yes"/>
      <point x="18" y="284" type="line" smooth="yes"/>
      <point x="13" y="246" type="line" smooth="yes"/>
      <point x="55" y="61" type="line" smooth="yes"/>
      <point x="252" y="-13" type="line" smooth="yes"/>
      <point x="427" y="35" type="line" smooth="yes"/>
      <point x="497" y="155" type="line" smooth="yes"/>
      <point x="499" y="170" type="line" smooth="yes"/>
      <point x="350" y="170" type="line" smooth="yes"/>
      <point x="323" y="124" type="line" smooth="yes"/>
      <point x="252" y="107" type="line" smooth="yes"/>
      <point x="182" y="130" type="line" smooth="yes"/>
      <point x="163" y="208" type="line" smooth="yes"/>
    </contour>
    <contour>
      <point x="417" y="772" type="line" smooth="yes"/>
      <point x="250" y="772" type="line" smooth="yes"/>
      <point x="228" y="605" type="line" smooth="yes"/>
      <point x="395" y="605" type="line" smooth="yes"/>
    </contour>
  </outline>
</glyph>
<glyph name="eogonek" format="1">
  <advance width="551"/>
  <unicode hex="0119"/>
  <outline>
    <contour>
      <point x="287" y="423" type="line" smooth="yes"/>
      <point x="347" y="397" type="line" smooth="yes"/>
      <point x="361" y="322" type="line" smooth="yes"/>
      <point x="178" y="322" type="line" smooth="yes"/>
      <point x="216" y="398" type="line" smooth="yes"/>
    </contour>
    <contour>
      <point x="504" y="208" type="line" smooth="yes"/>
      <point x="510" y="255" type="line" smooth="yes"/>
      <point x="476" y="462" type="line" smooth="yes"/>
      <point x="287" y="543" type="line" smooth="yes"/>
      <point x="97" y="469" type="line" smooth="yes"/>
      <point x="18" y="284" type="line" smooth="yes"/>
      <point x="13" y="246" type="line" smooth="yes"/>
      <point x="45" y="73" type="line" smooth="yes"/>
      <point x="205" y="-10" type="line" smooth="yes"/>
      <point x="171" y="-60" type="line" smooth="yes"/>
      <point x="158" y="-120" type="line" smooth="yes"/>
      <point x="192" y="-192" type="line" smooth="yes"/>
      <point x="285" y="-215" type="line" smooth="yes"/>
      <point x="341" y="-207" type="line" smooth="yes"/>
      <point x="386" y="-190" type="line" smooth="yes"/>
      <point x="363" y="-94" type="line" smooth="yes"/>
      <point x="345" y="-101" type="line" smooth="yes"/>
      <point x="320" y="-105" type="line" smooth="yes"/>
      <point x="291" y="-97" type="line" smooth="yes"/>
      <point x="281" y="-75" type="line" smooth="yes"/>
      <point x="305" y="-26" type="line" smooth="yes"/>
      <point x="353" y="0" type="line" smooth="yes"/>
      <point x="454" y="60" type="line" smooth="yes"/>
      <point x="497" y="155" type="line" smooth="yes"/>
      <point x="499" y="170" type="line" smooth="yes"/>
      <point x="350" y="170" type="line" smooth="yes"/>
      <point x="323" y="124" type="line" smooth="yes"/>
      <point x="252" y="107" type="line" smooth="yes"/>
      <point x="182" y="130" type="line" smooth="yes"/>
      <point x="163" y="208" type="line" smooth="yes"/>
    </contour>
  </outline>
</glyph>
<glyph name="ecaron" format="1">
  <advance width="556"/>
  <unicode hex="011B"/>
  <outline>
    <contour>
      <point x="287" y="423" type="line" smooth="yes"/>
      <point x="347" y="397" type="line" smooth="yes"/>
      <point x="361" y="322" type="line" smooth="yes"/>
      <point x="178" y="322" type="line" smooth="yes"/>
      <point x="216" y="398" type="line" smooth="yes"/>
    </contour>
    <contour>
      <point x="504" y="208" type="line" smooth="yes"/>
      <point x="510" y="255" type="line" smooth="yes"/>
      <point x="476" y="462" type="line" smooth="yes"/>
      <point x="287" y="543" type="line" smooth="yes"/>
      <point x="97" y="469" type="line" smooth="yes"/>
      <point x="18" y="284" type="line" smooth="yes"/>
      <point x="13" y="246" type="line" smooth="yes"/>
      <point x="55" y="61" type="line" smooth="yes"/>
      <point x="252" y="-13" type="line" smooth="yes"/>
      <point x="427" y="35" type="line" smooth="yes"/>
      <point x="497" y="155" type="line" smooth="yes"/>
      <point x="499" y="170" type="line" smooth="yes"/>
      <point x="350" y="170" type="line" smooth="yes"/>
      <point x="323" y="124" type="line" smooth="yes"/>
      <point x="252" y="107" type="line" smooth="yes"/>
      <point x="182" y="130" type="line" smooth="yes"/>
      <point x="163" y="208" type="line" smooth="yes"/>
    </contour>
    <contour>
      <point x="124" y="780" type="line" smooth="yes"/>
      <point x="234" y="596" type="line" smooth="yes"/>
      <point x="386" y="596" type="line" smooth="yes"/>
      <point x="544" y="780" type="line" smooth="yes"/>
      <point x="403" y="780" type="line" smooth="yes"/>
      <point x="320" y="697" type="line" smooth="yes"/>
      <point x="259" y="780" type="line" smooth="yes"/>
    </contour>
  </outline>
</glyph>
<glyph name="Gdotaccent" format="1">
  <advance width="669"/>
  <unicode hex="0120"/>
  <outline>
    <contour>
      <point x="314" y="-13" type="line" smooth="yes"/>
      <point x="479" y="16" type="line" smooth="yes"/>
      <point x="583" y="77" type="line" smooth="yes"/>
      <point x="628" y="422" type="line" smooth="yes"/>
      <point x="363" y="422" type="line" smooth="yes"/>
      <point x="345" y="282" type="line" smooth="yes"/>
      <point x="448" y="282" type="line" smooth="yes"/>
      <point x="431" y="154" type="line" smooth="yes"/>
      <point x="388" y="135" type="line" smooth="yes"/>
      <point x="325" y="127" type="line" smooth="yes"/>
      <point x="315" y="127" type="line" smooth="yes"/>
      <point x="215" y="192" type="line" smooth="yes"/>
      <point x="203" y="374" type="line" smooth="yes"/>
      <point x="207" y="407" type="line" smooth="yes"/>
      <point x="261" y="589" type="line" smooth="yes"/>
      <point x="367" y="653" type="line" smooth="yes"/>
      <point x="377" y="653" type="line" smooth="yes"/>
      <point x="463" y="611" type="line" smooth="yes"/>
      <point x="473" y="484" type="line" smooth="yes"/>
      <point x="636" y="484" type="line" smooth="yes"/>
      <point x="640" y="516" type="line" smooth="yes"/>
      <point x="593" y="724" type="line" smooth="yes"/>
      <point x="376" y="793" type="line" smooth="yes"/>
      <point x="149" y="701" type="line" smooth="yes"/>
      <point x="42" y="406" type="line" smooth="yes"/>
      <point x="38" y="374" type="line" smooth="yes"/>
      <point x="91" y="79" type="line" smooth="yes"/>
    </contour>
    <contour>
      <point x="478" y="945" type="line" smooth="yes"/>
      <point x="345" y="945" type="line" smooth="yes"/>
      <point x="332" y="845" type="line" smooth="yes"/>
      <point x="465" y="845" type="line" smooth="yes"/>
    </contour>
  </outline>
</glyph>
<glyph name="gcommaaccent" format="1">
  <advance width="574"/>
  <unicode hex="0123"/>
  <outline>
    <contour>
      <point x="341" y="204" type="line" smooth="yes"/>
      <point x="308" y="172" type="line" smooth="yes"/>
      <point x="248" y="155" type="line" smooth="yes"/>
      <point x="185" y="184" type="line" smooth="yes"/>
      <point x="173" y="262" type="line" smooth="yes"/>
      <point x="178" y="300" type="line" smooth="yes"/>
      <point x="209" y="378" type="line" smooth="yes"/>
      <point x="280" y="407" type="line" smooth="yes"/>
      <point x="334" y="389" type="line" smooth="yes"/>
      <point x="361" y="355" type="line" smooth="yes"/>
    </contour>
    <contour>
      <point x="315" y="7" type="line" smooth="yes"/>
      <point x="284" y="-64" type="line" smooth="yes"/>
      <point x="216" y="-85" type="line" smooth="yes"/>
      <point x="149" y="-62" type="line" smooth="yes"/>
      <point x="140" y="0" type="line" smooth="yes"/>
      <point x="-9" y="0" type="line" smooth="yes"/>
      <point x="-11" y="-15" type="line" smooth="yes"/>
      <point x="26" y="-155" type="line" smooth="yes"/>
      <point x="218" y="-213" type="line" smooth="yes"/>
      <point x="390" y="-161" type="line" smooth="yes"/>
      <point x="472" y="0" type="line" smooth="yes"/>
      <point x="522" y="380" type="line" smooth="yes"/>
      <point x="550" y="530" type="line" smooth="yes"/>
      <point x="408" y="530" type="line" smooth="yes"/>
      <point x="390" y="465" type="line" smooth="yes"/>
      <point x="336" y="521" type="line" smooth="yes"/>
      <point x="243" y="543" type="line" smooth="yes"/>
      <point x="87" y="473" type="line" smooth="yes"/>
      <point x="20" y="300" type="line" smooth="yes"/>
      <point x="15" y="262" type="line" smooth="yes"/>
      <point x="43" y="87" type="line" smooth="yes"/>
      <point x="187" y="19" type="line" smooth="yes"/>
      <point x="268" y="34" type="line" smooth="yes"/>
      <point x="324" y="74" type="line" smooth="yes"/>
    </contour>
    <contour>
      <point x="235" y="596" type="line" smooth="yes"/>
      <point x="377" y="596" type="line" smooth="yes"/>
      <point x="390" y="700" type="line" smooth="yes"/>
      <point x="311" y="700" type="line" smooth="yes"/>
      <point x="346" y="730" type="line" smooth="yes"/>
      <point x="401" y="738" type="line" smooth="yes"/>
      <point x="408" y="793" type="line" smooth="yes"/>
      <point x="294" y="765" type="line" smooth="yes"/>
      <point x="245" y="668" type="line" smooth="yes"/>
    </contour>
  </outline>
</glyph>
<glyph name="Itilde" format="1">
  <advance width="283"/>
  <unicode hex="0128"/>
  <outline>
    <contour>
      <point x="276" y="780" type="line" smooth="yes"/>
      <point x="114" y="780" type="line" smooth="yes"/>
      <point x="12" y="0" type="line" smooth="yes"/>
      <point x="174" y="0" type="line" smooth="yes"/>
    </contour>
    <contour>
      <point x="317" y="947" type="line" smooth="yes"/>
      <point x="305" y="921" type="line" smooth="yes"/>
      <point x="280" y="914" type="line" smooth="yes"/>
      <point x="216" y="938" type="line" smooth="yes"/>
      <point x="132" y="962" type="line" smooth="yes"/>
      <point x="58" y="936" type="line" smooth="yes"/>
      <point x="18" y="843" type="line" smooth="yes"/>
      <point x="103" y="843" type="line" smooth="yes"/>
      <point x="116" y="869" type="line" smooth="yes"/>
      <point x="140" y="876" type="line" smooth="yes"/>
      <point x="204" y="852" type="line" smooth="yes"/>
      <point x="288" y="828" type="line" smooth="yes"/>
      <point x="362" y="855" type="line" smooth="yes"/>
      <point x="402" y="947" type="line" smooth="yes"/>
    </contour>
  </outline>
</glyph>
<glyph name="itilde" format="1">
  <advance width="266"/>
  <unicode hex="0129"/>
  <outline>
    <contour>
      <point x="5" y="0" type="line" smooth="yes"/>
      <point x="163" y="0" type="line" smooth="yes"/>
      <point x="232" y="530" type="line" smooth="yes"/>
      <point x="74" y="530" type="line" smooth="yes"/>
    </contour>
    <contour>
      <point x="281" y="772" type="line" smooth="yes"/>
      <point x="270" y="744" type="line" smooth="yes"/>
      <point x="247" y="735" type="line" smooth="yes"/>
      <point x="179" y="761" type="line" smooth="yes"/>
      <point x="91" y="787" type="line" smooth="yes"/>
      <point x="10" y="749" type="line" smooth="yes"/>
      <point x="-35" y="628" type="line" smooth="yes"/>
      <point x="70" y="628" type="line" smooth="yes"/>
      <point x="81" y="656" type="line" smooth="yes"/>
      <point x="104" y="665" type="line" smooth="yes"/>
      <point x="172" y="639" type="line" smooth="yes"/>
      <point x="260" y="613" type="line" smooth="yes"/>
      <point x="341" y="651" type="line" smooth="yes"/>
      <point x="386" y="772" type="line" smooth="yes"/>
    </contour>
  </outline>
</glyph>
<glyph name="imacron" format="1">
  <advance width="266"/>
  <unicode hex="012B"/>
  <outline>
    <contour>
      <point x="5" y="0" type="line" smooth="yes"/>
      <point x="163" y="0" type="line" smooth="yes"/>
      <point x="232" y="530" type="line" smooth="yes"/>
      <point x="74" y="530" type="line" smooth="yes"/>
    </contour>
    <contour>
      <point x="15" y="619" type="line" smooth="yes"/>
      <point x="315" y="619" type="line" smooth="yes"/>
      <point x="333" y="757" type="line" smooth="yes"/>
      <point x="33" y="757" type="line" smooth="yes"/>
    </contour>
  </outline>
</glyph>
<glyph name="Ibreve" format="1">
  <advance width="283"/>
  <unicode hex="012C"/>
  <outline>
    <contour>
      <point x="276" y="780" type="line" smooth="yes"/>
      <point x="114" y="780" type="line" smooth="yes"/>
      <point x="12" y="0" type="line" smooth="yes"/>
      <point x="174" y="0" type="line" smooth="yes"/>
    </contour>
    <contour>
      <point x="206" y="825" type="line" smooth="yes"/>
      <point x="355" y="862" type="line" smooth="yes"/>
      <point x="401" y="950" type="line" smooth="yes"/>
      <point x="290" y="950" type="line" smooth="yes"/>
      <point x="268" y="920" type="line" smooth="yes"/>
      <point x="210" y="910" type="line" smooth="yes"/>
      <point x="158" y="920" type="line" smooth="yes"/>
      <point x="142" y="950" type="line" smooth="yes"/>
      <point x="35" y="950" type="line" smooth="yes"/>
      <point x="64" y="862" type="line" smooth="yes"/>
    </contour>
  </outline>
</glyph>
<glyph name="ibreve" format="1">
  <advance width="265"/>
  <unicode hex="012D"/>
  <outline>
    <contour>
      <point x="5" y="0" type="line" smooth="yes"/>
      <point x="163" y="0" type="line" smooth="yes"/>
      <point x="232" y="530" type="line" smooth="yes"/>
      <point x="74" y="530" type="line" smooth="yes"/>
    </contour>
    <contour>
      <point x="160" y="582" type="line" smooth="yes"/>
      <point x="314" y="638" type="line" smooth="yes"/>
      <point x="373" y="780" type="line" smooth="yes"/>
      <point x="258" y="780" type="line" smooth="yes"/>
      <point x="229" y="719" type="line" smooth="yes"/>
      <point x="174" y="702" type="line" smooth="yes"/>
      <point x="123" y="719" type="line" smooth="yes"/>
      <point x="110" y="780" type="line" smooth="yes"/>
      <point x="-1" y="780" type="line" smooth="yes"/>
      <point x="21" y="638" type="line" smooth="yes"/>
    </contour>
  </outline>
</glyph>
<glyph name="Iogonek" format="1">
  <advance width="283"/>
  <unicode hex="012E"/>
  <outline>
    <contour>
      <point x="276" y="780" type="line" smooth="yes"/>
      <point x="114" y="780" type="line" smooth="yes"/>
      <point x="8" y="-31" type="line" smooth="yes"/>
      <point x="-13" y="-73" type="line" smooth="yes"/>
      <point x="-21" y="-120" type="line" smooth="yes"/>
      <point x="13" y="-192" type="line" smooth="yes"/>
      <point x="106" y="-215" type="line" smooth="yes"/>
      <point x="162" y="-207" type="line" smooth="yes"/>
      <point x="207" y="-190" type="line" smooth="yes"/>
      <point x="184" y="-94" type="line" smooth="yes"/>
      <point x="166" y="-101" type="line" smooth="yes"/>
      <point x="141" y="-105" type="line" smooth="yes"/>
      <point x="112" y="-97" type="line" smooth="yes"/>
      <point x="102" y="-75" type="line" smooth="yes"/>
      <point x="126" y="-26" type="line" smooth="yes"/>
      <point x="174" y="0" type="line" smooth="yes"/>
    </contour>
  </outline>
</glyph>
<glyph name="iogonek" format="1">
  <advance width="266"/>
  <unicode hex="012F"/>
  <outline>
    <contour>
      <point x="-32" y="-120" type="line" smooth="yes"/>
      <point x="2" y="-192" type="line" smooth="yes"/>
      <point x="95" y="-215" type="line" smooth="yes"/>
      <point x="151" y="-207" type="line" smooth="yes"/>
      <point x="196" y="-190" type="line" smooth="yes"/>
      <point x="173" y="-94" type="line" smooth="yes"/>
      <point x="155" y="-101" type="line" smooth="yes"/>
      <point x="130" y="-105" type="line" smooth="yes"/>
      <point x="101" y="-97" type="line" smooth="yes"/>
      <point x="91" y="-75" type="line" smooth="yes"/>
      <point x="115" y="-26" type="line" smooth="yes"/>
      <point x="163" y="0" type="line" smooth="yes"/>
      <point x="232" y="530" type="line" smooth="yes"/>
      <point x="74" y="530" type="line" smooth="yes"/>
      <point x="1" y="-26" type="line" smooth="yes"/>
      <point x="-23" y="-69" type="line" smooth="yes"/>
    </contour>
    <contour>
      <point x="268" y="772" type="line" smooth="yes"/>
      <point x="101" y="772" type="line" smooth="yes"/>
      <point x="79" y="605" type="line" smooth="yes"/>
      <point x="246" y="605" type="line" smooth="yes"/>
    </contour>
  </outline>
</glyph>
<glyph name="IJ" format="1">
  <advance width="608"/>
  <unicode hex="0132"/>
  <outline>
    <contour>
      <point x="372" y="199" type="line" smooth="yes"/>
      <point x="343" y="141" type="line" smooth="yes"/>
      <point x="286" y="127" type="line" smooth="yes"/>
      <point x="253" y="131" type="line" smooth="yes"/>
      <point x="235" y="136" type="line" smooth="yes"/>
      <point x="217" y="0" type="line" smooth="yes"/>
      <point x="248" y="-8" type="line" smooth="yes"/>
      <point x="307" y="-13" type="line" smooth="yes"/>
      <point x="459" y="31" type="line" smooth="yes"/>
      <point x="532" y="181" type="line" smooth="yes"/>
      <point x="610" y="780" type="line" smooth="yes"/>
      <point x="448" y="780" type="line" smooth="yes"/>
    </contour>
    <contour>
      <point x="276" y="780" type="line" smooth="yes"/>
      <point x="114" y="780" type="line" smooth="yes"/>
      <point x="12" y="0" type="line" smooth="yes"/>
      <point x="174" y="0" type="line" smooth="yes"/>
    </contour>
  </outline>
</glyph>
<glyph name="ij" format="1">
  <advance width="483"/>
  <unicode hex="0133"/>
  <outline>
    <contour>
      <point x="219" y="-6" type="line" smooth="yes"/>
      <point x="190" y="-64" type="line" smooth="yes"/>
      <point x="135" y="-77" type="line" smooth="yes"/>
      <point x="103" y="-74" type="line" smooth="yes"/>
      <point x="85" y="-70" type="line" smooth="yes"/>
      <point x="68" y="-200" type="line" smooth="yes"/>
      <point x="96" y="-208" type="line" smooth="yes"/>
      <point x="155" y="-213" type="line" smooth="yes"/>
      <point x="303" y="-170" type="line" smooth="yes"/>
      <point x="375" y="-23" type="line" smooth="yes"/>
      <point x="447" y="530" type="line" smooth="yes"/>
      <point x="289" y="530" type="line" smooth="yes"/>
    </contour>
    <contour>
      <point x="483" y="772" type="line" smooth="yes"/>
      <point x="316" y="772" type="line" smooth="yes"/>
      <point x="294" y="605" type="line" smooth="yes"/>
      <point x="461" y="605" type="line" smooth="yes"/>
    </contour>
    <contour>
      <point x="268" y="772" type="line" smooth="yes"/>
      <point x="101" y="772" type="line" smooth="yes"/>
      <point x="79" y="605" type="line" smooth="yes"/>
      <point x="246" y="605" type="line" smooth="yes"/>
    </contour>
    <contour>
      <point x="5" y="0" type="line" smooth="yes"/>
      <point x="163" y="0" type="line" smooth="yes"/>
      <point x="232" y="530" type="line" smooth="yes"/>
      <point x="74" y="530" type="line" smooth="yes"/>
    </contour>
  </outline>
</glyph>
<glyph name="Kcommaaccent" format="1">
  <advance width="625"/>
  <unicode hex="0136"/>
  <outline>
    <contour>
      <point x="271" y="780" type="line" smooth="yes"/>
      <point x="109" y="780" type="line" smooth="yes"/>
      <point x="7" y="0" type="line" smooth="yes"/>
      <point x="169" y="0" type="line" smooth="yes"/>
      <point x="197" y="225" type="line" smooth="yes"/>
      <point x="278" y="322" type="line" smooth="yes"/>
      <point x="378" y="0" type="line" smooth="yes"/>
      <point x="557" y="0" type="line" smooth="yes"/>
      <point x="398" y="467" type="line" smooth="yes"/>
      <point x="659" y="780" type="line" smooth="yes"/>
      <point x="462" y="780" type="line" smooth="yes"/>
      <point x="230" y="479" type="line" smooth="yes"/>
    </contour>
    <contour>
      <point x="336" y="-44" type="line" smooth="yes"/>
      <point x="194" y="-44" type="line" smooth="yes"/>
      <point x="182" y="-136" type="line" smooth="yes"/>
      <point x="261" y="-136" type="line" smooth="yes"/>
      <point x="227" y="-164" type="line" smooth="yes"/>
      <point x="172" y="-171" type="line" smooth="yes"/>
      <point x="165" y="-226" type="line" smooth="yes"/>
      <point x="279" y="-198" type="line" smooth="yes"/>
      <point x="328" y="-101" type="line" smooth="yes"/>
    </contour>
  </outline>
</glyph>
<glyph name="Lacute" format="1">
  <advance width="521"/>
  <unicode hex="0139"/>
  <outline>
    <contour>
      <point x="457" y="0" type="line" smooth="yes"/>
      <point x="475" y="140" type="line" smooth="yes"/>
      <point x="187" y="140" type="line" smooth="yes"/>
      <point x="271" y="780" type="line" smooth="yes"/>
      <point x="109" y="780" type="line" smooth="yes"/>
      <point x="7" y="0" type="line" smooth="yes"/>
    </contour>
    <contour>
      <point x="190" y="950" type="line" smooth="yes"/>
      <point x="120" y="840" type="line" smooth="yes"/>
      <point x="276" y="840" type="line" smooth="yes"/>
      <point x="355" y="950" type="line" smooth="yes"/>
    </contour>
  </outline>
</glyph>
<glyph name="Lcommaaccent" format="1">
  <advance width="521"/>
  <unicode hex="013B"/>
  <outline>
    <contour>
      <point x="457" y="0" type="line" smooth="yes"/>
      <point x="475" y="140" type="line" smooth="yes"/>
      <point x="187" y="140" type="line" smooth="yes"/>
      <point x="271" y="780" type="line" smooth="yes"/>
      <point x="109" y="780" type="line" smooth="yes"/>
      <point x="7" y="0" type="line" smooth="yes"/>
    </contour>
    <contour>
      <point x="296" y="-44" type="line" smooth="yes"/>
      <point x="154" y="-44" type="line" smooth="yes"/>
      <point x="142" y="-136" type="line" smooth="yes"/>
      <point x="221" y="-136" type="line" smooth="yes"/>
      <point x="187" y="-164" type="line" smooth="yes"/>
      <point x="132" y="-171" type="line" smooth="yes"/>
      <point x="125" y="-226" type="line" smooth="yes"/>
      <point x="239" y="-198" type="line" smooth="yes"/>
      <point x="288" y="-101" type="line" smooth="yes"/>
    </contour>
  </outline>
</glyph>
<glyph name="lcommaaccent" format="1">
  <advance width="266"/>
  <unicode hex="013C"/>
  <outline>
    <contour>
      <point x="149" y="-44" type="line" smooth="yes"/>
      <point x="7" y="-44" type="line" smooth="yes"/>
      <point x="-5" y="-136" type="line" smooth="yes"/>
      <point x="74" y="-136" type="line" smooth="yes"/>
      <point x="40" y="-164" type="line" smooth="yes"/>
      <point x="-15" y="-171" type="line" smooth="yes"/>
      <point x="-22" y="-226" type="line" smooth="yes"/>
      <point x="92" y="-198" type="line" smooth="yes"/>
      <point x="141" y="-101" type="line" smooth="yes"/>
    </contour>
    <contour>
      <point x="5" y="0" type="line" smooth="yes"/>
      <point x="163" y="0" type="line" smooth="yes"/>
      <point x="268" y="800" type="line" smooth="yes"/>
      <point x="110" y="800" type="line" smooth="yes"/>
    </contour>
  </outline>
</glyph>
<glyph name="lcaron" format="1">
  <advance width="266"/>
  <unicode hex="013E"/>
  <outline>
    <contour>
      <point x="5" y="0" type="line" smooth="yes"/>
      <point x="163" y="0" type="line" smooth="yes"/>
      <point x="268" y="800" type="line" smooth="yes"/>
      <point x="110" y="800" type="line" smooth="yes"/>
    </contour>
    <contour>
      <point x="324" y="800" type="line" smooth="yes"/>
      <point x="297" y="596" type="line" smooth="yes"/>
      <point x="367" y="596" type="line" smooth="yes"/>
      <point x="419" y="800" type="line" smooth="yes"/>
    </contour>
  </outline>
</glyph>
<glyph name="nacute" format="1">
  <advance width="578"/>
  <unicode hex="0144"/>
  <outline>
    <contour>
      <point x="483" y="0" type="line" smooth="yes"/>
      <point x="530" y="358" type="line" smooth="yes"/>
      <point x="505" y="490" type="line" smooth="yes"/>
      <point x="375" y="543" type="line" smooth="yes"/>
      <point x="279" y="520" type="line" smooth="yes"/>
      <point x="206" y="460" type="line" smooth="yes"/>
      <point x="206" y="530" type="line" smooth="yes"/>
      <point x="65" y="530" type="line" smooth="yes"/>
      <point x="55" y="381" type="line" smooth="yes"/>
      <point x="5" y="0" type="line" smooth="yes"/>
      <point x="163" y="0" type="line" smooth="yes"/>
      <point x="210" y="358" type="line" smooth="yes"/>
      <point x="250" y="390" type="line" smooth="yes"/>
      <point x="310" y="407" type="line" smooth="yes"/>
      <point x="360" y="388" type="line" smooth="yes"/>
      <point x="369" y="335" type="line" smooth="yes"/>
      <point x="325" y="0" type="line" smooth="yes"/>
    </contour>
    <contour>
      <point x="359" y="780" type="line" smooth="yes"/>
      <point x="244" y="596" type="line" smooth="yes"/>
      <point x="400" y="596" type="line" smooth="yes"/>
      <point x="531" y="780" type="line" smooth="yes"/>
    </contour>
  </outline>
</glyph>
<glyph name="ncommaaccent" format="1">
  <advance width="577"/>
  <unicode hex="0146"/>
  <outline>
    <contour>
      <point x="483" y="0" type="line" smooth="yes"/>
      <point x="530" y="358" type="line" smooth="yes"/>
      <point x="505" y="490" type="line" smooth="yes"/>
      <point x="375" y="543" type="line" smooth="yes"/>
      <point x="279" y="520" type="line" smooth="yes"/>
      <point x="206" y="460" type="line" smooth="yes"/>
      <point x="206" y="530" type="line" smooth="yes"/>
      <point x="65" y="530" type="line" smooth="yes"/>
      <point x="55" y="381" type="line" smooth="yes"/>
      <point x="5" y="0" type="line" smooth="yes"/>
      <point x="163" y="0" type="line" smooth="yes"/>
      <point x="210" y="358" type="line" smooth="yes"/>
      <point x="250" y="390" type="line" smooth="yes"/>
      <point x="310" y="407" type="line" smooth="yes"/>
      <point x="360" y="388" type="line" smooth="yes"/>
      <point x="369" y="335" type="line" smooth="yes"/>
      <point x="325" y="0" type="line" smooth="yes"/>
    </contour>
    <contour>
      <point x="309" y="-44" type="line" smooth="yes"/>
      <point x="167" y="-44" type="line" smooth="yes"/>
      <point x="155" y="-136" type="line" smooth="yes"/>
      <point x="234" y="-136" type="line" smooth="yes"/>
      <point x="200" y="-164" type="line" smooth="yes"/>
      <point x="145" y="-171" type="line" smooth="yes"/>
      <point x="138" y="-226" type="line" smooth="yes"/>
      <point x="252" y="-198" type="line" smooth="yes"/>
      <point x="301" y="-101" type="line" smooth="yes"/>
    </contour>
  </outline>
</glyph>
<glyph name="ncaron" format="1">
  <advance width="580"/>
  <unicode hex="0148"/>
  <outline>
    <contour>
      <point x="483" y="0" type="line" smooth="yes"/>
      <point x="530" y="358" type="line" smooth="yes"/>
      <point x="505" y="490" type="line" smooth="yes"/>
      <point x="375" y="543" type="line" smooth="yes"/>
      <point x="279" y="520" type="line" smooth="yes"/>
      <point x="206" y="460" type="line" smooth="yes"/>
      <point x="206" y="530" type="line" smooth="yes"/>
      <point x="65" y="530" type="line" smooth="yes"/>
      <point x="55" y="381" type="line" smooth="yes"/>
      <point x="5" y="0" type="line" smooth="yes"/>
      <point x="163" y="0" type="line" smooth="yes"/>
      <point x="210" y="358" type="line" smooth="yes"/>
      <point x="250" y="390" type="line" smooth="yes"/>
      <point x="310" y="407" type="line" smooth="yes"/>
      <point x="360" y="388" type="line" smooth="yes"/>
      <point x="369" y="335" type="line" smooth="yes"/>
      <point x="325" y="0" type="line" smooth="yes"/>
    </contour>
    <contour>
      <point x="136" y="780" type="line" smooth="yes"/>
      <point x="246" y="596" type="line" smooth="yes"/>
      <point x="398" y="596" type="line" smooth="yes"/>
      <point x="556" y="780" type="line" smooth="yes"/>
      <point x="415" y="780" type="line" smooth="yes"/>
      <point x="332" y="697" type="line" smooth="yes"/>
      <point x="271" y="780" type="line" smooth="yes"/>
    </contour>
  </outline>
</glyph>
<glyph name="eng" format="1">
  <advance width="577"/>
  <unicode hex="014B"/>
  <outline>
    <contour>
      <point x="530" y="358" type="line" smooth="yes"/>
      <point x="505" y="490" type="line" smooth="yes"/>
      <point x="375" y="543" type="line" smooth="yes"/>
      <point x="279" y="520" type="line" smooth="yes"/>
      <point x="206" y="460" type="line" smooth="yes"/>
      <point x="206" y="530" type="line" smooth="yes"/>
      <point x="65" y="530" type="line" smooth="yes"/>
      <point x="55" y="381" type="line" smooth="yes"/>
      <point x="5" y="0" type="line" smooth="yes"/>
      <point x="163" y="0" type="line" smooth="yes"/>
      <point x="210" y="358" type="line" smooth="yes"/>
      <point x="250" y="390" type="line" smooth="yes"/>
      <point x="310" y="407" type="line" smooth="yes"/>
      <point x="360" y="388" type="line" smooth="yes"/>
      <point x="369" y="335" type="line" smooth="yes"/>
      <point x="324" y="-6" type="line" smooth="yes"/>
      <point x="295" y="-64" type="line" smooth="yes"/>
      <point x="240" y="-77" type="line" smooth="yes"/>
      <point x="208" y="-74" type="line" smooth="yes"/>
      <point x="190" y="-70" type="line" smooth="yes"/>
      <point x="173" y="-200" type="line" smooth="yes"/>
      <point x="201" y="-208" type="line" smooth="yes"/>
      <point x="260" y="-213" type="line" smooth="yes"/>
      <point x="408" y="-170" type="line" smooth="yes"/>
      <point x="480" y="-23" type="line" smooth="yes"/>
    </contour>
  </outline>
</glyph>
<glyph name="omacron" format="1">
  <advance width="552"/>
  <unicode hex="014D"/>
  <outline>
    <contour>
      <point x="242" y="-13" type="line" smooth="yes"/>
      <point x="431" y="58" type="line" smooth="yes"/>
      <point x="509" y="246" type="line" smooth="yes"/>
      <point x="514" y="284" type="line" smooth="yes"/>
      <point x="473" y="470" type="line" smooth="yes"/>
      <point x="285" y="543" type="line" smooth="yes"/>
      <point x="96" y="472" type="line" smooth="yes"/>
      <point x="18" y="284" type="line" smooth="yes"/>
      <point x="13" y="246" type="line" smooth="yes"/>
      <point x="54" y="60" type="line" smooth="yes"/>
    </contour>
    <contour>
      <point x="247" y="123" type="line" smooth="yes"/>
      <point x="181" y="155" type="line" smooth="yes"/>
      <point x="171" y="246" type="line" smooth="yes"/>
      <point x="176" y="284" type="line" smooth="yes"/>
      <point x="210" y="378" type="line" smooth="yes"/>
      <point x="280" y="407" type="line" smooth="yes"/>
      <point x="347" y="376" type="line" smooth="yes"/>
      <point x="356" y="284" type="line" smooth="yes"/>
      <point x="351" y="246" type="line" smooth="yes"/>
      <point x="317" y="152" type="line" smooth="yes"/>
    </contour>
    <contour>
      <point x="160" y="619" type="line" smooth="yes"/>
      <point x="460" y="619" type="line" smooth="yes"/>
      <point x="478" y="757" type="line" smooth="yes"/>
      <point x="178" y="757" type="line" smooth="yes"/>
    </contour>
  </outline>
</glyph>
<glyph name="Ohungarumlaut" format="1">
  <advance width="666"/>
  <unicode hex="0150"/>
  <outline>
    <contour>
      <point x="299" y="127" type="line" smooth="yes"/>
      <point x="206" y="192" type="line" smooth="yes"/>
      <point x="203" y="374" type="line" smooth="yes"/>
      <point x="207" y="406" type="line" smooth="yes"/>
      <point x="257" y="588" type="line" smooth="yes"/>
      <point x="367" y="653" type="line" smooth="yes"/>
      <point x="377" y="653" type="line" smooth="yes"/>
      <point x="470" y="588" type="line" smooth="yes"/>
      <point x="473" y="406" type="line" smooth="yes"/>
      <point x="469" y="374" type="line" smooth="yes"/>
      <point x="419" y="192" type="line" smooth="yes"/>
      <point x="309" y="127" type="line" smooth="yes"/>
    </contour>
    <contour>
      <point x="376" y="793" type="line" smooth="yes"/>
      <point x="146" y="701" type="line" smooth="yes"/>
      <point x="42" y="406" type="line" smooth="yes"/>
      <point x="38" y="374" type="line" smooth="yes"/>
      <point x="80" y="79" type="line" smooth="yes"/>
      <point x="300" y="-13" type="line" smooth="yes"/>
      <point x="530" y="79" type="line" smooth="yes"/>
      <point x="634" y="374" type="line" smooth="yes"/>
      <point x="638" y="406" type="line" smooth="yes"/>
      <point x="596" y="702" type="line" smooth="yes"/>
    </contour>
    <contour>
      <point x="480" y="950" type="line" smooth="yes"/>
      <point x="411" y="840" type="line" smooth="yes"/>
      <point x="550" y="840" type="line" smooth="yes"/>
      <point x="629" y="950" type="line" smooth="yes"/>
    </contour>
    <contour>
      <point x="305" y="950" type="line" smooth="yes"/>
      <point x="244" y="840" type="line" smooth="yes"/>
      <point x="383" y="840" type="line" smooth="yes"/>
      <point x="454" y="950" type="line" smooth="yes"/>
    </contour>
  </outline>
</glyph>
<glyph name="OE" format="1">
  <advance width="942"/>
  <unicode hex="0152"/>
  <outline>
    <contour>
      <point x="39" y="374" type="line" smooth="yes"/>
      <point x="88" y="84" type="line" smooth="yes"/>
      <point x="330" y="0" type="line" smooth="yes"/>
      <point x="853" y="0" type="line" smooth="yes"/>
      <point x="871" y="140" type="line" smooth="yes"/>
      <point x="556" y="140" type="line" smooth="yes"/>
      <point x="581" y="328" type="line" smooth="yes"/>
      <point x="846" y="328" type="line" smooth="yes"/>
      <point x="864" y="468" type="line" smooth="yes"/>
      <point x="599" y="468" type="line" smooth="yes"/>
      <point x="622" y="640" type="line" smooth="yes"/>
      <point x="937" y="640" type="line" smooth="yes"/>
      <point x="955" y="780" type="line" smooth="yes"/>
      <point x="419" y="780" type="line" smooth="yes"/>
      <point x="160" y="698" type="line" smooth="yes"/>
      <point x="43" y="406" type="line" smooth="yes"/>
    </contour>
    <contour>
      <point x="460" y="640" type="line" smooth="yes"/>
      <point x="394" y="140" type="line" smooth="yes"/>
      <point x="338" y="140" type="line" smooth="yes"/>
      <point x="217" y="199" type="line" smooth="yes"/>
      <point x="204" y="374" type="line" smooth="yes"/>
      <point x="208" y="406" type="line" smooth="yes"/>
      <point x="270" y="585" type="line" smooth="yes"/>
      <point x="417" y="640" type="line" smooth="yes"/>
    </contour>
  </outline>
</glyph>
<glyph name="oe" format="1">
  <advance width="889"/>
  <unicode hex="0153"/>
  <outline>
    <contour>
      <point x="625" y="423" type="line" smooth="yes"/>
      <point x="685" y="397" type="line" smooth="yes"/>
      <point x="699" y="322" type="line" smooth="yes"/>
      <point x="516" y="322" type="line" smooth="yes"/>
      <point x="554" y="398" type="line" smooth="yes"/>
    </contour>
    <contour>
      <point x="247" y="123" type="line" smooth="yes"/>
      <point x="181" y="155" type="line" smooth="yes"/>
      <point x="171" y="246" type="line" smooth="yes"/>
      <point x="176" y="284" type="line" smooth="yes"/>
      <point x="210" y="378" type="line" smooth="yes"/>
      <point x="280" y="407" type="line" smooth="yes"/>
      <point x="347" y="376" type="line" smooth="yes"/>
      <point x="356" y="284" type="line" smooth="yes"/>
      <point x="351" y="246" type="line" smooth="yes"/>
      <point x="317" y="152" type="line" smooth="yes"/>
    </contour>
    <contour>
      <point x="842" y="208" type="line" smooth="yes"/>
      <point x="848" y="255" type="line" smooth="yes"/>
      <point x="814" y="462" type="line" smooth="yes"/>
      <point x="625" y="543" type="line" smooth="yes"/>
      <point x="522" y="524" type="line" smooth="yes"/>
      <point x="454" y="471" type="line" smooth="yes"/>
      <point x="391" y="524" type="line" smooth="yes"/>
      <point x="285" y="543" type="line" smooth="yes"/>
      <point x="96" y="472" type="line" smooth="yes"/>
      <point x="18" y="284" type="line" smooth="yes"/>
      <point x="13" y="246" type="line" smooth="yes"/>
      <point x="54" y="60" type="line" smooth="yes"/>
      <point x="242" y="-13" type="line" smooth="yes"/>
      <point x="345" y="5" type="line" smooth="yes"/>
      <point x="412" y="57" type="line" smooth="yes"/>
      <point x="478" y="6" type="line" smooth="yes"/>
      <point x="590" y="-13" type="line" smooth="yes"/>
      <point x="765" y="35" type="line" smooth="yes"/>
      <point x="835" y="155" type="line" smooth="yes"/>
      <point x="837" y="170" type="line" smooth="yes"/>
      <point x="688" y="170" type="line" smooth="yes"/>
      <point x="661" y="124" type="line" smooth="yes"/>
      <point x="590" y="107" type="line" smooth="yes"/>
      <point x="520" y="130" type="line" smooth="yes"/>
      <point x="501" y="208" type="line" smooth="yes"/>
    </contour>
  </outline>
</glyph>
<glyph name="rcommaaccent" format="1">
  <advance width="384"/>
  <unicode hex="0157"/>
  <outline>
    <contour>
      <point x="360" y="543" type="line" smooth="yes"/>
      <point x="273" y="522" type="line" smooth="yes"/>
      <point x="206" y="460" type="line" smooth="yes"/>
      <point x="206" y="530" type="line" smooth="yes"/>
      <point x="65" y="530" type="line" smooth="yes"/>
      <point x="55" y="381" type="line" smooth="yes"/>
      <point x="5" y="0" type="line" smooth="yes"/>
      <point x="163" y="0" type="line" smooth="yes"/>
      <point x="207" y="335" type="line" smooth="yes"/>
      <point x="254" y="366" type="line" smooth="yes"/>
      <point x="340" y="380" type="line" smooth="yes"/>
      <point x="353" y="380" type="line" smooth="yes"/>
      <point x="374" y="542" type="line" smooth="yes"/>
      <point x="370" y="543" type="line" smooth="yes"/>
    </contour>
    <contour>
      <point x="150" y="-44" type="line" smooth="yes"/>
      <point x="8" y="-44" type="line" smooth="yes"/>
      <point x="-4" y="-136" type="line" smooth="yes"/>
      <point x="75" y="-136" type="line" smooth="yes"/>
      <point x="41" y="-164" type="line" smooth="yes"/>
      <point x="-14" y="-171" type="line" smooth="yes"/>
      <point x="-21" y="-226" type="line" smooth="yes"/>
      <point x="93" y="-198" type="line" smooth="yes"/>
      <point x="142" y="-101" type="line" smooth="yes"/>
    </contour>
  </outline>
</glyph>
<glyph name="Rcaron" format="1">
  <advance width="619"/>
  <unicode hex="0158"/>
  <outline>
    <contour>
      <point x="223" y="420" type="line" smooth="yes"/>
      <point x="253" y="640" type="line" smooth="yes"/>
      <point x="353" y="640" type="line" smooth="yes"/>
      <point x="418" y="620" type="line" smooth="yes"/>
      <point x="441" y="534" type="line" smooth="yes"/>
      <point x="439" y="519" type="line" smooth="yes"/>
      <point x="394" y="438" type="line" smooth="yes"/>
      <point x="325" y="420" type="line" smooth="yes"/>
    </contour>
    <contour>
      <point x="206" y="280" type="line" smooth="yes"/>
      <point x="295" y="280" type="line" smooth="yes"/>
      <point x="364" y="0" type="line" smooth="yes"/>
      <point x="534" y="0" type="line" smooth="yes"/>
      <point x="451" y="300" type="line" smooth="yes"/>
      <point x="547" y="370" type="line" smooth="yes"/>
      <point x="602" y="515" type="line" smooth="yes"/>
      <point x="605" y="538" type="line" smooth="yes"/>
      <point x="550" y="731" type="line" smooth="yes"/>
      <point x="372" y="780" type="line" smooth="yes"/>
      <point x="109" y="780" type="line" smooth="yes"/>
      <point x="7" y="0" type="line" smooth="yes"/>
      <point x="169" y="0" type="line" smooth="yes"/>
    </contour>
    <contour>
      <point x="170" y="950" type="line" smooth="yes"/>
      <point x="279" y="840" type="line" smooth="yes"/>
      <point x="439" y="840" type="line" smooth="yes"/>
      <point x="578" y="950" type="line" smooth="yes"/>
      <point x="433" y="950" type="line" smooth="yes"/>
      <point x="366" y="900" type="line" smooth="yes"/>
      <point x="309" y="950" type="line" smooth="yes"/>
    </contour>
  </outline>
</glyph>
<glyph name="scircumflex" format="1">
  <advance width="528"/>
  <unicode hex="015D"/>
  <outline>
    <contour>
      <point x="267" y="324" type="line" smooth="yes"/>
      <point x="211" y="338" type="line" smooth="yes"/>
      <point x="195" y="368" type="line" smooth="yes"/>
      <point x="215" y="408" type="line" smooth="yes"/>
      <point x="267" y="423" type="line" smooth="yes"/>
      <point x="320" y="405" type="line" smooth="yes"/>
      <point x="329" y="356" type="line" smooth="yes"/>
      <point x="484" y="356" type="line" smooth="yes"/>
      <point x="486" y="371" type="line" smooth="yes"/>
      <point x="445" y="498" type="line" smooth="yes"/>
      <point x="272" y="543" type="line" smooth="yes"/>
      <point x="118" y="507" type="line" smooth="yes"/>
      <point x="43" y="392" type="line" smooth="yes"/>
      <point x="41" y="377" type="line" smooth="yes"/>
      <point x="80" y="262" type="line" smooth="yes"/>
      <point x="235" y="213" type="line" smooth="yes"/>
      <point x="291" y="197" type="line" smooth="yes"/>
      <point x="307" y="165" type="line" smooth="yes"/>
      <point x="290" y="124" type="line" smooth="yes"/>
      <point x="234" y="107" type="line" smooth="yes"/>
      <point x="177" y="124" type="line" smooth="yes"/>
      <point x="165" y="168" type="line" smooth="yes"/>
      <point x="8" y="168" type="line" smooth="yes"/>
      <point x="6" y="153" type="line" smooth="yes"/>
      <point x="50" y="31" type="line" smooth="yes"/>
      <point x="229" y="-13" type="line" smooth="yes"/>
      <point x="394" y="29" type="line" smooth="yes"/>
      <point x="463" y="142" type="line" smooth="yes"/>
      <point x="465" y="157" type="line" smooth="yes"/>
      <point x="418" y="279" type="line" smooth="yes"/>
    </contour>
    <contour>
      <point x="503" y="596" type="line" smooth="yes"/>
      <point x="393" y="780" type="line" smooth="yes"/>
      <point x="241" y="780" type="line" smooth="yes"/>
      <point x="83" y="596" type="line" smooth="yes"/>
      <point x="224" y="596" type="line" smooth="yes"/>
      <point x="307" y="679" type="line" smooth="yes"/>
      <point x="368" y="596" type="line" smooth="yes"/>
    </contour>
  </outline>
</glyph>
<glyph name="Scedilla" format="1">
  <advance width="627"/>
  <unicode hex="015E"/>
  <outline>
    <contour>
      <point x="279" y="327" type="line" smooth="yes"/>
      <point x="390" y="284" type="line" smooth="yes"/>
      <point x="412" y="219" type="line" smooth="yes"/>
      <point x="410" y="204" type="line" smooth="yes"/>
      <point x="377" y="146" type="line" smooth="yes"/>
      <point x="298" y="127" type="line" smooth="yes"/>
      <point x="288" y="127" type="line" smooth="yes"/>
      <point x="201" y="159" type="line" smooth="yes"/>
      <point x="181" y="266" type="line" smooth="yes"/>
      <point x="19" y="266" type="line" smooth="yes"/>
      <point x="16" y="243" type="line" smooth="yes"/>
      <point x="56" y="68" type="line" smooth="yes"/>
      <point x="225" y="-9" type="line" smooth="yes"/>
      <point x="191" y="-72" type="line" smooth="yes"/>
      <point x="202" y="-100" type="line" smooth="yes"/>
      <point x="215" y="-98" type="line" smooth="yes"/>
      <point x="241" y="-95" type="line" smooth="yes"/>
      <point x="275" y="-100" type="line" smooth="yes"/>
      <point x="286" y="-116" type="line" smooth="yes"/>
      <point x="275" y="-134" type="line" smooth="yes"/>
      <point x="240" y="-141" type="line" smooth="yes"/>
      <point x="197" y="-136" type="line" smooth="yes"/>
      <point x="166" y="-124" type="line" smooth="yes"/>
      <point x="134" y="-190" type="line" smooth="yes"/>
      <point x="175" y="-207" type="line" smooth="yes"/>
      <point x="245" y="-215" type="line" smooth="yes"/>
      <point x="336" y="-189" type="line" smooth="yes"/>
      <point x="371" y="-118" type="line" smooth="yes"/>
      <point x="346" y="-61" type="line" smooth="yes"/>
      <point x="281" y="-40" type="line" smooth="yes"/>
      <point x="295" y="-13" type="line" smooth="yes"/>
      <point x="488" y="43" type="line" smooth="yes"/>
      <point x="575" y="205" type="line" smooth="yes"/>
      <point x="578" y="228" type="line" smooth="yes"/>
      <point x="534" y="378" type="line" smooth="yes"/>
      <point x="357" y="458" type="line" smooth="yes"/>
      <point x="248" y="500" type="line" smooth="yes"/>
      <point x="228" y="561" type="line" smooth="yes"/>
      <point x="230" y="576" type="line" smooth="yes"/>
      <point x="264" y="633" type="line" smooth="yes"/>
      <point x="334" y="653" type="line" smooth="yes"/>
      <point x="344" y="653" type="line" smooth="yes"/>
      <point x="434" y="616" type="line" smooth="yes"/>
      <point x="446" y="504" type="line" smooth="yes"/>
      <point x="608" y="504" type="line" smooth="yes"/>
      <point x="611" y="527" type="line" smooth="yes"/>
      <point x="564" y="725" type="line" smooth="yes"/>
      <point x="343" y="793" type="line" smooth="yes"/>
      <point x="151" y="738" type="line" smooth="yes"/>
      <point x="65" y="575" type="line" smooth="yes"/>
      <point x="62" y="552" type="line" smooth="yes"/>
      <point x="102" y="409" type="line" smooth="yes"/>
    </contour>
  </outline>
</glyph>
<glyph name="scedilla" format="1">
  <advance width="525"/>
  <unicode hex="015F"/>
  <outline>
    <contour>
      <point x="267" y="324" type="line" smooth="yes"/>
      <point x="211" y="338" type="line" smooth="yes"/>
      <point x="195" y="368" type="line" smooth="yes"/>
      <point x="215" y="408" type="line" smooth="yes"/>
      <point x="267" y="423" type="line" smooth="yes"/>
      <point x="320" y="405" type="line" smooth="yes"/>
      <point x="329" y="356" type="line" smooth="yes"/>
      <point x="484" y="356" type="line" smooth="yes"/>
      <point x="486" y="371" type="line" smooth="yes"/>
      <point x="445" y="498" type="line" smooth="yes"/>
      <point x="272" y="543" type="line" smooth="yes"/>
      <point x="118" y="507" type="line" smooth="yes"/>
      <point x="43" y="392" type="line" smooth="yes"/>
      <point x="41" y="377" type="line" smooth="yes"/>
      <point x="80" y="262" type="line" smooth="yes"/>
      <point x="235" y="213" type="line" smooth="yes"/>
      <point x="291" y="197" type="line" smooth="yes"/>
      <point x="307" y="165" type="line" smooth="yes"/>
      <point x="290" y="124" type="line" smooth="yes"/>
      <point x="234" y="107" type="line" smooth="yes"/>
      <point x="177" y="124" type="line" smooth="yes"/>
      <point x="165" y="168" type="line" smooth="yes"/>
      <point x="8" y="168" type="line" smooth="yes"/>
      <point x="6" y="153" type="line" smooth="yes"/>
      <point x="39" y="41" type="line" smooth="yes"/>
      <point x="179" y="-10" type="line" smooth="yes"/>
      <point x="146" y="-72" type="line" smooth="yes"/>
      <point x="157" y="-100" type="line" smooth="yes"/>
      <point x="170" y="-98" type="line" smooth="yes"/>
      <point x="196" y="-95" type="line" smooth="yes"/>
      <point x="230" y="-100" type="line" smooth="yes"/>
      <point x="241" y="-116" type="line" smooth="yes"/>
      <point x="230" y="-134" type="line" smooth="yes"/>
      <point x="195" y="-141" type="line" smooth="yes"/>
      <point x="152" y="-136" type="line" smooth="yes"/>
      <point x="121" y="-124" type="line" smooth="yes"/>
      <point x="89" y="-190" type="line" smooth="yes"/>
      <point x="130" y="-207" type="line" smooth="yes"/>
      <point x="200" y="-215" type="line" smooth="yes"/>
      <point x="291" y="-189" type="line" smooth="yes"/>
      <point x="326" y="-118" type="line" smooth="yes"/>
      <point x="301" y="-61" type="line" smooth="yes"/>
      <point x="236" y="-40" type="line" smooth="yes"/>
      <point x="250" y="-12" type="line" smooth="yes"/>
      <point x="400" y="33" type="line" smooth="yes"/>
      <point x="463" y="142" type="line" smooth="yes"/>
      <point x="465" y="157" type="line" smooth="yes"/>
      <point x="418" y="279" type="line" smooth="yes"/>
    </contour>
  </outline>
</glyph>
<glyph name="tcommaaccent" format="1">
  <advance width="431"/>
  <unicode hex="0163"/>
  <outline>
    <contour>
      <point x="278" y="530" type="line" smooth="yes"/>
      <point x="298" y="680" type="line" smooth="yes"/>
      <point x="140" y="680" type="line" smooth="yes"/>
      <point x="120" y="530" type="line" smooth="yes"/>
      <point x="38" y="530" type="line" smooth="yes"/>
      <point x="20" y="392" type="line" smooth="yes"/>
      <point x="102" y="392" type="line" smooth="yes"/>
      <point x="73" y="172" type="line" smooth="yes"/>
      <point x="102" y="40" type="line" smooth="yes"/>
      <point x="260" y="-13" type="line" smooth="yes"/>
      <point x="307" y="-8" type="line" smooth="yes"/>
      <point x="335" y="0" type="line" smooth="yes"/>
      <point x="352" y="130" type="line" smooth="yes"/>
      <point x="331" y="125" type="line" smooth="yes"/>
      <point x="301" y="123" type="line" smooth="yes"/>
      <point x="242" y="142" type="line" smooth="yes"/>
      <point x="234" y="195" type="line" smooth="yes"/>
      <point x="260" y="392" type="line" smooth="yes"/>
      <point x="396" y="392" type="line" smooth="yes"/>
      <point x="414" y="530" type="line" smooth="yes"/>
    </contour>
    <contour>
      <point x="266" y="-44" type="line" smooth="yes"/>
      <point x="124" y="-44" type="line" smooth="yes"/>
      <point x="112" y="-136" type="line" smooth="yes"/>
      <point x="191" y="-136" type="line" smooth="yes"/>
      <point x="157" y="-164" type="line" smooth="yes"/>
      <point x="102" y="-171" type="line" smooth="yes"/>
      <point x="95" y="-226" type="line" smooth="yes"/>
      <point x="209" y="-198" type="line" smooth="yes"/>
      <point x="258" y="-101" type="line" smooth="yes"/>
    </contour>
  </outline>
</glyph>
<glyph name="Utilde" format="1">
  <advance width="663"/>
  <unicode hex="0168"/>
  <outline>
    <contour>
      <point x="293" y="-13" type="line" smooth="yes"/>
      <point x="515" y="54" type="line" smooth="yes"/>
      <point x="595" y="247" type="line" smooth="yes"/>
      <point x="665" y="780" type="line" smooth="yes"/>
      <point x="503" y="780" type="line" smooth="yes"/>
      <point x="434" y="252" type="line" smooth="yes"/>
      <point x="396" y="158" type="line" smooth="yes"/>
      <point x="297" y="127" type="line" smooth="yes"/>
      <point x="208" y="159" type="line" smooth="yes"/>
      <point x="197" y="252" type="line" smooth="yes"/>
      <point x="266" y="780" type="line" smooth="yes"/>
      <point x="104" y="780" type="line" smooth="yes"/>
      <point x="34" y="247" type="line" smooth="yes"/>
      <point x="76" y="53" type="line" smooth="yes"/>
    </contour>
    <contour>
      <point x="506" y="947" type="line" smooth="yes"/>
      <point x="494" y="921" type="line" smooth="yes"/>
      <point x="469" y="914" type="line" smooth="yes"/>
      <point x="405" y="938" type="line" smooth="yes"/>
      <point x="321" y="962" type="line" smooth="yes"/>
      <point x="247" y="936" type="line" smooth="yes"/>
      <point x="207" y="843" type="line" smooth="yes"/>
      <point x="292" y="843" type="line" smooth="yes"/>
      <point x="305" y="869" type="line" smooth="yes"/>
      <point x="329" y="876" type="line" smooth="yes"/>
      <point x="393" y="852" type="line" smooth="yes"/>
      <point x="477" y="828" type="line" smooth="yes"/>
      <point x="551" y="855" type="line" smooth="yes"/>
      <point x="591" y="947" type="line" smooth="yes"/>
    </contour>
  </outline>
</glyph>
<glyph name="utilde" format="1">
  <advance width="580"/>
  <unicode hex="0169"/>
  <outline>
    <contour>
      <point x="68" y="530" type="line" smooth="yes"/>
      <point x="21" y="172" type="line" smooth="yes"/>
      <point x="46" y="40" type="line" smooth="yes"/>
      <point x="176" y="-13" type="line" smooth="yes"/>
      <point x="272" y="11" type="line" smooth="yes"/>
      <point x="345" y="70" type="line" smooth="yes"/>
      <point x="345" y="0" type="line" smooth="yes"/>
      <point x="486" y="0" type="line" smooth="yes"/>
      <point x="496" y="149" type="line" smooth="yes"/>
      <point x="546" y="530" type="line" smooth="yes"/>
      <point x="388" y="530" type="line" smooth="yes"/>
      <point x="341" y="172" type="line" smooth="yes"/>
      <point x="302" y="140" type="line" smooth="yes"/>
      <point x="241" y="123" type="line" smooth="yes"/>
      <point x="191" y="142" type="line" smooth="yes"/>
      <point x="182" y="195" type="line" smooth="yes"/>
      <point x="226" y="530" type="line" smooth="yes"/>
    </contour>
    <contour>
      <point x="434" y="772" type="line" smooth="yes"/>
      <point x="423" y="744" type="line" smooth="yes"/>
      <point x="400" y="735" type="line" smooth="yes"/>
      <point x="332" y="761" type="line" smooth="yes"/>
      <point x="244" y="787" type="line" smooth="yes"/>
      <point x="163" y="749" type="line" smooth="yes"/>
      <point x="118" y="628" type="line" smooth="yes"/>
      <point x="223" y="628" type="line" smooth="yes"/>
      <point x="234" y="656" type="line" smooth="yes"/>
      <point x="257" y="665" type="line" smooth="yes"/>
      <point x="325" y="639" type="line" smooth="yes"/>
      <point x="413" y="613" type="line" smooth="yes"/>
      <point x="494" y="651" type="line" smooth="yes"/>
      <point x="539" y="772" type="line" smooth="yes"/>
    </contour>
  </outline>
</glyph>
<glyph name="ubreve" format="1">
  <advance width="580"/>
  <unicode hex="016D"/>
  <outline>
    <contour>
      <point x="68" y="530" type="line" smooth="yes"/>
      <point x="21" y="172" type="line" smooth="yes"/>
      <point x="46" y="40" type="line" smooth="yes"/>
      <point x="176" y="-13" type="line" smooth="yes"/>
      <point x="272" y="11" type="line" smooth="yes"/>
      <point x="345" y="70" type="line" smooth="yes"/>
      <point x="345" y="0" type="line" smooth="yes"/>
      <point x="486" y="0" type="line" smooth="yes"/>
      <point x="496" y="149" type="line" smooth="yes"/>
      <point x="546" y="530" type="line" smooth="yes"/>
      <point x="388" y="530" type="line" smooth="yes"/>
      <point x="341" y="172" type="line" smooth="yes"/>
      <point x="302" y="140" type="line" smooth="yes"/>
      <point x="241" y="123" type="line" smooth="yes"/>
      <point x="191" y="142" type="line" smooth="yes"/>
      <point x="182" y="195" type="line" smooth="yes"/>
      <point x="226" y="530" type="line" smooth="yes"/>
    </contour>
    <contour>
      <point x="313" y="582" type="line" smooth="yes"/>
      <point x="467" y="638" type="line" smooth="yes"/>
      <point x="526" y="780" type="line" smooth="yes"/>
      <point x="411" y="780" type="line" smooth="yes"/>
      <point x="382" y="719" type="line" smooth="yes"/>
      <point x="327" y="702" type="line" smooth="yes"/>
      <point x="276" y="719" type="line" smooth="yes"/>
      <point x="263" y="780" type="line" smooth="yes"/>
      <point x="152" y="780" type="line" smooth="yes"/>
      <point x="174" y="638" type="line" smooth="yes"/>
    </contour>
  </outline>
</glyph>
<glyph name="Uring" format="1">
  <advance width="663"/>
  <unicode hex="016E"/>
  <outline>
    <contour>
      <point x="293" y="-13" type="line" smooth="yes"/>
      <point x="515" y="54" type="line" smooth="yes"/>
      <point x="595" y="247" type="line" smooth="yes"/>
      <point x="665" y="780" type="line" smooth="yes"/>
      <point x="503" y="780" type="line" smooth="yes"/>
      <point x="434" y="252" type="line" smooth="yes"/>
      <point x="396" y="158" type="line" smooth="yes"/>
      <point x="297" y="127" type="line" smooth="yes"/>
      <point x="208" y="159" type="line" smooth="yes"/>
      <point x="197" y="252" type="line" smooth="yes"/>
      <point x="266" y="780" type="line" smooth="yes"/>
      <point x="104" y="780" type="line" smooth="yes"/>
      <point x="34" y="247" type="line" smooth="yes"/>
      <point x="76" y="53" type="line" smooth="yes"/>
    </contour>
    <contour>
      <point x="445" y="863" type="line" smooth="yes"/>
      <point x="429" y="823" type="line" smooth="yes"/>
      <point x="388" y="807" type="line" smooth="yes"/>
      <point x="355" y="820" type="line" smooth="yes"/>
      <point x="342" y="853" type="line" smooth="yes"/>
      <point x="359" y="893" type="line" smooth="yes"/>
      <point x="399" y="909" type="line" smooth="yes"/>
      <point x="432" y="896" type="line" smooth="yes"/>
    </contour>
    <contour>
      <point x="500" y="870" type="line" smooth="yes"/>
      <point x="473" y="936" type="line" smooth="yes"/>
      <point x="404" y="963" type="line" smooth="yes"/>
      <point x="322" y="930" type="line" smooth="yes"/>
      <point x="287" y="846" type="line" smooth="yes"/>
      <point x="314" y="780" type="line" smooth="yes"/>
      <point x="383" y="753" type="line" smooth="yes"/>
      <point x="466" y="786" type="line" smooth="yes"/>
    </contour>
  </outline>
</glyph>
<glyph name="uring" format="1">
  <advance width="580"/>
  <unicode hex="016F"/>
  <outline>
    <contour>
      <point x="68" y="530" type="line" smooth="yes"/>
      <point x="21" y="172" type="line" smooth="yes"/>
      <point x="46" y="40" type="line" smooth="yes"/>
      <point x="176" y="-13" type="line" smooth="yes"/>
      <point x="272" y="11" type="line" smooth="yes"/>
      <point x="345" y="70" type="line" smooth="yes"/>
      <point x="345" y="0" type="line" smooth="yes"/>
      <point x="486" y="0" type="line" smooth="yes"/>
      <point x="496" y="149" type="line" smooth="yes"/>
      <point x="546" y="530" type="line" smooth="yes"/>
      <point x="388" y="530" type="line" smooth="yes"/>
      <point x="341" y="172" type="line" smooth="yes"/>
      <point x="302" y="140" type="line" smooth="yes"/>
      <point x="241" y="123" type="line" smooth="yes"/>
      <point x="191" y="142" type="line" smooth="yes"/>
      <point x="182" y="195" type="line" smooth="yes"/>
      <point x="226" y="530" type="line" smooth="yes"/>
    </contour>
    <contour>
      <point x="379" y="693" type="line" smooth="yes"/>
      <point x="363" y="653" type="line" smooth="yes"/>
      <point x="322" y="637" type="line" smooth="yes"/>
      <point x="289" y="650" type="line" smooth="yes"/>
      <point x="276" y="683" type="line" smooth="yes"/>
      <point x="293" y="723" type="line" smooth="yes"/>
      <point x="333" y="739" type="line" smooth="yes"/>
      <point x="366" y="726" type="line" smooth="yes"/>
    </contour>
    <contour>
      <point x="434" y="700" type="line" smooth="yes"/>
      <point x="407" y="766" type="line" smooth="yes"/>
      <point x="338" y="793" type="line" smooth="yes"/>
      <point x="256" y="760" type="line" smooth="yes"/>
      <point x="221" y="676" type="line" smooth="yes"/>
      <point x="248" y="610" type="line" smooth="yes"/>
      <point x="317" y="583" type="line" smooth="yes"/>
      <point x="400" y="616" type="line" smooth="yes"/>
    </contour>
  </outline>
</glyph>
<glyph name="Uhungarumlaut" format="1">
  <advance width="663"/>
  <unicode hex="0170"/>
  <outline>
    <contour>
      <point x="293" y="-13" type="line" smooth="yes"/>
      <point x="515" y="54" type="line" smooth="yes"/>
      <point x="595" y="247" type="line" smooth="yes"/>
      <point x="665" y="780" type="line" smooth="yes"/>
      <point x="503" y="780" type="line" smooth="yes"/>
      <point x="434" y="252" type="line" smooth="yes"/>
      <point x="396" y="158" type="line" smooth="yes"/>
      <point x="297" y="127" type="line" smooth="yes"/>
      <point x="208" y="159" type="line" smooth="yes"/>
      <point x="197" y="252" type="line" smooth="yes"/>
      <point x="266" y="780" type="line" smooth="yes"/>
      <point x="104" y="780" type="line" smooth="yes"/>
      <point x="34" y="247" type="line" smooth="yes"/>
      <point x="76" y="53" type="line" smooth="yes"/>
    </contour>
    <contour>
      <point x="475" y="950" type="line" smooth="yes"/>
      <point x="406" y="840" type="line" smooth="yes"/>
      <point x="545" y="840" type="line" smooth="yes"/>
      <point x="624" y="950" type="line" smooth="yes"/>
    </contour>
    <contour>
      <point x="300" y="950" type="line" smooth="yes"/>
      <point x="239" y="840" type="line" smooth="yes"/>
      <point x="378" y="840" type="line" smooth="yes"/>
      <point x="449" y="950" type="line" smooth="yes"/>
    </contour>
  </outline>
</glyph>
<glyph name="Uogonek" format="1">
  <advance width="663"/>
  <unicode hex="0172"/>
  <outline>
    <contour>
      <point x="412" y="0" type="line" smooth="yes"/>
      <point x="542" y="85" type="line" smooth="yes"/>
      <point x="595" y="247" type="line" smooth="yes"/>
      <point x="665" y="780" type="line" smooth="yes"/>
      <point x="503" y="780" type="line" smooth="yes"/>
      <point x="434" y="252" type="line" smooth="yes"/>
      <point x="396" y="158" type="line" smooth="yes"/>
      <point x="297" y="127" type="line" smooth="yes"/>
      <point x="208" y="159" type="line" smooth="yes"/>
      <point x="197" y="252" type="line" smooth="yes"/>
      <point x="266" y="780" type="line" smooth="yes"/>
      <point x="104" y="780" type="line" smooth="yes"/>
      <point x="34" y="247" type="line" smooth="yes"/>
      <point x="70" y="60" type="line" smooth="yes"/>
      <point x="262" y="-12" type="line" smooth="yes"/>
      <point x="229" y="-62" type="line" smooth="yes"/>
      <point x="217" y="-120" type="line" smooth="yes"/>
      <point x="251" y="-192" type="line" smooth="yes"/>
      <point x="344" y="-215" type="line" smooth="yes"/>
      <point x="400" y="-207" type="line" smooth="yes"/>
      <point x="445" y="-190" type="line" smooth="yes"/>
      <point x="422" y="-94" type="line" smooth="yes"/>
      <point x="404" y="-101" type="line" smooth="yes"/>
      <point x="379" y="-105" type="line" smooth="yes"/>
      <point x="350" y="-97" type="line" smooth="yes"/>
      <point x="340" y="-75" type="line" smooth="yes"/>
      <point x="364" y="-26" type="line" smooth="yes"/>
    </contour>
  </outline>
</glyph>
<glyph name="uogonek" format="1">
  <advance width="580"/>
  <unicode hex="0173"/>
  <outline>
    <contour>
      <point x="68" y="530" type="line" smooth="yes"/>
      <point x="21" y="172" type="line" smooth="yes"/>
      <point x="46" y="40" type="line" smooth="yes"/>
      <point x="176" y="-13" type="line" smooth="yes"/>
      <point x="272" y="11" type="line" smooth="yes"/>
      <point x="345" y="70" type="line" smooth="yes"/>
      <point x="345" y="-3" type="line" smooth="yes"/>
      <point x="306" y="-56" type="line" smooth="yes"/>
      <point x="291" y="-120" type="line" smooth="yes"/>
      <point x="325" y="-192" type="line" smooth="yes"/>
      <point x="418" y="-215" type="line" smooth="yes"/>
      <point x="474" y="-207" type="line" smooth="yes"/>
      <point x="519" y="-190" type="line" smooth="yes"/>
      <point x="496" y="-94" type="line" smooth="yes"/>
      <point x="478" y="-101" type="line" smooth="yes"/>
      <point x="453" y="-105" type="line" smooth="yes"/>
      <point x="424" y="-97" type="line" smooth="yes"/>
      <point x="414" y="-75" type="line" smooth="yes"/>
      <point x="438" y="-26" type="line" smooth="yes"/>
      <point x="486" y="0" type="line" smooth="yes"/>
      <point x="496" y="149" type="line" smooth="yes"/>
      <point x="546" y="530" type="line" smooth="yes"/>
      <point x="388" y="530" type="line" smooth="yes"/>
      <point x="341" y="172" type="line" smooth="yes"/>
      <point x="302" y="140" type="line" smooth="yes"/>
      <point x="241" y="123" type="line" smooth="yes"/>
      <point x="191" y="142" type="line" smooth="yes"/>
      <point x="182" y="195" type="line" smooth="yes"/>
      <point x="226" y="530" type="line" smooth="yes"/>
    </contour>
  </outline>
</glyph>
<glyph name="Wcircumflex" format="1">
  <advance width="937"/>
  <unicode hex="0174"/>
  <outline>
    <contour>
      <point x="529" y="-2" type="line" smooth="yes"/>
      <point x="738" y="-2" type="line" smooth="yes"/>
      <point x="971" y="780" type="line" smooth="yes"/>
      <point x="814" y="780" type="line" smooth="yes"/>
      <point x="655" y="220" type="line" smooth="yes"/>
      <point x="628" y="780" type="line" smooth="yes"/>
      <point x="415" y="780" type="line" smooth="yes"/>
      <point x="248" y="221" type="line" smooth="yes"/>
      <point x="230" y="780" type="line" smooth="yes"/>
      <point x="72" y="780" type="line" smooth="yes"/>
      <point x="101" y="-2" type="line" smooth="yes"/>
      <point x="326" y="-2" type="line" smooth="yes"/>
      <point x="501" y="585" type="line" smooth="yes"/>
    </contour>
    <contour>
      <point x="733" y="840" type="line" smooth="yes"/>
      <point x="624" y="950" type="line" smooth="yes"/>
      <point x="464" y="950" type="line" smooth="yes"/>
      <point x="325" y="840" type="line" smooth="yes"/>
      <point x="470" y="840" type="line" smooth="yes"/>
      <point x="537" y="890" type="line" smooth="yes"/>
      <point x="594" y="840" type="line" smooth="yes"/>
    </contour>
  </outline>
</glyph>
<glyph name="zacute" format="1">
  <advance width="499"/>
  <unicode hex="017A"/>
  <outline>
    <contour>
      <point x="-12" y="108" type="line" smooth="yes"/>
      <point x="-26" y="0" type="line" smooth="yes"/>
      <point x="425" y="0" type="line" smooth="yes"/>
      <point x="443" y="138" type="line" smooth="yes"/>
      <point x="313" y="138" type="line" smooth="yes"/>
      <point x="202" y="135" type="line" smooth="yes"/>
      <point x="470" y="422" type="line" smooth="yes"/>
      <point x="484" y="530" type="line" smooth="yes"/>
      <point x="53" y="530" type="line" smooth="yes"/>
      <point x="35" y="392" type="line" smooth="yes"/>
      <point x="145" y="392" type="line" smooth="yes"/>
      <point x="256" y="395" type="line" smooth="yes"/>
    </contour>
    <contour>
      <point x="314" y="780" type="line" smooth="yes"/>
      <point x="199" y="596" type="line" smooth="yes"/>
      <point x="355" y="596" type="line" smooth="yes"/>
      <point x="486" y="780" type="line" smooth="yes"/>
    </contour>
  </outline>
</glyph>
<glyph name="zdotaccent" format="1">
  <advance width="499"/>
  <unicode hex="017C"/>
  <outline>
    <contour>
      <point x="-12" y="108" type="line" smooth="yes"/>
      <point x="-26" y="0" type="line" smooth="yes"/>
      <point x="425" y="0" type="line" smooth="yes"/>
      <point x="443" y="138" type="line" smooth="yes"/>
      <point x="313" y="138" type="line" smooth="yes"/>
      <point x="202" y="135" type="line" smooth="yes"/>
      <point x="470" y="422" type="line" smooth="yes"/>
      <point x="484" y="530" type="line" smooth="yes"/>
      <point x="53" y="530" type="line" smooth="yes"/>
      <point x="35" y="392" type="line" smooth="yes"/>
      <point x="145" y="392" type="line" smooth="yes"/>
      <point x="256" y="395" type="line" smooth="yes"/>
    </contour>
    <contour>
      <point x="384" y="772" type="line" smooth="yes"/>
      <point x="217" y="772" type="line" smooth="yes"/>
      <point x="195" y="605" type="line" smooth="yes"/>
      <point x="362" y="605" type="line" smooth="yes"/>
    </contour>
  </outline>
</glyph>
<glyph name="Zcaron" format="1">
  <advance width="599"/>
  <unicode hex="017D"/>
  <outline>
    <contour>
      <point x="4" y="108" type="line" smooth="yes"/>
      <point x="-10" y="0" type="line" smooth="yes"/>
      <point x="509" y="0" type="line" smooth="yes"/>
      <point x="527" y="140" type="line" smooth="yes"/>
      <point x="346" y="140" type="line" smooth="yes"/>
      <point x="204" y="137" type="line" smooth="yes"/>
      <point x="587" y="672" type="line" smooth="yes"/>
      <point x="601" y="780" type="line" smooth="yes"/>
      <point x="102" y="780" type="line" smooth="yes"/>
      <point x="84" y="640" type="line" smooth="yes"/>
      <point x="244" y="640" type="line" smooth="yes"/>
      <point x="387" y="643" type="line" smooth="yes"/>
    </contour>
    <contour>
      <point x="170" y="950" type="line" smooth="yes"/>
      <point x="279" y="840" type="line" smooth="yes"/>
      <point x="439" y="840" type="line" smooth="yes"/>
      <point x="578" y="950" type="line" smooth="yes"/>
      <point x="433" y="950" type="line" smooth="yes"/>
      <point x="366" y="900" type="line" smooth="yes"/>
      <point x="309" y="950" type="line" smooth="yes"/>
    </contour>
  </outline>
</glyph>
<glyph name="scommaaccent" format="1">
  <advance width="525"/>
  <unicode hex="0219"/>
  <outline>
    <contour>
      <point x="267" y="324" type="line" smooth="yes"/>
      <point x="211" y="338" type="line" smooth="yes"/>
      <point x="195" y="368" type="line" smooth="yes"/>
      <point x="215" y="408" type="line" smooth="yes"/>
      <point x="267" y="423" type="line" smooth="yes"/>
      <point x="320" y="405" type="line" smooth="yes"/>
      <point x="329" y="356" type="line" smooth="yes"/>
      <point x="484" y="356" type="line" smooth="yes"/>
      <point x="486" y="371" type="line" smooth="yes"/>
      <point x="445" y="498" type="line" smooth="yes"/>
      <point x="272" y="543" type="line" smooth="yes"/>
      <point x="118" y="507" type="line" smooth="yes"/>
      <point x="43" y="392" type="line" smooth="yes"/>
      <point x="41" y="377" type="line" smooth="yes"/>
      <point x="80" y="262" type="line" smooth="yes"/>
      <point x="235" y="213" type="line" smooth="yes"/>
      <point x="291" y="197" type="line" smooth="yes"/>
      <point x="307" y="165" type="line" smooth="yes"/>
      <point x="290" y="124" type="line" smooth="yes"/>
      <point x="234" y="107" type="line" smooth="yes"/>
      <point x="177" y="124" type="line" smooth="yes"/>
      <point x="165" y="168" type="line" smooth="yes"/>
      <point x="8" y="168" type="line" smooth="yes"/>
      <point x="6" y="153" type="line" smooth="yes"/>
      <point x="50" y="31" type="line" smooth="yes"/>
      <point x="229" y="-13" type="line" smooth="yes"/>
      <point x="394" y="29" type="line" smooth="yes"/>
      <point x="463" y="142" type="line" smooth="yes"/>
      <point x="465" y="157" type="line" smooth="yes"/>
      <point x="418" y="279" type="line" smooth="yes"/>
    </contour>
    <contour>
      <point x="280" y="-44" type="line" smooth="yes"/>
      <point x="138" y="-44" type="line" smooth="yes"/>
      <point x="126" y="-136" type="line" smooth="yes"/>
      <point x="205" y="-136" type="line" smooth="yes"/>
      <point x="171" y="-164" type="line" smooth="yes"/>
      <point x="116" y="-171" type="line" smooth="yes"/>
      <point x="109" y="-226" type="line" smooth="yes"/>
      <point x="223" y="-198" type="line" smooth="yes"/>
      <point x="272" y="-101" type="line" smooth="yes"/>
    </contour>
  </outline>
</glyph>
<glyph name="dotlessj" format="1">
  <advance width="268"/>
  <unicode hex="0237"/>
  <outline>
    <contour>
      <point x="4" y="-6" type="line" smooth="yes"/>
      <point x="-25" y="-64" type="line" smooth="yes"/>
      <point x="-80" y="-77" type="line" smooth="yes"/>
      <point x="-113" y="-74" type="line" smooth="yes"/>
      <point x="-130" y="-70" type="line" smooth="yes"/>
      <point x="-147" y="-200" type="line" smooth="yes"/>
      <point x="-119" y="-208" type="line" smooth="yes"/>
      <point x="-60" y="-213" type="line" smooth="yes"/>
      <point x="88" y="-170" type="line" smooth="yes"/>
      <point x="160" y="-23" type="line" smooth="yes"/>
      <point x="232" y="530" type="line" smooth="yes"/>
      <point x="74" y="530" type="line" smooth="yes"/>
    </contour>
  </outline>
</glyph>
<glyph name="caron" format="1">
  <advance width="500"/>
  <unicode hex="02C7"/>
  <outline>
    <contour>
      <point x="93" y="780" type="line" smooth="yes"/>
      <point x="203" y="596" type="line" smooth="yes"/>
      <point x="355" y="596" type="line" smooth="yes"/>
      <point x="513" y="780" type="line" smooth="yes"/>
      <point x="372" y="780" type="line" smooth="yes"/>
      <point x="289" y="697" type="line" smooth="yes"/>
      <point x="228" y="780" type="line" smooth="yes"/>
    </contour>
  </outline>
</glyph>
<glyph name="breve" format="1">
  <advance width="500"/>
  <unicode hex="02D8"/>
  <outline>
    <contour>
      <point x="277" y="582" type="line" smooth="yes"/>
      <point x="431" y="638" type="line" smooth="yes"/>
      <point x="490" y="780" type="line" smooth="yes"/>
      <point x="375" y="780" type="line" smooth="yes"/>
      <point x="346" y="719" type="line" smooth="yes"/>
      <point x="291" y="702" type="line" smooth="yes"/>
      <point x="240" y="719" type="line" smooth="yes"/>
      <point x="227" y="780" type="line" smooth="yes"/>
      <point x="116" y="780" type="line" smooth="yes"/>
      <point x="138" y="638" type="line" smooth="yes"/>
    </contour>
  </outline>
</glyph>
<glyph name="ring" format="1">
  <advance width="500"/>
  <unicode hex="02DA"/>
  <outline>
    <contour>
      <point x="343" y="693" type="line" smooth="yes"/>
      <point x="327" y="653" type="line" smooth="yes"/>
      <point x="286" y="637" type="line" smooth="yes"/>
      <point x="253" y="650" type="line" smooth="yes"/>
      <point x="240" y="683" type="line" smooth="yes"/>
      <point x="257" y="723" type="line" smooth="yes"/>
      <point x="297" y="739" type="line" smooth="yes"/>
      <point x="330" y="726" type="line" smooth="yes"/>
    </contour>
    <contour>
      <point x="398" y="700" type="line" smooth="yes"/>
      <point x="371" y="766" type="line" smooth="yes"/>
      <point x="302" y="793" type="line" smooth="yes"/>
      <point x="220" y="760" type="line" smooth="yes"/>
      <point x="185" y="676" type="line" smooth="yes"/>
      <point x="212" y="610" type="line" smooth="yes"/>
      <point x="281" y="583" type="line" smooth="yes"/>
      <point x="364" y="616" type="line" smooth="yes"/>
    </contour>
  </outline>
</glyph>
<glyph name="tilde" format="1">
  <advance width="500"/>
  <unicode hex="02DC"/>
  <outline>
    <contour>
      <point x="398" y="772" type="line" smooth="yes"/>
      <point x="387" y="744" type="line" smooth="yes"/>
      <point x="364" y="735" type="line" smooth="yes"/>
      <point x="296" y="761" type="line" smooth="yes"/>
      <point x="208" y="787" type="line" smooth="yes"/>
      <point x="127" y="749" type="line" smooth="yes"/>
      <point x="82" y="628" type="line" smooth="yes"/>
      <point x="187" y="628" type="line" smooth="yes"/>
      <point x="198" y="656" type="line" smooth="yes"/>
      <point x="221" y="665" type="line" smooth="yes"/>
      <point x="289" y="639" type="line" smooth="yes"/>
      <point x="377" y="613" type="line" smooth="yes"/>
      <point x="458" y="651" type="line" smooth="yes"/>
      <point x="503" y="772" type="line" smooth="yes"/>
    </contour>
  </outline>
</glyph>
<glyph name="Bdotaccent" format="1">
  <advance width="628"/>
  <unicode hex="1E02"/>
  <outline>
    <contour>
      <point x="348" y="640" type="line" smooth="yes"/>
      <point x="405" y="623" type="line" smooth="yes"/>
      <point x="424" y="561" type="line" smooth="yes"/>
      <point x="422" y="546" type="line" smooth="yes"/>
      <point x="386" y="484" type="line" smooth="yes"/>
      <point x="326" y="469" type="line" smooth="yes"/>
      <point x="230" y="469" type="line" smooth="yes"/>
      <point x="253" y="640" type="line" smooth="yes"/>
    </contour>
    <contour>
      <point x="322" y="328" type="line" smooth="yes"/>
      <point x="384" y="309" type="line" smooth="yes"/>
      <point x="401" y="238" type="line" smooth="yes"/>
      <point x="399" y="223" type="line" smooth="yes"/>
      <point x="362" y="155" type="line" smooth="yes"/>
      <point x="294" y="140" type="line" smooth="yes"/>
      <point x="187" y="140" type="line" smooth="yes"/>
      <point x="211" y="328" type="line" smooth="yes"/>
    </contour>
    <contour>
      <point x="109" y="780" type="line" smooth="yes"/>
      <point x="7" y="0" type="line" smooth="yes"/>
      <point x="272" y="0" type="line" smooth="yes"/>
      <point x="457" y="35" type="line" smooth="yes"/>
      <point x="561" y="214" type="line" smooth="yes"/>
      <point x="564" y="237" type="line" smooth="yes"/>
      <point x="552" y="344" type="line" smooth="yes"/>
      <point x="485" y="403" type="line" smooth="yes"/>
      <point x="554" y="451" type="line" smooth="yes"/>
      <point x="585" y="542" type="line" smooth="yes"/>
      <point x="588" y="565" type="line" smooth="yes"/>
      <point x="532" y="739" type="line" smooth="yes"/>
      <point x="367" y="780" type="line" smooth="yes"/>
    </contour>
    <contour>
      <point x="439" y="945" type="line" smooth="yes"/>
      <point x="306" y="945" type="line" smooth="yes"/>
      <point x="293" y="845" type="line" smooth="yes"/>
      <point x="426" y="845" type="line" smooth="yes"/>
    </contour>
  </outline>
</glyph>
<glyph name="bdotaccent" format="1">
  <advance width="569"/>
  <unicode hex="1E03"/>
  <outline>
    <contour>
      <point x="272" y="945" type="line" smooth="yes"/>
      <point x="139" y="945" type="line" smooth="yes"/>
      <point x="126" y="845" type="line" smooth="yes"/>
      <point x="259" y="845" type="line" smooth="yes"/>
    </contour>
    <contour>
      <point x="265" y="123" type="line" smooth="yes"/>
      <point x="211" y="142" type="line" smooth="yes"/>
      <point x="184" y="175" type="line" smooth="yes"/>
      <point x="208" y="358" type="line" smooth="yes"/>
      <point x="241" y="390" type="line" smooth="yes"/>
      <point x="300" y="407" type="line" smooth="yes"/>
      <point x="363" y="376" type="line" smooth="yes"/>
      <point x="374" y="284" type="line" smooth="yes"/>
      <point x="369" y="246" type="line" smooth="yes"/>
      <point x="337" y="155" type="line" smooth="yes"/>
    </contour>
    <contour>
      <point x="266" y="800" type="line" smooth="yes"/>
      <point x="108" y="800" type="line" smooth="yes"/>
      <point x="23" y="150" type="line" smooth="yes"/>
      <point x="-5" y="0" type="line" smooth="yes"/>
      <point x="137" y="0" type="line" smooth="yes"/>
      <point x="155" y="65" type="line" smooth="yes"/>
      <point x="209" y="9" type="line" smooth="yes"/>
      <point x="302" y="-13" type="line" smooth="yes"/>
      <point x="458" y="59" type="line" smooth="yes"/>
      <point x="527" y="246" type="line" smooth="yes"/>
      <point x="532" y="284" type="line" smooth="yes"/>
      <point x="506" y="473" type="line" smooth="yes"/>
      <point x="362" y="543" type="line" smooth="yes"/>
      <point x="281" y="528" type="line" smooth="yes"/>
      <point x="225" y="488" type="line" smooth="yes"/>
    </contour>
  </outline>
</glyph>
<glyph name="fdotaccent" format="1">
  <advance width="411"/>
  <unicode hex="1E1F"/>
  <outline>
    <contour>
      <point x="385" y="945" type="line" smooth="yes"/>
      <point x="252" y="945" type="line" smooth="yes"/>
      <point x="239" y="845" type="line" smooth="yes"/>
      <point x="372" y="845" type="line" smooth="yes"/>
    </contour>
    <contour>
      <point x="288" y="606" type="line" smooth="yes"/>
      <point x="317" y="664" type="line" smooth="yes"/>
      <point x="372" y="677" type="line" smooth="yes"/>
      <point x="405" y="674" type="line" smooth="yes"/>
      <point x="422" y="670" type="line" smooth="yes"/>
      <point x="439" y="800" type="line" smooth="yes"/>
      <point x="411" y="808" type="line" smooth="yes"/>
      <point x="352" y="813" type="line" smooth="yes"/>
      <point x="204" y="770" type="line" smooth="yes"/>
      <point x="132" y="623" type="line" smooth="yes"/>
      <point x="120" y="530" type="line" smooth="yes"/>
      <point x="38" y="530" type="line" smooth="yes"/>
      <point x="20" y="392" type="line" smooth="yes"/>
      <point x="102" y="392" type="line" smooth="yes"/>
      <point x="51" y="0" type="line" smooth="yes"/>
      <point x="209" y="0" type="line" smooth="yes"/>
      <point x="260" y="392" type="line" smooth="yes"/>
      <point x="376" y="392" type="line" smooth="yes"/>
      <point x="394" y="530" type="line" smooth="yes"/>
      <point x="278" y="530" type="line" smooth="yes"/>
    </contour>
  </outline>
</glyph>
